<?xml version="1.0" encoding="UTF-8" standalone="no"?>
<!DOCTYPE svg PUBLIC "-//W3C//DTD SVG 1.1//EN"
 "http://www.w3.org/Graphics/SVG/1.1/DTD/svg11.dtd">
<!-- Generated by graphviz version 2.43.0 (0)
 -->
<!-- Title: %3 Pages: 1 -->
<svg width="176pt" height="260pt"
 viewBox="0.00 0.00 176.25 260.00" xmlns="http://www.w3.org/2000/svg" xmlns:xlink="http://www.w3.org/1999/xlink">
<g id="graph0" class="graph" transform="scale(1 1) rotate(0) translate(4 256)">
<title>%3</title>
<polygon fill="white" stroke="transparent" points="-4,4 -4,-256 172.25,-256 172.25,4 -4,4"/>
<!-- 0 -->
<g id="node1" class="node">
<title>0</title>
<ellipse fill="none" stroke="black" cx="66.25" cy="-234" rx="27" ry="18"/>
<text text-anchor="middle" x="66.25" y="-230.3" font-family="Times,serif" font-size="14.00">sin</text>
</g>
<!-- 1 -->
<g id="node2" class="node">
<title>1</title>
<ellipse fill="none" stroke="black" cx="66.25" cy="-162" rx="27" ry="18"/>
<text text-anchor="middle" x="66.25" y="-158.3" font-family="Times,serif" font-size="14.00">/</text>
</g>
<!-- 0&#45;&gt;1 -->
<g id="edge1" class="edge">
<title>0&#45;&gt;1</title>
<path fill="none" stroke="black" d="M66.25,-215.7C66.25,-207.98 66.25,-198.71 66.25,-190.11"/>
<polygon fill="black" stroke="black" points="69.75,-190.1 66.25,-180.1 62.75,-190.1 69.75,-190.1"/>
</g>
<!-- 2 -->
<g id="node3" class="node">
<title>2</title>
<ellipse fill="none" stroke="black" cx="29.25" cy="-90" rx="29.5" ry="18"/>
<text text-anchor="middle" x="29.25" y="-86.3" font-family="Times,serif" font-size="14.00">&#45;1.11</text>
</g>
<!-- 1&#45;&gt;2 -->
<g id="edge2" class="edge">
<title>1&#45;&gt;2</title>
<path fill="none" stroke="black" d="M57.67,-144.76C53.25,-136.4 47.76,-126.02 42.78,-116.61"/>
<polygon fill="black" stroke="black" points="45.81,-114.84 38.04,-107.63 39.62,-118.11 45.81,-114.84"/>
</g>
<!-- 3 -->
<g id="node4" class="node">
<title>3</title>
<ellipse fill="none" stroke="black" cx="103.25" cy="-90" rx="27" ry="18"/>
<text text-anchor="middle" x="103.25" y="-86.3" font-family="Times,serif" font-size="14.00">+</text>
</g>
<!-- 1&#45;&gt;3 -->
<g id="edge3" class="edge">
<title>1&#45;&gt;3</title>
<path fill="none" stroke="black" d="M74.83,-144.76C79.31,-136.28 84.9,-125.71 89.93,-116.2"/>
<polygon fill="black" stroke="black" points="93.13,-117.62 94.71,-107.15 86.94,-114.35 93.13,-117.62"/>
</g>
<!-- 4 -->
<g id="node5" class="node">
<title>4</title>
<ellipse fill="none" stroke="black" cx="65.25" cy="-18" rx="30.59" ry="18"/>
<text text-anchor="middle" x="65.25" y="-14.3" font-family="Times,serif" font-size="14.00">7.496</text>
</g>
<!-- 3&#45;&gt;4 -->
<g id="edge4" class="edge">
<title>3&#45;&gt;4</title>
<path fill="none" stroke="black" d="M94.43,-72.76C89.9,-64.4 84.26,-54.02 79.15,-44.61"/>
<polygon fill="black" stroke="black" points="82.12,-42.75 74.28,-35.63 75.97,-46.09 82.12,-42.75"/>
</g>
<!-- 5 -->
<g id="node6" class="node">
<title>5</title>
<ellipse fill="none" stroke="black" cx="141.25" cy="-18" rx="27" ry="18"/>
<text text-anchor="middle" x="141.25" y="-14.3" font-family="Times,serif" font-size="14.00">x</text>
</g>
<!-- 3&#45;&gt;5 -->
<g id="edge5" class="edge">
<title>3&#45;&gt;5</title>
<path fill="none" stroke="black" d="M112.06,-72.76C116.67,-64.28 122.4,-53.71 127.57,-44.2"/>
<polygon fill="black" stroke="black" points="130.79,-45.61 132.48,-35.15 124.63,-42.27 130.79,-45.61"/>
</g>
</g>
</svg>
