<?xml version="1.0" encoding="UTF-8" standalone="no"?>
<!DOCTYPE svg PUBLIC "-//W3C//DTD SVG 1.1//EN"
 "http://www.w3.org/Graphics/SVG/1.1/DTD/svg11.dtd">
<!-- Generated by graphviz version 2.43.0 (0)
 -->
<!-- Title: %3 Pages: 1 -->
<svg width="194pt" height="260pt"
 viewBox="0.00 0.00 193.59 260.00" xmlns="http://www.w3.org/2000/svg" xmlns:xlink="http://www.w3.org/1999/xlink">
<g id="graph0" class="graph" transform="scale(1 1) rotate(0) translate(4 256)">
<title>%3</title>
<polygon fill="white" stroke="transparent" points="-4,4 -4,-256 189.59,-256 189.59,4 -4,4"/>
<!-- 0 -->
<g id="node1" class="node">
<title>0</title>
<ellipse fill="none" stroke="black" cx="111.8" cy="-234" rx="27" ry="18"/>
<text text-anchor="middle" x="111.8" y="-230.3" font-family="Times,serif" font-size="14.00">cos</text>
</g>
<!-- 1 -->
<g id="node2" class="node">
<title>1</title>
<ellipse fill="none" stroke="black" cx="111.8" cy="-162" rx="27" ry="18"/>
<text text-anchor="middle" x="111.8" y="-158.3" font-family="Times,serif" font-size="14.00">/</text>
</g>
<!-- 0&#45;&gt;1 -->
<g id="edge1" class="edge">
<title>0&#45;&gt;1</title>
<path fill="none" stroke="black" d="M111.8,-215.7C111.8,-207.98 111.8,-198.71 111.8,-190.11"/>
<polygon fill="black" stroke="black" points="115.3,-190.1 111.8,-180.1 108.3,-190.1 115.3,-190.1"/>
</g>
<!-- 2 -->
<g id="node3" class="node">
<title>2</title>
<ellipse fill="none" stroke="black" cx="72.8" cy="-90" rx="27" ry="18"/>
<text text-anchor="middle" x="72.8" y="-86.3" font-family="Times,serif" font-size="14.00">+</text>
</g>
<!-- 1&#45;&gt;2 -->
<g id="edge2" class="edge">
<title>1&#45;&gt;2</title>
<path fill="none" stroke="black" d="M102.75,-144.76C97.98,-136.19 92.02,-125.49 86.67,-115.9"/>
<polygon fill="black" stroke="black" points="89.72,-114.18 81.79,-107.15 83.6,-117.59 89.72,-114.18"/>
</g>
<!-- 5 -->
<g id="node4" class="node">
<title>5</title>
<ellipse fill="none" stroke="black" cx="151.8" cy="-90" rx="33.6" ry="18"/>
<text text-anchor="middle" x="151.8" y="-86.3" font-family="Times,serif" font-size="14.00">&#45;5.645</text>
</g>
<!-- 1&#45;&gt;5 -->
<g id="edge3" class="edge">
<title>1&#45;&gt;5</title>
<path fill="none" stroke="black" d="M121.07,-144.76C125.85,-136.4 131.79,-126.02 137.17,-116.61"/>
<polygon fill="black" stroke="black" points="140.37,-118.05 142.29,-107.63 134.29,-114.58 140.37,-118.05"/>
</g>
<!-- 3 -->
<g id="node5" class="node">
<title>3</title>
<ellipse fill="none" stroke="black" cx="33.8" cy="-18" rx="33.6" ry="18"/>
<text text-anchor="middle" x="33.8" y="-14.3" font-family="Times,serif" font-size="14.00">&#45;4.915</text>
</g>
<!-- 2&#45;&gt;3 -->
<g id="edge4" class="edge">
<title>2&#45;&gt;3</title>
<path fill="none" stroke="black" d="M63.75,-72.76C59.09,-64.4 53.31,-54.02 48.06,-44.61"/>
<polygon fill="black" stroke="black" points="50.99,-42.67 43.06,-35.63 44.87,-46.07 50.99,-42.67"/>
</g>
<!-- 4 -->
<g id="node6" class="node">
<title>4</title>
<ellipse fill="none" stroke="black" cx="112.8" cy="-18" rx="27" ry="18"/>
<text text-anchor="middle" x="112.8" y="-14.3" font-family="Times,serif" font-size="14.00">x</text>
</g>
<!-- 2&#45;&gt;4 -->
<g id="edge5" class="edge">
<title>2&#45;&gt;4</title>
<path fill="none" stroke="black" d="M82.07,-72.76C86.97,-64.19 93.09,-53.49 98.57,-43.9"/>
<polygon fill="black" stroke="black" points="101.65,-45.57 103.57,-35.15 95.57,-42.09 101.65,-45.57"/>
</g>
</g>
</svg>
