<?xml version="1.0" encoding="UTF-8" standalone="no"?>
<!DOCTYPE svg PUBLIC "-//W3C//DTD SVG 1.1//EN"
 "http://www.w3.org/Graphics/SVG/1.1/DTD/svg11.dtd">
<!-- Generated by graphviz version 2.43.0 (0)
 -->
<!-- Title: %3 Pages: 1 -->
<svg width="177pt" height="260pt"
 viewBox="0.00 0.00 176.55 260.00" xmlns="http://www.w3.org/2000/svg" xmlns:xlink="http://www.w3.org/1999/xlink">
<g id="graph0" class="graph" transform="scale(1 1) rotate(0) translate(4 256)">
<title>%3</title>
<polygon fill="white" stroke="transparent" points="-4,4 -4,-256 172.55,-256 172.55,4 -4,4"/>
<!-- 0 -->
<g id="node1" class="node">
<title>0</title>
<ellipse fill="none" stroke="black" cx="105.55" cy="-234" rx="27" ry="18"/>
<text text-anchor="middle" x="105.55" y="-230.3" font-family="Times,serif" font-size="14.00">cos</text>
</g>
<!-- 1 -->
<g id="node2" class="node">
<title>1</title>
<ellipse fill="none" stroke="black" cx="105.55" cy="-162" rx="27" ry="18"/>
<text text-anchor="middle" x="105.55" y="-158.3" font-family="Times,serif" font-size="14.00">*</text>
</g>
<!-- 0&#45;&gt;1 -->
<g id="edge1" class="edge">
<title>0&#45;&gt;1</title>
<path fill="none" stroke="black" d="M105.55,-215.7C105.55,-207.98 105.55,-198.71 105.55,-190.11"/>
<polygon fill="black" stroke="black" points="109.05,-190.1 105.55,-180.1 102.05,-190.1 109.05,-190.1"/>
</g>
<!-- 2 -->
<g id="node3" class="node">
<title>2</title>
<ellipse fill="none" stroke="black" cx="69.55" cy="-90" rx="27" ry="18"/>
<text text-anchor="middle" x="69.55" y="-86.3" font-family="Times,serif" font-size="14.00">/</text>
</g>
<!-- 1&#45;&gt;2 -->
<g id="edge2" class="edge">
<title>1&#45;&gt;2</title>
<path fill="none" stroke="black" d="M97.2,-144.76C92.84,-136.28 87.4,-125.71 82.51,-116.2"/>
<polygon fill="black" stroke="black" points="85.54,-114.44 77.85,-107.15 79.31,-117.64 85.54,-114.44"/>
</g>
<!-- 5 -->
<g id="node4" class="node">
<title>5</title>
<ellipse fill="none" stroke="black" cx="141.55" cy="-90" rx="27" ry="18"/>
<text text-anchor="middle" x="141.55" y="-86.3" font-family="Times,serif" font-size="14.00">x</text>
</g>
<!-- 1&#45;&gt;5 -->
<g id="edge3" class="edge">
<title>1&#45;&gt;5</title>
<path fill="none" stroke="black" d="M113.9,-144.76C118.26,-136.28 123.69,-125.71 128.59,-116.2"/>
<polygon fill="black" stroke="black" points="131.78,-117.64 133.24,-107.15 125.56,-114.44 131.78,-117.64"/>
</g>
<!-- 3 -->
<g id="node5" class="node">
<title>3</title>
<ellipse fill="none" stroke="black" cx="30.55" cy="-18" rx="30.59" ry="18"/>
<text text-anchor="middle" x="30.55" y="-14.3" font-family="Times,serif" font-size="14.00">1.066</text>
</g>
<!-- 2&#45;&gt;3 -->
<g id="edge4" class="edge">
<title>2&#45;&gt;3</title>
<path fill="none" stroke="black" d="M60.5,-72.76C55.84,-64.4 50.06,-54.02 44.81,-44.61"/>
<polygon fill="black" stroke="black" points="47.74,-42.67 39.81,-35.63 41.62,-46.07 47.74,-42.67"/>
</g>
<!-- 4 -->
<g id="node6" class="node">
<title>4</title>
<ellipse fill="none" stroke="black" cx="108.55" cy="-18" rx="29.5" ry="18"/>
<text text-anchor="middle" x="108.55" y="-14.3" font-family="Times,serif" font-size="14.00">&#45;6.92</text>
</g>
<!-- 2&#45;&gt;4 -->
<g id="edge5" class="edge">
<title>2&#45;&gt;4</title>
<path fill="none" stroke="black" d="M78.59,-72.76C83.37,-64.19 89.33,-53.49 94.67,-43.9"/>
<polygon fill="black" stroke="black" points="97.74,-45.59 99.55,-35.15 91.63,-42.18 97.74,-45.59"/>
</g>
</g>
</svg>
