<?xml version="1.0" encoding="UTF-8" standalone="no"?>
<!DOCTYPE svg PUBLIC "-//W3C//DTD SVG 1.1//EN"
 "http://www.w3.org/Graphics/SVG/1.1/DTD/svg11.dtd">
<!-- Generated by graphviz version 2.43.0 (0)
 -->
<!-- Title: %3 Pages: 1 -->
<svg width="148pt" height="260pt"
 viewBox="0.00 0.00 148.34 260.00" xmlns="http://www.w3.org/2000/svg" xmlns:xlink="http://www.w3.org/1999/xlink">
<g id="graph0" class="graph" transform="scale(1 1) rotate(0) translate(4 256)">
<title>%3</title>
<polygon fill="white" stroke="transparent" points="-4,4 -4,-256 144.34,-256 144.34,4 -4,4"/>
<!-- 0 -->
<g id="node1" class="node">
<title>0</title>
<ellipse fill="none" stroke="black" cx="71.8" cy="-234" rx="27" ry="18"/>
<text text-anchor="middle" x="71.8" y="-230.3" font-family="Times,serif" font-size="14.00">abs</text>
</g>
<!-- 1 -->
<g id="node2" class="node">
<title>1</title>
<ellipse fill="none" stroke="black" cx="71.8" cy="-162" rx="27" ry="18"/>
<text text-anchor="middle" x="71.8" y="-158.3" font-family="Times,serif" font-size="14.00">&#45;</text>
</g>
<!-- 0&#45;&gt;1 -->
<g id="edge1" class="edge">
<title>0&#45;&gt;1</title>
<path fill="none" stroke="black" d="M71.8,-215.7C71.8,-207.98 71.8,-198.71 71.8,-190.11"/>
<polygon fill="black" stroke="black" points="75.3,-190.1 71.8,-180.1 68.3,-190.1 75.3,-190.1"/>
</g>
<!-- 2 -->
<g id="node3" class="node">
<title>2</title>
<ellipse fill="none" stroke="black" cx="33.8" cy="-90" rx="27" ry="18"/>
<text text-anchor="middle" x="33.8" y="-86.3" font-family="Times,serif" font-size="14.00">abs</text>
</g>
<!-- 1&#45;&gt;2 -->
<g id="edge2" class="edge">
<title>1&#45;&gt;2</title>
<path fill="none" stroke="black" d="M62.98,-144.76C58.38,-136.28 52.64,-125.71 47.48,-116.2"/>
<polygon fill="black" stroke="black" points="50.41,-114.27 42.56,-107.15 44.26,-117.61 50.41,-114.27"/>
</g>
<!-- 4 -->
<g id="node4" class="node">
<title>4</title>
<ellipse fill="none" stroke="black" cx="109.8" cy="-90" rx="30.59" ry="18"/>
<text text-anchor="middle" x="109.8" y="-86.3" font-family="Times,serif" font-size="14.00">3.302</text>
</g>
<!-- 1&#45;&gt;4 -->
<g id="edge3" class="edge">
<title>1&#45;&gt;4</title>
<path fill="none" stroke="black" d="M80.61,-144.76C85.15,-136.4 90.79,-126.02 95.9,-116.61"/>
<polygon fill="black" stroke="black" points="99.07,-118.09 100.77,-107.63 92.92,-114.75 99.07,-118.09"/>
</g>
<!-- 3 -->
<g id="node5" class="node">
<title>3</title>
<ellipse fill="none" stroke="black" cx="33.8" cy="-18" rx="33.6" ry="18"/>
<text text-anchor="middle" x="33.8" y="-14.3" font-family="Times,serif" font-size="14.00">&#45;3.821</text>
</g>
<!-- 2&#45;&gt;3 -->
<g id="edge4" class="edge">
<title>2&#45;&gt;3</title>
<path fill="none" stroke="black" d="M33.8,-71.7C33.8,-63.98 33.8,-54.71 33.8,-46.11"/>
<polygon fill="black" stroke="black" points="37.3,-46.1 33.8,-36.1 30.3,-46.1 37.3,-46.1"/>
</g>
</g>
</svg>
