<?xml version="1.0" encoding="UTF-8" standalone="no"?>
<!DOCTYPE svg PUBLIC "-//W3C//DTD SVG 1.1//EN"
 "http://www.w3.org/Graphics/SVG/1.1/DTD/svg11.dtd">
<!-- Generated by graphviz version 2.43.0 (0)
 -->
<!-- Title: %3 Pages: 1 -->
<svg width="187pt" height="260pt"
 viewBox="0.00 0.00 186.80 260.00" xmlns="http://www.w3.org/2000/svg" xmlns:xlink="http://www.w3.org/1999/xlink">
<g id="graph0" class="graph" transform="scale(1 1) rotate(0) translate(4 256)">
<title>%3</title>
<polygon fill="white" stroke="transparent" points="-4,4 -4,-256 182.8,-256 182.8,4 -4,4"/>
<!-- 0 -->
<g id="node1" class="node">
<title>0</title>
<ellipse fill="none" stroke="black" cx="72.8" cy="-234" rx="27" ry="18"/>
<text text-anchor="middle" x="72.8" y="-230.3" font-family="Times,serif" font-size="14.00">cos</text>
</g>
<!-- 1 -->
<g id="node2" class="node">
<title>1</title>
<ellipse fill="none" stroke="black" cx="72.8" cy="-162" rx="27" ry="18"/>
<text text-anchor="middle" x="72.8" y="-158.3" font-family="Times,serif" font-size="14.00">&#45;</text>
</g>
<!-- 0&#45;&gt;1 -->
<g id="edge1" class="edge">
<title>0&#45;&gt;1</title>
<path fill="none" stroke="black" d="M72.8,-215.7C72.8,-207.98 72.8,-198.71 72.8,-190.11"/>
<polygon fill="black" stroke="black" points="76.3,-190.1 72.8,-180.1 69.3,-190.1 76.3,-190.1"/>
</g>
<!-- 2 -->
<g id="node3" class="node">
<title>2</title>
<ellipse fill="none" stroke="black" cx="33.8" cy="-90" rx="33.6" ry="18"/>
<text text-anchor="middle" x="33.8" y="-86.3" font-family="Times,serif" font-size="14.00">&#45;6.781</text>
</g>
<!-- 1&#45;&gt;2 -->
<g id="edge2" class="edge">
<title>1&#45;&gt;2</title>
<path fill="none" stroke="black" d="M63.75,-144.76C59.09,-136.4 53.31,-126.02 48.06,-116.61"/>
<polygon fill="black" stroke="black" points="50.99,-114.67 43.06,-107.63 44.87,-118.07 50.99,-114.67"/>
</g>
<!-- 3 -->
<g id="node4" class="node">
<title>3</title>
<ellipse fill="none" stroke="black" cx="112.8" cy="-90" rx="27" ry="18"/>
<text text-anchor="middle" x="112.8" y="-86.3" font-family="Times,serif" font-size="14.00">/</text>
</g>
<!-- 1&#45;&gt;3 -->
<g id="edge3" class="edge">
<title>1&#45;&gt;3</title>
<path fill="none" stroke="black" d="M82.07,-144.76C86.97,-136.19 93.09,-125.49 98.57,-115.9"/>
<polygon fill="black" stroke="black" points="101.65,-117.57 103.57,-107.15 95.57,-114.09 101.65,-117.57"/>
</g>
<!-- 4 -->
<g id="node5" class="node">
<title>4</title>
<ellipse fill="none" stroke="black" cx="72.8" cy="-18" rx="33.6" ry="18"/>
<text text-anchor="middle" x="72.8" y="-14.3" font-family="Times,serif" font-size="14.00">&#45;6.834</text>
</g>
<!-- 3&#45;&gt;4 -->
<g id="edge4" class="edge">
<title>3&#45;&gt;4</title>
<path fill="none" stroke="black" d="M103.52,-72.76C98.74,-64.4 92.81,-54.02 87.43,-44.61"/>
<polygon fill="black" stroke="black" points="90.3,-42.58 82.3,-35.63 84.22,-46.05 90.3,-42.58"/>
</g>
<!-- 5 -->
<g id="node6" class="node">
<title>5</title>
<ellipse fill="none" stroke="black" cx="151.8" cy="-18" rx="27" ry="18"/>
<text text-anchor="middle" x="151.8" y="-14.3" font-family="Times,serif" font-size="14.00">x</text>
</g>
<!-- 3&#45;&gt;5 -->
<g id="edge5" class="edge">
<title>3&#45;&gt;5</title>
<path fill="none" stroke="black" d="M121.84,-72.76C126.62,-64.19 132.58,-53.49 137.92,-43.9"/>
<polygon fill="black" stroke="black" points="140.99,-45.59 142.8,-35.15 134.88,-42.18 140.99,-45.59"/>
</g>
</g>
</svg>
