<?xml version="1.0" encoding="UTF-8" standalone="no"?>
<!DOCTYPE svg PUBLIC "-//W3C//DTD SVG 1.1//EN"
 "http://www.w3.org/Graphics/SVG/1.1/DTD/svg11.dtd">
<!-- Generated by graphviz version 10.0.1 (20240210.2158)
 -->
<!-- Pages: 1 -->
<svg width="218pt" height="260pt"
 viewBox="0.00 0.00 218.10 260.00" xmlns="http://www.w3.org/2000/svg" xmlns:xlink="http://www.w3.org/1999/xlink">
<g id="graph0" class="graph" transform="scale(1 1) rotate(0) translate(4 256)">
<polygon fill="white" stroke="none" points="-4,4 -4,-256 214.1,-256 214.1,4 -4,4"/>
<!-- 0 -->
<g id="node1" class="node">
<title>0</title>
<ellipse fill="none" stroke="black" cx="147.1" cy="-234" rx="27" ry="18"/>
<text text-anchor="middle" x="147.1" y="-228.57" font-family="Times New Roman,serif" font-size="14.00">*</text>
</g>
<!-- 1 -->
<g id="node2" class="node">
<title>1</title>
<ellipse fill="none" stroke="black" cx="111.1" cy="-162" rx="27" ry="18"/>
<text text-anchor="middle" x="111.1" y="-156.57" font-family="Times New Roman,serif" font-size="14.00">+</text>
</g>
<!-- 0&#45;&gt;1 -->
<g id="edge1" class="edge">
<title>0&#45;&gt;1</title>
<path fill="none" stroke="black" d="M138.75,-216.76C134.53,-208.55 129.3,-198.37 124.52,-189.09"/>
<polygon fill="black" stroke="black" points="127.79,-187.79 120.1,-180.49 121.56,-190.99 127.79,-187.79"/>
</g>
<!-- 6 -->
<g id="node3" class="node">
<title>6</title>
<ellipse fill="none" stroke="black" cx="183.1" cy="-162" rx="27" ry="18"/>
<text text-anchor="middle" x="183.1" y="-156.57" font-family="Times New Roman,serif" font-size="14.00">x</text>
</g>
<!-- 0&#45;&gt;6 -->
<g id="edge2" class="edge">
<title>0&#45;&gt;6</title>
<path fill="none" stroke="black" d="M155.45,-216.76C159.68,-208.55 164.91,-198.37 169.68,-189.09"/>
<polygon fill="black" stroke="black" points="172.65,-190.99 174.11,-180.49 166.42,-187.79 172.65,-190.99"/>
</g>
<!-- 2 -->
<g id="node4" class="node">
<title>2</title>
<ellipse fill="none" stroke="black" cx="72.1" cy="-90" rx="27" ry="18"/>
<text text-anchor="middle" x="72.1" y="-84.58" font-family="Times New Roman,serif" font-size="14.00">&#45;</text>
</g>
<!-- 1&#45;&gt;2 -->
<g id="edge3" class="edge">
<title>1&#45;&gt;2</title>
<path fill="none" stroke="black" d="M102.06,-144.76C97.48,-136.55 91.81,-126.37 86.64,-117.09"/>
<polygon fill="black" stroke="black" points="89.76,-115.5 81.84,-108.47 83.65,-118.91 89.76,-115.5"/>
</g>
<!-- 5 -->
<g id="node5" class="node">
<title>5</title>
<ellipse fill="none" stroke="black" cx="151.1" cy="-90" rx="34.1" ry="18"/>
<text text-anchor="middle" x="151.1" y="-84.58" font-family="Times New Roman,serif" font-size="14.00">&#45;7.112</text>
</g>
<!-- 1&#45;&gt;5 -->
<g id="edge4" class="edge">
<title>1&#45;&gt;5</title>
<path fill="none" stroke="black" d="M120.38,-144.76C125.01,-136.67 130.73,-126.66 135.97,-117.49"/>
<polygon fill="black" stroke="black" points="138.93,-119.37 140.85,-108.95 132.85,-115.89 138.93,-119.37"/>
</g>
<!-- 3 -->
<g id="node6" class="node">
<title>3</title>
<ellipse fill="none" stroke="black" cx="31.1" cy="-18" rx="31.1" ry="18"/>
<text text-anchor="middle" x="31.1" y="-12.57" font-family="Times New Roman,serif" font-size="14.00">6.288</text>
</g>
<!-- 2&#45;&gt;3 -->
<g id="edge5" class="edge">
<title>2&#45;&gt;3</title>
<path fill="none" stroke="black" d="M62.59,-72.76C57.73,-64.46 51.69,-54.15 46.21,-44.79"/>
<polygon fill="black" stroke="black" points="49.4,-43.31 41.33,-36.45 43.36,-46.85 49.4,-43.31"/>
</g>
<!-- 4 -->
<g id="node7" class="node">
<title>4</title>
<ellipse fill="none" stroke="black" cx="114.1" cy="-18" rx="34.1" ry="18"/>
<text text-anchor="middle" x="114.1" y="-12.57" font-family="Times New Roman,serif" font-size="14.00">&#45;2.009</text>
</g>
<!-- 2&#45;&gt;4 -->
<g id="edge6" class="edge">
<title>2&#45;&gt;4</title>
<path fill="none" stroke="black" d="M81.85,-72.76C86.7,-64.67 92.71,-54.66 98.21,-45.49"/>
<polygon fill="black" stroke="black" points="101.2,-47.31 103.35,-36.93 95.2,-43.71 101.2,-47.31"/>
</g>
</g>
</svg>
