<?xml version="1.0" encoding="UTF-8" standalone="no"?>
<!DOCTYPE svg PUBLIC "-//W3C//DTD SVG 1.1//EN"
 "http://www.w3.org/Graphics/SVG/1.1/DTD/svg11.dtd">
<!-- Generated by graphviz version 10.0.1 (20240210.2158)
 -->
<!-- Pages: 1 -->
<svg width="148pt" height="260pt"
 viewBox="0.00 0.00 147.71 260.00" xmlns="http://www.w3.org/2000/svg" xmlns:xlink="http://www.w3.org/1999/xlink">
<g id="graph0" class="graph" transform="scale(1 1) rotate(0) translate(4 256)">
<polygon fill="white" stroke="none" points="-4,4 -4,-256 143.71,-256 143.71,4 -4,4"/>
<!-- 0 -->
<g id="node1" class="node">
<title>0</title>
<ellipse fill="none" stroke="black" cx="70.1" cy="-234" rx="27" ry="18"/>
<text text-anchor="middle" x="70.1" y="-228.57" font-family="Times New Roman,serif" font-size="14.00">tanh</text>
</g>
<!-- 1 -->
<g id="node2" class="node">
<title>1</title>
<ellipse fill="none" stroke="black" cx="70.1" cy="-162" rx="27" ry="18"/>
<text text-anchor="middle" x="70.1" y="-156.57" font-family="Times New Roman,serif" font-size="14.00">*</text>
</g>
<!-- 0&#45;&gt;1 -->
<g id="edge1" class="edge">
<title>0&#45;&gt;1</title>
<path fill="none" stroke="black" d="M70.1,-215.7C70.1,-208.41 70.1,-199.73 70.1,-191.54"/>
<polygon fill="black" stroke="black" points="73.6,-191.62 70.1,-181.62 66.6,-191.62 73.6,-191.62"/>
</g>
<!-- 2 -->
<g id="node3" class="node">
<title>2</title>
<ellipse fill="none" stroke="black" cx="31.1" cy="-90" rx="31.1" ry="18"/>
<text text-anchor="middle" x="31.1" y="-84.58" font-family="Times New Roman,serif" font-size="14.00">9.639</text>
</g>
<!-- 1&#45;&gt;2 -->
<g id="edge2" class="edge">
<title>1&#45;&gt;2</title>
<path fill="none" stroke="black" d="M61.06,-144.76C56.55,-136.67 50.97,-126.66 45.86,-117.49"/>
<polygon fill="black" stroke="black" points="49.03,-115.99 41.11,-108.96 42.92,-119.39 49.03,-115.99"/>
</g>
<!-- 3 -->
<g id="node4" class="node">
<title>3</title>
<ellipse fill="none" stroke="black" cx="110.1" cy="-90" rx="29.61" ry="18"/>
<text text-anchor="middle" x="110.1" y="-84.58" font-family="Times New Roman,serif" font-size="14.00">quart</text>
</g>
<!-- 1&#45;&gt;3 -->
<g id="edge3" class="edge">
<title>1&#45;&gt;3</title>
<path fill="none" stroke="black" d="M79.38,-144.76C84.08,-136.55 89.89,-126.37 95.19,-117.09"/>
<polygon fill="black" stroke="black" points="98.2,-118.88 100.13,-108.46 92.13,-115.41 98.2,-118.88"/>
</g>
<!-- 4 -->
<g id="node5" class="node">
<title>4</title>
<ellipse fill="none" stroke="black" cx="110.1" cy="-18" rx="27" ry="18"/>
<text text-anchor="middle" x="110.1" y="-12.57" font-family="Times New Roman,serif" font-size="14.00">x</text>
</g>
<!-- 3&#45;&gt;4 -->
<g id="edge4" class="edge">
<title>3&#45;&gt;4</title>
<path fill="none" stroke="black" d="M110.1,-71.7C110.1,-64.41 110.1,-55.73 110.1,-47.54"/>
<polygon fill="black" stroke="black" points="113.6,-47.62 110.1,-37.62 106.6,-47.62 113.6,-47.62"/>
</g>
</g>
</svg>
