<?xml version="1.0" encoding="UTF-8" standalone="no"?>
<!DOCTYPE svg PUBLIC "-//W3C//DTD SVG 1.1//EN"
 "http://www.w3.org/Graphics/SVG/1.1/DTD/svg11.dtd">
<!-- Generated by graphviz version 10.0.1 (20240210.2158)
 -->
<!-- Pages: 1 -->
<svg width="150pt" height="260pt"
 viewBox="0.00 0.00 150.10 260.00" xmlns="http://www.w3.org/2000/svg" xmlns:xlink="http://www.w3.org/1999/xlink">
<g id="graph0" class="graph" transform="scale(1 1) rotate(0) translate(4 256)">
<polygon fill="white" stroke="none" points="-4,4 -4,-256 146.1,-256 146.1,4 -4,4"/>
<!-- 0 -->
<g id="node1" class="node">
<title>0</title>
<ellipse fill="none" stroke="black" cx="67" cy="-234" rx="27" ry="18"/>
<text text-anchor="middle" x="67" y="-228.57" font-family="Times New Roman,serif" font-size="14.00">tanh</text>
</g>
<!-- 1 -->
<g id="node2" class="node">
<title>1</title>
<ellipse fill="none" stroke="black" cx="67" cy="-162" rx="27" ry="18"/>
<text text-anchor="middle" x="67" y="-156.57" font-family="Times New Roman,serif" font-size="14.00">+</text>
</g>
<!-- 0&#45;&gt;1 -->
<g id="edge1" class="edge">
<title>0&#45;&gt;1</title>
<path fill="none" stroke="black" d="M67,-215.7C67,-208.41 67,-199.73 67,-191.54"/>
<polygon fill="black" stroke="black" points="70.5,-191.62 67,-181.62 63.5,-191.62 70.5,-191.62"/>
</g>
<!-- 2 -->
<g id="node3" class="node">
<title>2</title>
<ellipse fill="none" stroke="black" cx="27" cy="-90" rx="27" ry="18"/>
<text text-anchor="middle" x="27" y="-84.58" font-family="Times New Roman,serif" font-size="14.00">x</text>
</g>
<!-- 1&#45;&gt;2 -->
<g id="edge2" class="edge">
<title>1&#45;&gt;2</title>
<path fill="none" stroke="black" d="M57.72,-144.76C53.03,-136.55 47.21,-126.37 41.91,-117.09"/>
<polygon fill="black" stroke="black" points="44.98,-115.41 36.98,-108.46 38.9,-118.88 44.98,-115.41"/>
</g>
<!-- 3 -->
<g id="node4" class="node">
<title>3</title>
<ellipse fill="none" stroke="black" cx="107" cy="-90" rx="35.1" ry="18"/>
<text text-anchor="middle" x="107" y="-84.58" font-family="Times New Roman,serif" font-size="14.00">square</text>
</g>
<!-- 1&#45;&gt;3 -->
<g id="edge3" class="edge">
<title>1&#45;&gt;3</title>
<path fill="none" stroke="black" d="M76.28,-144.76C80.91,-136.67 86.62,-126.66 91.86,-117.49"/>
<polygon fill="black" stroke="black" points="94.82,-119.37 96.74,-108.95 88.74,-115.89 94.82,-119.37"/>
</g>
<!-- 4 -->
<g id="node5" class="node">
<title>4</title>
<ellipse fill="none" stroke="black" cx="107" cy="-18" rx="27" ry="18"/>
<text text-anchor="middle" x="107" y="-12.57" font-family="Times New Roman,serif" font-size="14.00">x</text>
</g>
<!-- 3&#45;&gt;4 -->
<g id="edge4" class="edge">
<title>3&#45;&gt;4</title>
<path fill="none" stroke="black" d="M107,-71.7C107,-64.41 107,-55.73 107,-47.54"/>
<polygon fill="black" stroke="black" points="110.5,-47.62 107,-37.62 103.5,-47.62 110.5,-47.62"/>
</g>
</g>
</svg>
