<?xml version="1.0" encoding="UTF-8" standalone="no"?>
<!DOCTYPE svg PUBLIC "-//W3C//DTD SVG 1.1//EN"
 "http://www.w3.org/Graphics/SVG/1.1/DTD/svg11.dtd">
<!-- Generated by graphviz version 10.0.1 (20240210.2158)
 -->
<!-- Pages: 1 -->
<svg width="138pt" height="260pt"
 viewBox="0.00 0.00 137.61 260.00" xmlns="http://www.w3.org/2000/svg" xmlns:xlink="http://www.w3.org/1999/xlink">
<g id="graph0" class="graph" transform="scale(1 1) rotate(0) translate(4 256)">
<polygon fill="white" stroke="none" points="-4,4 -4,-256 133.61,-256 133.61,4 -4,4"/>
<!-- 0 -->
<g id="node1" class="node">
<title>0</title>
<ellipse fill="none" stroke="black" cx="64" cy="-234" rx="27" ry="18"/>
<text text-anchor="middle" x="64" y="-228.57" font-family="Times New Roman,serif" font-size="14.00">tanh</text>
</g>
<!-- 1 -->
<g id="node2" class="node">
<title>1</title>
<ellipse fill="none" stroke="black" cx="64" cy="-162" rx="27" ry="18"/>
<text text-anchor="middle" x="64" y="-156.57" font-family="Times New Roman,serif" font-size="14.00">*</text>
</g>
<!-- 0&#45;&gt;1 -->
<g id="edge1" class="edge">
<title>0&#45;&gt;1</title>
<path fill="none" stroke="black" d="M64,-215.7C64,-208.41 64,-199.73 64,-191.54"/>
<polygon fill="black" stroke="black" points="67.5,-191.62 64,-181.62 60.5,-191.62 67.5,-191.62"/>
</g>
<!-- 2 -->
<g id="node3" class="node">
<title>2</title>
<ellipse fill="none" stroke="black" cx="27" cy="-90" rx="27" ry="18"/>
<text text-anchor="middle" x="27" y="-84.58" font-family="Times New Roman,serif" font-size="14.00">9.24</text>
</g>
<!-- 1&#45;&gt;2 -->
<g id="edge2" class="edge">
<title>1&#45;&gt;2</title>
<path fill="none" stroke="black" d="M55.42,-144.76C51.08,-136.55 45.7,-126.37 40.79,-117.09"/>
<polygon fill="black" stroke="black" points="44.01,-115.69 36.24,-108.49 37.82,-118.96 44.01,-115.69"/>
</g>
<!-- 3 -->
<g id="node4" class="node">
<title>3</title>
<ellipse fill="none" stroke="black" cx="101" cy="-90" rx="28.61" ry="18"/>
<text text-anchor="middle" x="101" y="-84.58" font-family="Times New Roman,serif" font-size="14.00">cube</text>
</g>
<!-- 1&#45;&gt;3 -->
<g id="edge3" class="edge">
<title>1&#45;&gt;3</title>
<path fill="none" stroke="black" d="M72.58,-144.76C76.82,-136.75 82.04,-126.88 86.84,-117.79"/>
<polygon fill="black" stroke="black" points="89.92,-119.45 91.5,-108.97 83.73,-116.18 89.92,-119.45"/>
</g>
<!-- 4 -->
<g id="node5" class="node">
<title>4</title>
<ellipse fill="none" stroke="black" cx="101" cy="-18" rx="27" ry="18"/>
<text text-anchor="middle" x="101" y="-12.57" font-family="Times New Roman,serif" font-size="14.00">x</text>
</g>
<!-- 3&#45;&gt;4 -->
<g id="edge4" class="edge">
<title>3&#45;&gt;4</title>
<path fill="none" stroke="black" d="M101,-71.7C101,-64.41 101,-55.73 101,-47.54"/>
<polygon fill="black" stroke="black" points="104.5,-47.62 101,-37.62 97.5,-47.62 104.5,-47.62"/>
</g>
</g>
</svg>
