<?xml version="1.0" encoding="UTF-8" standalone="no"?>
<!DOCTYPE svg PUBLIC "-//W3C//DTD SVG 1.1//EN"
 "http://www.w3.org/Graphics/SVG/1.1/DTD/svg11.dtd">
<!-- Generated by graphviz version 2.50.0 (0)
 -->
<!-- Pages: 1 -->
<svg width="286pt" height="188pt"
 viewBox="0.00 0.00 285.55 188.00" xmlns="http://www.w3.org/2000/svg" xmlns:xlink="http://www.w3.org/1999/xlink">
<g id="graph0" class="graph" transform="scale(1 1) rotate(0) translate(4 184)">
<polygon fill="white" stroke="transparent" points="-4,4 -4,-184 281.55,-184 281.55,4 -4,4"/>
<!-- 0 -->
<g id="node1" class="node">
<title>0</title>
<ellipse fill="none" stroke="black" cx="142.55" cy="-162" rx="27" ry="18"/>
<text text-anchor="middle" x="142.55" y="-158.3" font-family="Times New Roman,serif" font-size="14.00">+</text>
</g>
<!-- 1 -->
<g id="node2" class="node">
<title>1</title>
<ellipse fill="none" stroke="black" cx="106.55" cy="-90" rx="27" ry="18"/>
<text text-anchor="middle" x="106.55" y="-86.3" font-family="Times New Roman,serif" font-size="14.00">*</text>
</g>
<!-- 0&#45;&gt;1 -->
<g id="edge1" class="edge">
<title>0&#45;&gt;1</title>
<path fill="none" stroke="black" d="M134.2,-144.76C129.84,-136.28 124.4,-125.71 119.51,-116.2"/>
<polygon fill="black" stroke="black" points="122.54,-114.44 114.85,-107.15 116.31,-117.64 122.54,-114.44"/>
</g>
<!-- 4 -->
<g id="node3" class="node">
<title>4</title>
<ellipse fill="none" stroke="black" cx="178.55" cy="-90" rx="27" ry="18"/>
<text text-anchor="middle" x="178.55" y="-86.3" font-family="Times New Roman,serif" font-size="14.00">*</text>
</g>
<!-- 0&#45;&gt;4 -->
<g id="edge2" class="edge">
<title>0&#45;&gt;4</title>
<path fill="none" stroke="black" d="M150.9,-144.76C155.26,-136.28 160.69,-125.71 165.59,-116.2"/>
<polygon fill="black" stroke="black" points="168.78,-117.64 170.24,-107.15 162.56,-114.44 168.78,-117.64"/>
</g>
<!-- 2 -->
<g id="node4" class="node">
<title>2</title>
<ellipse fill="none" stroke="black" cx="30.55" cy="-18" rx="30.59" ry="18"/>
<text text-anchor="middle" x="30.55" y="-14.3" font-family="Times New Roman,serif" font-size="14.00">0.213</text>
</g>
<!-- 1&#45;&gt;2 -->
<g id="edge3" class="edge">
<title>1&#45;&gt;2</title>
<path fill="none" stroke="black" d="M91.17,-74.83C80.49,-65 66.08,-51.72 53.98,-40.58"/>
<polygon fill="black" stroke="black" points="56.15,-37.83 46.43,-33.63 51.41,-42.98 56.15,-37.83"/>
</g>
<!-- 3 -->
<g id="node5" class="node">
<title>3</title>
<ellipse fill="none" stroke="black" cx="106.55" cy="-18" rx="27" ry="18"/>
<text text-anchor="middle" x="106.55" y="-14.3" font-family="Times New Roman,serif" font-size="14.00">x</text>
</g>
<!-- 1&#45;&gt;3 -->
<g id="edge4" class="edge">
<title>1&#45;&gt;3</title>
<path fill="none" stroke="black" d="M106.55,-71.7C106.55,-63.98 106.55,-54.71 106.55,-46.11"/>
<polygon fill="black" stroke="black" points="110.05,-46.1 106.55,-36.1 103.05,-46.1 110.05,-46.1"/>
</g>
<!-- 5 -->
<g id="node6" class="node">
<title>5</title>
<ellipse fill="none" stroke="black" cx="178.55" cy="-18" rx="27" ry="18"/>
<text text-anchor="middle" x="178.55" y="-14.3" font-family="Times New Roman,serif" font-size="14.00">0.84</text>
</g>
<!-- 4&#45;&gt;5 -->
<g id="edge5" class="edge">
<title>4&#45;&gt;5</title>
<path fill="none" stroke="black" d="M178.55,-71.7C178.55,-63.98 178.55,-54.71 178.55,-46.11"/>
<polygon fill="black" stroke="black" points="182.05,-46.1 178.55,-36.1 175.05,-46.1 182.05,-46.1"/>
</g>
<!-- 6 -->
<g id="node7" class="node">
<title>6</title>
<ellipse fill="none" stroke="black" cx="250.55" cy="-18" rx="27" ry="18"/>
<text text-anchor="middle" x="250.55" y="-14.3" font-family="Times New Roman,serif" font-size="14.00">x</text>
</g>
<!-- 4&#45;&gt;6 -->
<g id="edge6" class="edge">
<title>4&#45;&gt;6</title>
<path fill="none" stroke="black" d="M193.12,-74.83C203.3,-64.94 217.07,-51.55 228.58,-40.36"/>
<polygon fill="black" stroke="black" points="231.02,-42.87 235.75,-33.38 226.14,-37.85 231.02,-42.87"/>
</g>
</g>
</svg>
