<?xml version="1.0" encoding="UTF-8" standalone="no"?>
<!DOCTYPE svg PUBLIC "-//W3C//DTD SVG 1.1//EN"
 "http://www.w3.org/Graphics/SVG/1.1/DTD/svg11.dtd">
<!-- Generated by graphviz version 2.50.0 (0)
 -->
<!-- Pages: 1 -->
<svg width="300pt" height="188pt"
 viewBox="0.00 0.00 299.55 188.00" xmlns="http://www.w3.org/2000/svg" xmlns:xlink="http://www.w3.org/1999/xlink">
<g id="graph0" class="graph" transform="scale(1 1) rotate(0) translate(4 184)">
<polygon fill="white" stroke="transparent" points="-4,4 -4,-184 295.55,-184 295.55,4 -4,4"/>
<!-- 0 -->
<g id="node1" class="node">
<title>0</title>
<ellipse fill="none" stroke="black" cx="148.55" cy="-162" rx="27" ry="18"/>
<text text-anchor="middle" x="148.55" y="-158.3" font-family="Times New Roman,serif" font-size="14.00">+</text>
</g>
<!-- 1 -->
<g id="node2" class="node">
<title>1</title>
<ellipse fill="none" stroke="black" cx="109.55" cy="-90" rx="27" ry="18"/>
<text text-anchor="middle" x="109.55" y="-86.3" font-family="Times New Roman,serif" font-size="14.00">&#45;</text>
</g>
<!-- 0&#45;&gt;1 -->
<g id="edge1" class="edge">
<title>0&#45;&gt;1</title>
<path fill="none" stroke="black" d="M139.5,-144.76C134.73,-136.19 128.77,-125.49 123.42,-115.9"/>
<polygon fill="black" stroke="black" points="126.47,-114.18 118.54,-107.15 120.35,-117.59 126.47,-114.18"/>
</g>
<!-- 4 -->
<g id="node3" class="node">
<title>4</title>
<ellipse fill="none" stroke="black" cx="188.55" cy="-90" rx="27" ry="18"/>
<text text-anchor="middle" x="188.55" y="-86.3" font-family="Times New Roman,serif" font-size="14.00">*</text>
</g>
<!-- 0&#45;&gt;4 -->
<g id="edge2" class="edge">
<title>0&#45;&gt;4</title>
<path fill="none" stroke="black" d="M157.82,-144.76C162.72,-136.19 168.84,-125.49 174.32,-115.9"/>
<polygon fill="black" stroke="black" points="177.4,-117.57 179.32,-107.15 171.32,-114.09 177.4,-117.57"/>
</g>
<!-- 2 -->
<g id="node4" class="node">
<title>2</title>
<ellipse fill="none" stroke="black" cx="30.55" cy="-18" rx="30.59" ry="18"/>
<text text-anchor="middle" x="30.55" y="-14.3" font-family="Times New Roman,serif" font-size="14.00">0.259</text>
</g>
<!-- 1&#45;&gt;2 -->
<g id="edge3" class="edge">
<title>1&#45;&gt;2</title>
<path fill="none" stroke="black" d="M93.94,-75.17C82.69,-65.21 67.31,-51.57 54.51,-40.23"/>
<polygon fill="black" stroke="black" points="56.74,-37.54 46.94,-33.52 52.1,-42.78 56.74,-37.54"/>
</g>
<!-- 3 -->
<g id="node5" class="node">
<title>3</title>
<ellipse fill="none" stroke="black" cx="109.55" cy="-18" rx="30.59" ry="18"/>
<text text-anchor="middle" x="109.55" y="-14.3" font-family="Times New Roman,serif" font-size="14.00">0.463</text>
</g>
<!-- 1&#45;&gt;3 -->
<g id="edge4" class="edge">
<title>1&#45;&gt;3</title>
<path fill="none" stroke="black" d="M109.55,-71.7C109.55,-63.98 109.55,-54.71 109.55,-46.11"/>
<polygon fill="black" stroke="black" points="113.05,-46.1 109.55,-36.1 106.05,-46.1 113.05,-46.1"/>
</g>
<!-- 5 -->
<g id="node6" class="node">
<title>5</title>
<ellipse fill="none" stroke="black" cx="188.55" cy="-18" rx="30.59" ry="18"/>
<text text-anchor="middle" x="188.55" y="-14.3" font-family="Times New Roman,serif" font-size="14.00">0.829</text>
</g>
<!-- 4&#45;&gt;5 -->
<g id="edge5" class="edge">
<title>4&#45;&gt;5</title>
<path fill="none" stroke="black" d="M188.55,-71.7C188.55,-63.98 188.55,-54.71 188.55,-46.11"/>
<polygon fill="black" stroke="black" points="192.05,-46.1 188.55,-36.1 185.05,-46.1 192.05,-46.1"/>
</g>
<!-- 6 -->
<g id="node7" class="node">
<title>6</title>
<ellipse fill="none" stroke="black" cx="264.55" cy="-18" rx="27" ry="18"/>
<text text-anchor="middle" x="264.55" y="-14.3" font-family="Times New Roman,serif" font-size="14.00">x</text>
</g>
<!-- 4&#45;&gt;6 -->
<g id="edge6" class="edge">
<title>4&#45;&gt;6</title>
<path fill="none" stroke="black" d="M203.93,-74.83C214.74,-64.87 229.4,-51.37 241.6,-40.14"/>
<polygon fill="black" stroke="black" points="244.21,-42.49 249.19,-33.14 239.46,-37.34 244.21,-42.49"/>
</g>
</g>
</svg>
