<svg xmlns="http://www.w3.org/2000/svg" xmlns:dc="http://purl.org/dc/elements/1.1/" xmlns:ns2="http://creativecommons.org/ns#" xmlns:ns4="http://www.w3.org/1999/xlink" xmlns:rdf="http://www.w3.org/1999/02/22-rdf-syntax-ns#" width="1008pt" height="432pt" viewBox="0 0 1008 432" version="1.1">
 <metadata>
  <rdf:RDF>
   <ns2:Work>
    <dc:type rdf:resource="http://purl.org/dc/dcmitype/StillImage" />
    <dc:date>2024-03-29T17:09:02.282990</dc:date>
    <dc:format>image/svg+xml</dc:format>
    <dc:creator>
     <ns2:Agent>
      <dc:title>Matplotlib v3.8.0, https://matplotlib.org/</dc:title>
     </ns2:Agent>
    </dc:creator>
   </ns2:Work>
  </rdf:RDF>
 </metadata>
 <defs>
  <style type="text/css">*{stroke-linejoin: round; stroke-linecap: butt}</style>
 </defs>
 <g id="figure_1">
  <g id="patch_1">
   <path d="M 0 432  L 1008 432  L 1008 0  L 0 0  z " style="fill: #ffffff" />
  </g>
  <g id="axes_1">
   <g id="patch_2">
    <path d="M 126 384.48  L 481.090909 384.48  L 481.090909 51.84  L 126 51.84  z " style="fill: #eaeaf2" />
   </g>
   <g id="matplotlib.axis_1">
    <g id="xtick_1">
     <g id="line2d_1">
      <path d="M 142.140496 384.48  L 142.140496 51.84  " clip-path="url(#pb6f931544f)" style="fill: none; stroke: #ffffff; stroke-linecap: round" />
     </g>
     <g id="text_1">
      
      <g style="fill: #262626" transform="translate(139.08198 401.853594) scale(0.11 -0.11)">
       <defs>
        <path id="ArialMT-30" d="M 266 2259  Q 266 3072 433 3567  Q 600 4063 929 4331  Q 1259 4600 1759 4600  Q 2128 4600 2406 4451  Q 2684 4303 2865 4023  Q 3047 3744 3150 3342  Q 3253 2941 3253 2259  Q 3253 1453 3087 958  Q 2922 463 2592 192  Q 2263 -78 1759 -78  Q 1097 -78 719 397  Q 266 969 266 2259  z M 844 2259  Q 844 1131 1108 757  Q 1372 384 1759 384  Q 2147 384 2411 759  Q 2675 1134 2675 2259  Q 2675 3391 2411 3762  Q 2147 4134 1753 4134  Q 1366 4134 1134 3806  Q 844 3388 844 2259  z " transform="scale(0.015625)" />
       </defs>
       <use ns4:href="#ArialMT-30" />
      </g>
     </g>
    </g>
    <g id="xtick_2">
     <g id="line2d_2">
      <path d="M 185.181818 384.48  L 185.181818 51.84  " clip-path="url(#pb6f931544f)" style="fill: none; stroke: #ffffff; stroke-linecap: round" />
     </g>
     <g id="text_2">
      
      <g style="fill: #262626" transform="translate(182.123303 401.853594) scale(0.11 -0.11)">
       <defs>
        <path id="ArialMT-32" d="M 3222 541  L 3222 0  L 194 0  Q 188 203 259 391  Q 375 700 629 1000  Q 884 1300 1366 1694  Q 2113 2306 2375 2664  Q 2638 3022 2638 3341  Q 2638 3675 2398 3904  Q 2159 4134 1775 4134  Q 1369 4134 1125 3890  Q 881 3647 878 3216  L 300 3275  Q 359 3922 746 4261  Q 1134 4600 1788 4600  Q 2447 4600 2831 4234  Q 3216 3869 3216 3328  Q 3216 3053 3103 2787  Q 2991 2522 2730 2228  Q 2469 1934 1863 1422  Q 1356 997 1212 845  Q 1069 694 975 541  L 3222 541  z " transform="scale(0.015625)" />
       </defs>
       <use ns4:href="#ArialMT-32" />
      </g>
     </g>
    </g>
    <g id="xtick_3">
     <g id="line2d_3">
      <path d="M 228.22314 384.48  L 228.22314 51.84  " clip-path="url(#pb6f931544f)" style="fill: none; stroke: #ffffff; stroke-linecap: round" />
     </g>
     <g id="text_3">
      
      <g style="fill: #262626" transform="translate(225.164625 401.853594) scale(0.11 -0.11)">
       <defs>
        <path id="ArialMT-34" d="M 2069 0  L 2069 1097  L 81 1097  L 81 1613  L 2172 4581  L 2631 4581  L 2631 1613  L 3250 1613  L 3250 1097  L 2631 1097  L 2631 0  L 2069 0  z M 2069 1613  L 2069 3678  L 634 1613  L 2069 1613  z " transform="scale(0.015625)" />
       </defs>
       <use ns4:href="#ArialMT-34" />
      </g>
     </g>
    </g>
    <g id="xtick_4">
     <g id="line2d_4">
      <path d="M 271.264463 384.48  L 271.264463 51.84  " clip-path="url(#pb6f931544f)" style="fill: none; stroke: #ffffff; stroke-linecap: round" />
     </g>
     <g id="text_4">
      
      <g style="fill: #262626" transform="translate(268.205947 401.853594) scale(0.11 -0.11)">
       <defs>
        <path id="ArialMT-36" d="M 3184 3459  L 2625 3416  Q 2550 3747 2413 3897  Q 2184 4138 1850 4138  Q 1581 4138 1378 3988  Q 1113 3794 959 3422  Q 806 3050 800 2363  Q 1003 2672 1297 2822  Q 1591 2972 1913 2972  Q 2475 2972 2870 2558  Q 3266 2144 3266 1488  Q 3266 1056 3080 686  Q 2894 316 2569 119  Q 2244 -78 1831 -78  Q 1128 -78 684 439  Q 241 956 241 2144  Q 241 3472 731 4075  Q 1159 4600 1884 4600  Q 2425 4600 2770 4297  Q 3116 3994 3184 3459  z M 888 1484  Q 888 1194 1011 928  Q 1134 663 1356 523  Q 1578 384 1822 384  Q 2178 384 2434 671  Q 2691 959 2691 1453  Q 2691 1928 2437 2201  Q 2184 2475 1800 2475  Q 1419 2475 1153 2201  Q 888 1928 888 1484  z " transform="scale(0.015625)" />
       </defs>
       <use ns4:href="#ArialMT-36" />
      </g>
     </g>
    </g>
    <g id="xtick_5">
     <g id="line2d_5">
      <path d="M 314.305785 384.48  L 314.305785 51.84  " clip-path="url(#pb6f931544f)" style="fill: none; stroke: #ffffff; stroke-linecap: round" />
     </g>
     <g id="text_5">
      
      <g style="fill: #262626" transform="translate(311.247269 401.853594) scale(0.11 -0.11)">
       <defs>
        <path id="ArialMT-38" d="M 1131 2484  Q 781 2613 612 2850  Q 444 3088 444 3419  Q 444 3919 803 4259  Q 1163 4600 1759 4600  Q 2359 4600 2725 4251  Q 3091 3903 3091 3403  Q 3091 3084 2923 2848  Q 2756 2613 2416 2484  Q 2838 2347 3058 2040  Q 3278 1734 3278 1309  Q 3278 722 2862 322  Q 2447 -78 1769 -78  Q 1091 -78 675 323  Q 259 725 259 1325  Q 259 1772 486 2073  Q 713 2375 1131 2484  z M 1019 3438  Q 1019 3113 1228 2906  Q 1438 2700 1772 2700  Q 2097 2700 2305 2904  Q 2513 3109 2513 3406  Q 2513 3716 2298 3927  Q 2084 4138 1766 4138  Q 1444 4138 1231 3931  Q 1019 3725 1019 3438  z M 838 1322  Q 838 1081 952 856  Q 1066 631 1291 507  Q 1516 384 1775 384  Q 2178 384 2440 643  Q 2703 903 2703 1303  Q 2703 1709 2433 1975  Q 2163 2241 1756 2241  Q 1359 2241 1098 1978  Q 838 1716 838 1322  z " transform="scale(0.015625)" />
       </defs>
       <use ns4:href="#ArialMT-38" />
      </g>
     </g>
    </g>
    <g id="xtick_6">
     <g id="line2d_6">
      <path d="M 357.347107 384.48  L 357.347107 51.84  " clip-path="url(#pb6f931544f)" style="fill: none; stroke: #ffffff; stroke-linecap: round" />
     </g>
     <g id="text_6">
      
      <g style="fill: #262626" transform="translate(351.230076 401.853594) scale(0.11 -0.11)">
       <defs>
        <path id="ArialMT-31" d="M 2384 0  L 1822 0  L 1822 3584  Q 1619 3391 1289 3197  Q 959 3003 697 2906  L 697 3450  Q 1169 3672 1522 3987  Q 1875 4303 2022 4600  L 2384 4600  L 2384 0  z " transform="scale(0.015625)" />
       </defs>
       <use ns4:href="#ArialMT-31" />
       <use ns4:href="#ArialMT-30" x="55.615234" />
      </g>
     </g>
    </g>
    <g id="xtick_7">
     <g id="line2d_7">
      <path d="M 400.38843 384.48  L 400.38843 51.84  " clip-path="url(#pb6f931544f)" style="fill: none; stroke: #ffffff; stroke-linecap: round" />
     </g>
     <g id="text_7">
      
      <g style="fill: #262626" transform="translate(394.271399 401.853594) scale(0.11 -0.11)">
       <use ns4:href="#ArialMT-31" />
       <use ns4:href="#ArialMT-32" x="55.615234" />
      </g>
     </g>
    </g>
    <g id="xtick_8">
     <g id="line2d_8">
      <path d="M 443.429752 384.48  L 443.429752 51.84  " clip-path="url(#pb6f931544f)" style="fill: none; stroke: #ffffff; stroke-linecap: round" />
     </g>
     <g id="text_8">
      
      <g style="fill: #262626" transform="translate(437.312721 401.853594) scale(0.11 -0.11)">
       <use ns4:href="#ArialMT-31" />
       <use ns4:href="#ArialMT-34" x="55.615234" />
      </g>
     </g>
    </g>
    <g id="text_9">
     
     <g style="fill: #262626" transform="translate(300.545455 416.629219) scale(0.12 -0.12)">
      <defs>
       <path id="ArialMT-78" d="M 47 0  L 1259 1725  L 138 3319  L 841 3319  L 1350 2541  Q 1494 2319 1581 2169  Q 1719 2375 1834 2534  L 2394 3319  L 3066 3319  L 1919 1756  L 3153 0  L 2463 0  L 1781 1031  L 1600 1309  L 728 0  L 47 0  z " transform="scale(0.015625)" />
      </defs>
      <use ns4:href="#ArialMT-78" />
     </g>
    </g>
   </g>
   <g id="matplotlib.axis_2">
    <g id="ytick_1">
     <g id="line2d_9">
      <path d="M 126 338.959923  L 481.090909 338.959923  " clip-path="url(#pb6f931544f)" style="fill: none; stroke: #ffffff; stroke-linecap: round" />
     </g>
     <g id="text_10">
      
      <g style="fill: #262626" transform="translate(110.382969 342.89672) scale(0.11 -0.11)">
       <use ns4:href="#ArialMT-30" />
      </g>
     </g>
    </g>
    <g id="ytick_2">
     <g id="line2d_10">
      <path d="M 126 288.73933  L 481.090909 288.73933  " clip-path="url(#pb6f931544f)" style="fill: none; stroke: #ffffff; stroke-linecap: round" />
     </g>
     <g id="text_11">
      
      <g style="fill: #262626" transform="translate(110.382969 292.676127) scale(0.11 -0.11)">
       <use ns4:href="#ArialMT-32" />
      </g>
     </g>
    </g>
    <g id="ytick_3">
     <g id="line2d_11">
      <path d="M 126 238.518737  L 481.090909 238.518737  " clip-path="url(#pb6f931544f)" style="fill: none; stroke: #ffffff; stroke-linecap: round" />
     </g>
     <g id="text_12">
      
      <g style="fill: #262626" transform="translate(110.382969 242.455534) scale(0.11 -0.11)">
       <use ns4:href="#ArialMT-34" />
      </g>
     </g>
    </g>
    <g id="ytick_4">
     <g id="line2d_12">
      <path d="M 126 188.298143  L 481.090909 188.298143  " clip-path="url(#pb6f931544f)" style="fill: none; stroke: #ffffff; stroke-linecap: round" />
     </g>
     <g id="text_13">
      
      <g style="fill: #262626" transform="translate(110.382969 192.23494) scale(0.11 -0.11)">
       <use ns4:href="#ArialMT-36" />
      </g>
     </g>
    </g>
    <g id="ytick_5">
     <g id="line2d_13">
      <path d="M 126 138.07755  L 481.090909 138.07755  " clip-path="url(#pb6f931544f)" style="fill: none; stroke: #ffffff; stroke-linecap: round" />
     </g>
     <g id="text_14">
      
      <g style="fill: #262626" transform="translate(110.382969 142.014347) scale(0.11 -0.11)">
       <use ns4:href="#ArialMT-38" />
      </g>
     </g>
    </g>
    <g id="ytick_6">
     <g id="line2d_14">
      <path d="M 126 87.856957  L 481.090909 87.856957  " clip-path="url(#pb6f931544f)" style="fill: none; stroke: #ffffff; stroke-linecap: round" />
     </g>
     <g id="text_15">
      
      <g style="fill: #262626" transform="translate(104.265938 91.793754) scale(0.11 -0.11)">
       <use ns4:href="#ArialMT-31" />
       <use ns4:href="#ArialMT-30" x="55.615234" />
      </g>
     </g>
    </g>
    <g id="text_16">
     
     <g style="fill: #262626" transform="translate(97.740313 221.16) rotate(-90) scale(0.12 -0.12)">
      <defs>
       <path id="ArialMT-79" d="M 397 -1278  L 334 -750  Q 519 -800 656 -800  Q 844 -800 956 -737  Q 1069 -675 1141 -563  Q 1194 -478 1313 -144  Q 1328 -97 1363 -6  L 103 3319  L 709 3319  L 1400 1397  Q 1534 1031 1641 628  Q 1738 1016 1872 1384  L 2581 3319  L 3144 3319  L 1881 -56  Q 1678 -603 1566 -809  Q 1416 -1088 1222 -1217  Q 1028 -1347 759 -1347  Q 597 -1347 397 -1278  z " transform="scale(0.015625)" />
      </defs>
      <use ns4:href="#ArialMT-79" />
     </g>
    </g>
   </g>
   <g id="PolyCollection_1" />
   <g id="PolyCollection_2" />
   <g id="line2d_15">
    <path d="M 142.140496 369.36  L 146.018092 369.271346  L 147.633758 369.004811  L 148.92629 368.540573  L 149.895689 367.977784  L 150.865088 367.181208  L 151.834487 366.110477  L 152.803887 364.734288  L 153.773286 363.034438  L 155.065818 360.262305  L 156.35835 356.948913  L 157.974015 352.165847  L 160.235947 344.630138  L 165.406075 326.173986  L 169.283672 312.850861  L 172.515003 302.530699  L 175.746333 292.966741  L 178.977664 284.116532  L 182.208994 275.91289  L 185.440325 268.285443  L 188.994788 260.482903  L 192.549252 253.221906  L 196.103715 246.436854  L 199.981312 239.512614  L 203.858908 233.027841  L 208.059638 226.439649  L 212.260368 220.253213  L 216.784231 213.98825  L 221.308093 208.089064  L 226.155089 202.129137  L 231.325218 196.137703  L 236.495347 190.482663  L 241.988608 184.803049  L 247.805003 179.119451  L 253.621398 173.739868  L 259.760926 168.357277  L 266.223587 162.986424  L 273.009381 157.639781  L 280.118308 152.327792  L 287.550369 147.059127  L 295.305562 141.840903  L 303.383888 136.678891  L 311.785347 131.577702  L 320.50994 126.54095  L 329.557665 121.571399  L 339.251657 116.506302  L 349.268781 111.527574  L 359.609039 106.634648  L 370.595563 101.684499  L 381.905219 96.831427  L 393.861142 91.943864  L 406.463331 87.037253  L 419.388653 82.242071  L 432.960241 77.441967  L 447.178095 72.647807  L 462.042216 67.868971  L 464.950413 66.96  L 464.950413 66.96  " clip-path="url(#pb6f931544f)" style="fill: none; stroke: #4c72b0; stroke-width: 1.5; stroke-linecap: round" />
   </g>
   <g id="line2d_16">
    <path d="M 142.140496 332.717709  L 144.72556 331.217641  L 147.310625 329.47689  L 149.895689 327.481261  L 152.480753 325.219495  L 155.065818 322.683605  L 157.974015 319.497631  L 160.882213 315.958257  L 163.79041 312.070374  L 167.021741 307.354668  L 170.253071 302.243569  L 173.807535 296.199216  L 177.685131 289.154288  L 182.208994 280.430493  L 187.379123 269.941989  L 194.164917 255.635531  L 211.614102 218.609862  L 217.75363 206.248944  L 222.923758 196.316033  L 227.770754 187.460759  L 232.294617 179.627578  L 236.81848 172.230088  L 241.342342 165.277332  L 245.543072 159.220657  L 249.743802 153.544702  L 253.944531 148.241668  L 258.145261 143.300686  L 262.345991 138.70853  L 266.54672 134.450236  L 270.74745 130.509643  L 274.94818 126.869843  L 279.148909 123.513558  L 283.672772 120.19628  L 288.196635 117.166302  L 292.720497 114.402747  L 297.567493 111.714576  L 302.414489 109.285494  L 307.584618 106.954902  L 312.754746 104.868322  L 318.248008 102.892404  L 324.064403 101.042752  L 330.203931 99.330603  L 336.666592 97.762944  L 343.452386 96.342795  L 350.884446 95.016439  L 358.962773 93.805903  L 367.687365 92.725053  L 377.381357 91.750992  L 388.36788 90.879042  L 400.646936 90.132371  L 414.86479 89.494358  L 431.990842 88.95803  L 452.99449 88.533435  L 464.950413 88.369533  L 464.950413 88.369533  " clip-path="url(#pb6f931544f)" style="fill: none; stroke: #dd8452; stroke-width: 1.5; stroke-linecap: round" />
   </g>
   <g id="patch_3">
    <path d="M 126 384.48  L 126 51.84  " style="fill: none; stroke: #ffffff; stroke-width: 1.25; stroke-linejoin: miter; stroke-linecap: square" />
   </g>
   <g id="patch_4">
    <path d="M 481.090909 384.48  L 481.090909 51.84  " style="fill: none; stroke: #ffffff; stroke-width: 1.25; stroke-linejoin: miter; stroke-linecap: square" />
   </g>
   <g id="patch_5">
    <path d="M 126 384.48  L 481.090909 384.48  " style="fill: none; stroke: #ffffff; stroke-width: 1.25; stroke-linejoin: miter; stroke-linecap: square" />
   </g>
   <g id="patch_6">
    <path d="M 126 51.84  L 481.090909 51.84  " style="fill: none; stroke: #ffffff; stroke-width: 1.25; stroke-linejoin: miter; stroke-linecap: square" />
   </g>
   <g id="legend_1">
    <g id="patch_7">
     <path d="M 133.7 91.759687  L 214.147813 91.759687  Q 216.347813 91.759687 216.347813 89.559687  L 216.347813 59.54  Q 216.347813 57.34 214.147813 57.34  L 133.7 57.34  Q 131.5 57.34 131.5 59.54  L 131.5 89.559687  Q 131.5 91.759687 133.7 91.759687  z " style="fill: #eaeaf2; opacity: 0.8; stroke: #cccccc; stroke-linejoin: miter" />
    </g>
    <g id="line2d_17">
     <path d="M 135.9 65.763594  L 146.9 65.763594  L 157.9 65.763594  " style="fill: none; stroke: #4c72b0; stroke-width: 1.5; stroke-linecap: round" />
    </g>
    <g id="text_17">
     
     <g style="fill: #262626" transform="translate(166.7 69.613594) scale(0.11 -0.11)">
      <defs>
       <path id="ArialMT-70" d="M 422 -1272  L 422 3319  L 934 3319  L 934 2888  Q 1116 3141 1344 3267  Q 1572 3394 1897 3394  Q 2322 3394 2647 3175  Q 2972 2956 3137 2557  Q 3303 2159 3303 1684  Q 3303 1175 3120 767  Q 2938 359 2589 142  Q 2241 -75 1856 -75  Q 1575 -75 1351 44  Q 1128 163 984 344  L 984 -1272  L 422 -1272  z M 931 1641  Q 931 1000 1190 694  Q 1450 388 1819 388  Q 2194 388 2461 705  Q 2728 1022 2728 1688  Q 2728 2322 2467 2637  Q 2206 2953 1844 2953  Q 1484 2953 1207 2617  Q 931 2281 931 1641  z " transform="scale(0.015625)" />
       <path id="ArialMT-72" d="M 416 0  L 416 3319  L 922 3319  L 922 2816  Q 1116 3169 1280 3281  Q 1444 3394 1641 3394  Q 1925 3394 2219 3213  L 2025 2691  Q 1819 2813 1613 2813  Q 1428 2813 1281 2702  Q 1134 2591 1072 2394  Q 978 2094 978 1738  L 978 0  L 416 0  z " transform="scale(0.015625)" />
       <path id="ArialMT-65" d="M 2694 1069  L 3275 997  Q 3138 488 2766 206  Q 2394 -75 1816 -75  Q 1088 -75 661 373  Q 234 822 234 1631  Q 234 2469 665 2931  Q 1097 3394 1784 3394  Q 2450 3394 2872 2941  Q 3294 2488 3294 1666  Q 3294 1616 3291 1516  L 816 1516  Q 847 969 1125 678  Q 1403 388 1819 388  Q 2128 388 2347 550  Q 2566 713 2694 1069  z M 847 1978  L 2700 1978  Q 2663 2397 2488 2606  Q 2219 2931 1791 2931  Q 1403 2931 1139 2672  Q 875 2413 847 1978  z " transform="scale(0.015625)" />
       <path id="ArialMT-64" d="M 2575 0  L 2575 419  Q 2259 -75 1647 -75  Q 1250 -75 917 144  Q 584 363 401 755  Q 219 1147 219 1656  Q 219 2153 384 2558  Q 550 2963 881 3178  Q 1213 3394 1622 3394  Q 1922 3394 2156 3267  Q 2391 3141 2538 2938  L 2538 4581  L 3097 4581  L 3097 0  L 2575 0  z M 797 1656  Q 797 1019 1065 703  Q 1334 388 1700 388  Q 2069 388 2326 689  Q 2584 991 2584 1609  Q 2584 2291 2321 2609  Q 2059 2928 1675 2928  Q 1300 2928 1048 2622  Q 797 2316 797 1656  z " transform="scale(0.015625)" />
       <path id="ArialMT-69" d="M 425 3934  L 425 4581  L 988 4581  L 988 3934  L 425 3934  z M 425 0  L 425 3319  L 988 3319  L 988 0  L 425 0  z " transform="scale(0.015625)" />
       <path id="ArialMT-63" d="M 2588 1216  L 3141 1144  Q 3050 572 2676 248  Q 2303 -75 1759 -75  Q 1078 -75 664 370  Q 250 816 250 1647  Q 250 2184 428 2587  Q 606 2991 970 3192  Q 1334 3394 1763 3394  Q 2303 3394 2647 3120  Q 2991 2847 3088 2344  L 2541 2259  Q 2463 2594 2264 2762  Q 2066 2931 1784 2931  Q 1359 2931 1093 2626  Q 828 2322 828 1663  Q 828 994 1084 691  Q 1341 388 1753 388  Q 2084 388 2306 591  Q 2528 794 2588 1216  z " transform="scale(0.015625)" />
       <path id="ArialMT-74" d="M 1650 503  L 1731 6  Q 1494 -44 1306 -44  Q 1000 -44 831 53  Q 663 150 594 308  Q 525 466 525 972  L 525 2881  L 113 2881  L 113 3319  L 525 3319  L 525 4141  L 1084 4478  L 1084 3319  L 1650 3319  L 1650 2881  L 1084 2881  L 1084 941  Q 1084 700 1114 631  Q 1144 563 1211 522  Q 1278 481 1403 481  Q 1497 481 1650 503  z " transform="scale(0.015625)" />
      </defs>
      <use ns4:href="#ArialMT-70" />
      <use ns4:href="#ArialMT-72" x="55.615234" />
      <use ns4:href="#ArialMT-65" x="88.916016" />
      <use ns4:href="#ArialMT-64" x="144.53125" />
      <use ns4:href="#ArialMT-69" x="200.146484" />
      <use ns4:href="#ArialMT-63" x="222.363281" />
      <use ns4:href="#ArialMT-74" x="272.363281" />
      <use ns4:href="#ArialMT-65" x="300.146484" />
      <use ns4:href="#ArialMT-64" x="355.761719" />
     </g>
    </g>
    <g id="line2d_18">
     <path d="M 135.9 81.323438  L 146.9 81.323438  L 157.9 81.323438  " style="fill: none; stroke: #dd8452; stroke-width: 1.5; stroke-linecap: round" />
    </g>
    <g id="text_18">
     
     <g style="fill: #262626" transform="translate(166.7 85.173438) scale(0.11 -0.11)">
      <defs>
       <path id="ArialMT-52" d="M 503 0  L 503 4581  L 2534 4581  Q 3147 4581 3465 4457  Q 3784 4334 3975 4021  Q 4166 3709 4166 3331  Q 4166 2844 3850 2509  Q 3534 2175 2875 2084  Q 3116 1969 3241 1856  Q 3506 1613 3744 1247  L 4541 0  L 3778 0  L 3172 953  Q 2906 1366 2734 1584  Q 2563 1803 2427 1890  Q 2291 1978 2150 2013  Q 2047 2034 1813 2034  L 1109 2034  L 1109 0  L 503 0  z M 1109 2559  L 2413 2559  Q 2828 2559 3062 2645  Q 3297 2731 3419 2920  Q 3541 3109 3541 3331  Q 3541 3656 3305 3865  Q 3069 4075 2559 4075  L 1109 4075  L 1109 2559  z " transform="scale(0.015625)" />
       <path id="ArialMT-61" d="M 2588 409  Q 2275 144 1986 34  Q 1697 -75 1366 -75  Q 819 -75 525 192  Q 231 459 231 875  Q 231 1119 342 1320  Q 453 1522 633 1644  Q 813 1766 1038 1828  Q 1203 1872 1538 1913  Q 2219 1994 2541 2106  Q 2544 2222 2544 2253  Q 2544 2597 2384 2738  Q 2169 2928 1744 2928  Q 1347 2928 1158 2789  Q 969 2650 878 2297  L 328 2372  Q 403 2725 575 2942  Q 747 3159 1072 3276  Q 1397 3394 1825 3394  Q 2250 3394 2515 3294  Q 2781 3194 2906 3042  Q 3031 2891 3081 2659  Q 3109 2516 3109 2141  L 3109 1391  Q 3109 606 3145 398  Q 3181 191 3288 0  L 2700 0  Q 2613 175 2588 409  z M 2541 1666  Q 2234 1541 1622 1453  Q 1275 1403 1131 1340  Q 988 1278 909 1158  Q 831 1038 831 891  Q 831 666 1001 516  Q 1172 366 1500 366  Q 1825 366 2078 508  Q 2331 650 2450 897  Q 2541 1088 2541 1459  L 2541 1666  z " transform="scale(0.015625)" />
       <path id="ArialMT-6c" d="M 409 0  L 409 4581  L 972 4581  L 972 0  L 409 0  z " transform="scale(0.015625)" />
      </defs>
      <use ns4:href="#ArialMT-52" />
      <use ns4:href="#ArialMT-65" x="72.216797" />
      <use ns4:href="#ArialMT-61" x="127.832031" />
      <use ns4:href="#ArialMT-6c" x="183.447266" />
     </g>
    </g>
   </g>
  </g>
  <g id="axes_2">
   <g id="patch_8">
    <path d="M 552.109091 384.48  L 907.2 384.48  L 907.2 51.84  L 552.109091 51.84  z " style="fill: #eaeaf2" />
   </g>
   <g id="matplotlib.axis_3">
    <g id="xtick_9">
     <g id="line2d_19">
      <path d="M 552.109091 384.48  L 552.109091 51.84  " clip-path="url(#p7a3cf055c2)" style="fill: none; stroke: #ffffff; stroke-linecap: round" />
     </g>
     <g id="text_19">
      
      <g style="fill: #262626" transform="translate(544.464091 401.853594) scale(0.11 -0.11)">
       <defs>
        <path id="ArialMT-2e" d="M 581 0  L 581 641  L 1222 641  L 1222 0  L 581 0  z " transform="scale(0.015625)" />
       </defs>
       <use ns4:href="#ArialMT-30" />
       <use ns4:href="#ArialMT-2e" x="55.615234" />
       <use ns4:href="#ArialMT-30" x="83.398438" />
      </g>
     </g>
    </g>
    <g id="xtick_10">
     <g id="line2d_20">
      <path d="M 623.127273 384.48  L 623.127273 51.84  " clip-path="url(#p7a3cf055c2)" style="fill: none; stroke: #ffffff; stroke-linecap: round" />
     </g>
     <g id="text_20">
      
      <g style="fill: #262626" transform="translate(615.482273 401.853594) scale(0.11 -0.11)">
       <use ns4:href="#ArialMT-30" />
       <use ns4:href="#ArialMT-2e" x="55.615234" />
       <use ns4:href="#ArialMT-32" x="83.398438" />
      </g>
     </g>
    </g>
    <g id="xtick_11">
     <g id="line2d_21">
      <path d="M 694.145455 384.48  L 694.145455 51.84  " clip-path="url(#p7a3cf055c2)" style="fill: none; stroke: #ffffff; stroke-linecap: round" />
     </g>
     <g id="text_21">
      
      <g style="fill: #262626" transform="translate(686.500455 401.853594) scale(0.11 -0.11)">
       <use ns4:href="#ArialMT-30" />
       <use ns4:href="#ArialMT-2e" x="55.615234" />
       <use ns4:href="#ArialMT-34" x="83.398438" />
      </g>
     </g>
    </g>
    <g id="xtick_12">
     <g id="line2d_22">
      <path d="M 765.163636 384.48  L 765.163636 51.84  " clip-path="url(#p7a3cf055c2)" style="fill: none; stroke: #ffffff; stroke-linecap: round" />
     </g>
     <g id="text_22">
      
      <g style="fill: #262626" transform="translate(757.518636 401.853594) scale(0.11 -0.11)">
       <use ns4:href="#ArialMT-30" />
       <use ns4:href="#ArialMT-2e" x="55.615234" />
       <use ns4:href="#ArialMT-36" x="83.398438" />
      </g>
     </g>
    </g>
    <g id="xtick_13">
     <g id="line2d_23">
      <path d="M 836.181818 384.48  L 836.181818 51.84  " clip-path="url(#p7a3cf055c2)" style="fill: none; stroke: #ffffff; stroke-linecap: round" />
     </g>
     <g id="text_23">
      
      <g style="fill: #262626" transform="translate(828.536818 401.853594) scale(0.11 -0.11)">
       <use ns4:href="#ArialMT-30" />
       <use ns4:href="#ArialMT-2e" x="55.615234" />
       <use ns4:href="#ArialMT-38" x="83.398438" />
      </g>
     </g>
    </g>
    <g id="xtick_14">
     <g id="line2d_24">
      <path d="M 907.2 384.48  L 907.2 51.84  " clip-path="url(#p7a3cf055c2)" style="fill: none; stroke: #ffffff; stroke-linecap: round" />
     </g>
     <g id="text_24">
      
      <g style="fill: #262626" transform="translate(899.555 401.853594) scale(0.11 -0.11)">
       <use ns4:href="#ArialMT-31" />
       <use ns4:href="#ArialMT-2e" x="55.615234" />
       <use ns4:href="#ArialMT-30" x="83.398438" />
      </g>
     </g>
    </g>
   </g>
   <g id="matplotlib.axis_4">
    <g id="ytick_7">
     <g id="line2d_25">
      <path d="M 552.109091 384.48  L 907.2 384.48  " clip-path="url(#p7a3cf055c2)" style="fill: none; stroke: #ffffff; stroke-linecap: round" />
     </g>
     <g id="text_25">
      
      <g style="fill: #262626" transform="translate(527.319091 388.416797) scale(0.11 -0.11)">
       <use ns4:href="#ArialMT-30" />
       <use ns4:href="#ArialMT-2e" x="55.615234" />
       <use ns4:href="#ArialMT-30" x="83.398438" />
      </g>
     </g>
    </g>
    <g id="ytick_8">
     <g id="line2d_26">
      <path d="M 552.109091 317.952  L 907.2 317.952  " clip-path="url(#p7a3cf055c2)" style="fill: none; stroke: #ffffff; stroke-linecap: round" />
     </g>
     <g id="text_26">
      
      <g style="fill: #262626" transform="translate(527.319091 321.888797) scale(0.11 -0.11)">
       <use ns4:href="#ArialMT-30" />
       <use ns4:href="#ArialMT-2e" x="55.615234" />
       <use ns4:href="#ArialMT-32" x="83.398438" />
      </g>
     </g>
    </g>
    <g id="ytick_9">
     <g id="line2d_27">
      <path d="M 552.109091 251.424  L 907.2 251.424  " clip-path="url(#p7a3cf055c2)" style="fill: none; stroke: #ffffff; stroke-linecap: round" />
     </g>
     <g id="text_27">
      
      <g style="fill: #262626" transform="translate(527.319091 255.360797) scale(0.11 -0.11)">
       <use ns4:href="#ArialMT-30" />
       <use ns4:href="#ArialMT-2e" x="55.615234" />
       <use ns4:href="#ArialMT-34" x="83.398438" />
      </g>
     </g>
    </g>
    <g id="ytick_10">
     <g id="line2d_28">
      <path d="M 552.109091 184.896  L 907.2 184.896  " clip-path="url(#p7a3cf055c2)" style="fill: none; stroke: #ffffff; stroke-linecap: round" />
     </g>
     <g id="text_28">
      
      <g style="fill: #262626" transform="translate(527.319091 188.832797) scale(0.11 -0.11)">
       <use ns4:href="#ArialMT-30" />
       <use ns4:href="#ArialMT-2e" x="55.615234" />
       <use ns4:href="#ArialMT-36" x="83.398438" />
      </g>
     </g>
    </g>
    <g id="ytick_11">
     <g id="line2d_29">
      <path d="M 552.109091 118.368  L 907.2 118.368  " clip-path="url(#p7a3cf055c2)" style="fill: none; stroke: #ffffff; stroke-linecap: round" />
     </g>
     <g id="text_29">
      
      <g style="fill: #262626" transform="translate(527.319091 122.304797) scale(0.11 -0.11)">
       <use ns4:href="#ArialMT-30" />
       <use ns4:href="#ArialMT-2e" x="55.615234" />
       <use ns4:href="#ArialMT-38" x="83.398438" />
      </g>
     </g>
    </g>
    <g id="ytick_12">
     <g id="line2d_30">
      <path d="M 552.109091 51.84  L 907.2 51.84  " clip-path="url(#p7a3cf055c2)" style="fill: none; stroke: #ffffff; stroke-linecap: round" />
     </g>
     <g id="text_30">
      
      <g style="fill: #262626" transform="translate(527.319091 55.776797) scale(0.11 -0.11)">
       <use ns4:href="#ArialMT-31" />
       <use ns4:href="#ArialMT-2e" x="55.615234" />
       <use ns4:href="#ArialMT-30" x="83.398438" />
      </g>
     </g>
    </g>
   </g>
   <g id="sk">
    <svg width="355.090909" height="332.64" viewBox="0.00 0.00 144.14 260.00" x="552.109091" y="51.84">
<g id="graph0" class="graph" transform="scale(1 1) rotate(0) translate(4 256)">
<polygon fill="white" stroke="transparent" points="-4,4 -4,-256 140.14,-256 140.14,4 -4,4" />

<g id="node1" class="node">
<title>0</title>
<ellipse fill="none" stroke="black" cx="66.6" cy="-234" rx="27" ry="18" />
<text text-anchor="middle" x="66.6" y="-230.3" font-family="Times New Roman,serif" font-size="14.00">log</text>
</g>

<g id="node2" class="node">
<title>1</title>
<ellipse fill="none" stroke="black" cx="66.6" cy="-162" rx="27" ry="18" />
<text text-anchor="middle" x="66.6" y="-158.3" font-family="Times New Roman,serif" font-size="14.00">+</text>
</g>

<g id="edge1" class="edge">
<title>0-&gt;1</title>
<path fill="none" stroke="black" d="M66.6,-215.7C66.6,-207.98 66.6,-198.71 66.6,-190.11" />
<polygon fill="black" stroke="black" points="70.1,-190.1 66.6,-180.1 63.1,-190.1 70.1,-190.1" />
</g>

<g id="node3" class="node">
<title>2</title>
<ellipse fill="none" stroke="black" cx="28.6" cy="-90" rx="28.7" ry="18" />
<text text-anchor="middle" x="28.6" y="-86.3" font-family="Times New Roman,serif" font-size="14.00">quart</text>
</g>

<g id="edge2" class="edge">
<title>1-&gt;2</title>
<path fill="none" stroke="black" d="M57.78,-144.76C53.18,-136.28 47.44,-125.71 42.28,-116.2" />
<polygon fill="black" stroke="black" points="45.21,-114.27 37.36,-107.15 39.06,-117.61 45.21,-114.27" />
</g>

<g id="node4" class="node">
<title>4</title>
<ellipse fill="none" stroke="black" cx="105.6" cy="-90" rx="30.59" ry="18" />
<text text-anchor="middle" x="105.6" y="-86.3" font-family="Times New Roman,serif" font-size="14.00">0.298</text>
</g>

<g id="edge3" class="edge">
<title>1-&gt;4</title>
<path fill="none" stroke="black" d="M75.64,-144.76C80.3,-136.4 86.09,-126.02 91.33,-116.61" />
<polygon fill="black" stroke="black" points="94.52,-118.07 96.33,-107.63 88.41,-114.67 94.52,-118.07" />
</g>

<g id="node5" class="node">
<title>3</title>
<ellipse fill="none" stroke="black" cx="28.6" cy="-18" rx="27" ry="18" />
<text text-anchor="middle" x="28.6" y="-14.3" font-family="Times New Roman,serif" font-size="14.00">x</text>
</g>

<g id="edge4" class="edge">
<title>2-&gt;3</title>
<path fill="none" stroke="black" d="M28.6,-71.7C28.6,-63.98 28.6,-54.71 28.6,-46.11" />
<polygon fill="black" stroke="black" points="32.1,-46.1 28.6,-36.1 25.1,-46.1 32.1,-46.1" />
</g>
</g>
</svg></g>
   <g id="patch_9">
    <path d="M 552.109091 384.48  L 552.109091 51.84  " style="fill: none; stroke: #ffffff; stroke-width: 1.25; stroke-linejoin: miter; stroke-linecap: square" />
   </g>
   <g id="patch_10">
    <path d="M 907.2 384.48  L 907.2 51.84  " style="fill: none; stroke: #ffffff; stroke-width: 1.25; stroke-linejoin: miter; stroke-linecap: square" />
   </g>
   <g id="patch_11">
    <path d="M 552.109091 384.48  L 907.2 384.48  " style="fill: none; stroke: #ffffff; stroke-width: 1.25; stroke-linejoin: miter; stroke-linecap: square" />
   </g>
   <g id="patch_12">
    <path d="M 552.109091 51.84  L 907.2 51.84  " style="fill: none; stroke: #ffffff; stroke-width: 1.25; stroke-linejoin: miter; stroke-linecap: square" />
   </g>
  </g>
 </g>
 <defs>
  <clipPath id="pb6f931544f">
   <rect x="126" y="51.84" width="355.090909" height="332.64" />
  </clipPath>
  <clipPath id="p7a3cf055c2">
   <rect x="552.109091" y="51.84" width="355.090909" height="332.64" />
  </clipPath>
 </defs>
</svg>