<?xml version="1.0" encoding="UTF-8" standalone="no"?>
<!DOCTYPE svg PUBLIC "-//W3C//DTD SVG 1.1//EN"
 "http://www.w3.org/Graphics/SVG/1.1/DTD/svg11.dtd">
<!-- Generated by graphviz version 2.43.0 (0)
 -->
<!-- Title: %3 Pages: 1 -->
<svg width="176pt" height="260pt"
 viewBox="0.00 0.00 175.55 260.00" xmlns="http://www.w3.org/2000/svg" xmlns:xlink="http://www.w3.org/1999/xlink">
<g id="graph0" class="graph" transform="scale(1 1) rotate(0) translate(4 256)">
<title>%3</title>
<polygon fill="white" stroke="transparent" points="-4,4 -4,-256 171.55,-256 171.55,4 -4,4"/>
<!-- 0 -->
<g id="node1" class="node">
<title>0</title>
<ellipse fill="none" stroke="black" cx="104.55" cy="-234" rx="27" ry="18"/>
<text text-anchor="middle" x="104.55" y="-230.3" font-family="Times,serif" font-size="14.00">&#45;</text>
</g>
<!-- 1 -->
<g id="node2" class="node">
<title>1</title>
<ellipse fill="none" stroke="black" cx="68.55" cy="-162" rx="27" ry="18"/>
<text text-anchor="middle" x="68.55" y="-158.3" font-family="Times,serif" font-size="14.00">tanh</text>
</g>
<!-- 0&#45;&gt;1 -->
<g id="edge1" class="edge">
<title>0&#45;&gt;1</title>
<path fill="none" stroke="black" d="M96.2,-216.76C91.84,-208.28 86.4,-197.71 81.51,-188.2"/>
<polygon fill="black" stroke="black" points="84.54,-186.44 76.85,-179.15 78.31,-189.64 84.54,-186.44"/>
</g>
<!-- 5 -->
<g id="node3" class="node">
<title>5</title>
<ellipse fill="none" stroke="black" cx="140.55" cy="-162" rx="27" ry="18"/>
<text text-anchor="middle" x="140.55" y="-158.3" font-family="Times,serif" font-size="14.00">x</text>
</g>
<!-- 0&#45;&gt;5 -->
<g id="edge2" class="edge">
<title>0&#45;&gt;5</title>
<path fill="none" stroke="black" d="M112.9,-216.76C117.26,-208.28 122.69,-197.71 127.59,-188.2"/>
<polygon fill="black" stroke="black" points="130.78,-189.64 132.24,-179.15 124.56,-186.44 130.78,-189.64"/>
</g>
<!-- 2 -->
<g id="node4" class="node">
<title>2</title>
<ellipse fill="none" stroke="black" cx="68.55" cy="-90" rx="27" ry="18"/>
<text text-anchor="middle" x="68.55" y="-86.3" font-family="Times,serif" font-size="14.00">*</text>
</g>
<!-- 1&#45;&gt;2 -->
<g id="edge3" class="edge">
<title>1&#45;&gt;2</title>
<path fill="none" stroke="black" d="M68.55,-143.7C68.55,-135.98 68.55,-126.71 68.55,-118.11"/>
<polygon fill="black" stroke="black" points="72.05,-118.1 68.55,-108.1 65.05,-118.1 72.05,-118.1"/>
</g>
<!-- 3 -->
<g id="node5" class="node">
<title>3</title>
<ellipse fill="none" stroke="black" cx="30.55" cy="-18" rx="30.59" ry="18"/>
<text text-anchor="middle" x="30.55" y="-14.3" font-family="Times,serif" font-size="14.00">3.489</text>
</g>
<!-- 2&#45;&gt;3 -->
<g id="edge4" class="edge">
<title>2&#45;&gt;3</title>
<path fill="none" stroke="black" d="M59.73,-72.76C55.2,-64.4 49.56,-54.02 44.45,-44.61"/>
<polygon fill="black" stroke="black" points="47.42,-42.75 39.58,-35.63 41.27,-46.09 47.42,-42.75"/>
</g>
<!-- 4 -->
<g id="node6" class="node">
<title>4</title>
<ellipse fill="none" stroke="black" cx="106.55" cy="-18" rx="27" ry="18"/>
<text text-anchor="middle" x="106.55" y="-14.3" font-family="Times,serif" font-size="14.00">x</text>
</g>
<!-- 2&#45;&gt;4 -->
<g id="edge5" class="edge">
<title>2&#45;&gt;4</title>
<path fill="none" stroke="black" d="M77.36,-72.76C81.97,-64.28 87.7,-53.71 92.87,-44.2"/>
<polygon fill="black" stroke="black" points="96.09,-45.61 97.78,-35.15 89.93,-42.27 96.09,-45.61"/>
</g>
</g>
</svg>
