<?xml version="1.0" encoding="UTF-8" standalone="no"?>
<!DOCTYPE svg PUBLIC "-//W3C//DTD SVG 1.1//EN"
 "http://www.w3.org/Graphics/SVG/1.1/DTD/svg11.dtd">
<!-- Generated by graphviz version 10.0.1 (20240210.2158)
 -->
<!-- Pages: 1 -->
<svg width="234pt" height="188pt"
 viewBox="0.00 0.00 234.10 188.00" xmlns="http://www.w3.org/2000/svg" xmlns:xlink="http://www.w3.org/1999/xlink">
<g id="graph0" class="graph" transform="scale(1 1) rotate(0) translate(4 184)">
<polygon fill="white" stroke="none" points="-4,4 -4,-184 230.1,-184 230.1,4 -4,4"/>
<!-- 0 -->
<g id="node1" class="node">
<title>0</title>
<ellipse fill="none" stroke="black" cx="84.1" cy="-162" rx="27" ry="18"/>
<text text-anchor="middle" x="84.1" y="-156.57" font-family="Times New Roman,serif" font-size="14.00">+</text>
</g>
<!-- 1 -->
<g id="node2" class="node">
<title>1</title>
<ellipse fill="none" stroke="black" cx="41.1" cy="-90" rx="27" ry="18"/>
<text text-anchor="middle" x="41.1" y="-84.58" font-family="Times New Roman,serif" font-size="14.00">tan</text>
</g>
<!-- 0&#45;&gt;1 -->
<g id="edge1" class="edge">
<title>0&#45;&gt;1</title>
<path fill="none" stroke="black" d="M74.12,-144.76C69.02,-136.46 62.69,-126.15 56.94,-116.79"/>
<polygon fill="black" stroke="black" points="60.03,-115.13 51.81,-108.44 54.06,-118.79 60.03,-115.13"/>
</g>
<!-- 3 -->
<g id="node3" class="node">
<title>3</title>
<ellipse fill="none" stroke="black" cx="120.1" cy="-90" rx="27" ry="18"/>
<text text-anchor="middle" x="120.1" y="-84.58" font-family="Times New Roman,serif" font-size="14.00">&#45;</text>
</g>
<!-- 0&#45;&gt;3 -->
<g id="edge2" class="edge">
<title>0&#45;&gt;3</title>
<path fill="none" stroke="black" d="M92.45,-144.76C96.67,-136.55 101.91,-126.37 106.68,-117.09"/>
<polygon fill="black" stroke="black" points="109.64,-118.99 111.1,-108.49 103.42,-115.79 109.64,-118.99"/>
</g>
<!-- 2 -->
<g id="node4" class="node">
<title>2</title>
<ellipse fill="none" stroke="black" cx="34.1" cy="-18" rx="34.1" ry="18"/>
<text text-anchor="middle" x="34.1" y="-12.57" font-family="Times New Roman,serif" font-size="14.00">&#45;8.624</text>
</g>
<!-- 1&#45;&gt;2 -->
<g id="edge3" class="edge">
<title>1&#45;&gt;2</title>
<path fill="none" stroke="black" d="M39.37,-71.7C38.64,-64.41 37.77,-55.73 36.95,-47.54"/>
<polygon fill="black" stroke="black" points="40.44,-47.21 35.96,-37.61 33.47,-47.91 40.44,-47.21"/>
</g>
<!-- 4 -->
<g id="node5" class="node">
<title>4</title>
<ellipse fill="none" stroke="black" cx="120.1" cy="-18" rx="34.1" ry="18"/>
<text text-anchor="middle" x="120.1" y="-12.57" font-family="Times New Roman,serif" font-size="14.00">&#45;4.372</text>
</g>
<!-- 3&#45;&gt;4 -->
<g id="edge4" class="edge">
<title>3&#45;&gt;4</title>
<path fill="none" stroke="black" d="M120.1,-71.7C120.1,-64.41 120.1,-55.73 120.1,-47.54"/>
<polygon fill="black" stroke="black" points="123.6,-47.62 120.1,-37.62 116.6,-47.62 123.6,-47.62"/>
</g>
<!-- 5 -->
<g id="node6" class="node">
<title>5</title>
<ellipse fill="none" stroke="black" cx="199.1" cy="-18" rx="27" ry="18"/>
<text text-anchor="middle" x="199.1" y="-12.57" font-family="Times New Roman,serif" font-size="14.00">x</text>
</g>
<!-- 3&#45;&gt;5 -->
<g id="edge5" class="edge">
<title>3&#45;&gt;5</title>
<path fill="none" stroke="black" d="M135.71,-75.17C146.89,-65.26 162.16,-51.73 174.91,-40.43"/>
<polygon fill="black" stroke="black" points="176.96,-43.3 182.12,-34.04 172.31,-38.06 176.96,-43.3"/>
</g>
</g>
</svg>
