<?xml version="1.0" encoding="UTF-8" standalone="no"?>
<!DOCTYPE svg PUBLIC "-//W3C//DTD SVG 1.1//EN"
 "http://www.w3.org/Graphics/SVG/1.1/DTD/svg11.dtd">
<!-- Generated by graphviz version 10.0.1 (20240210.2158)
 -->
<!-- Pages: 1 -->
<svg width="176pt" height="260pt"
 viewBox="0.00 0.00 176.10 260.00" xmlns="http://www.w3.org/2000/svg" xmlns:xlink="http://www.w3.org/1999/xlink">
<g id="graph0" class="graph" transform="scale(1 1) rotate(0) translate(4 256)">
<polygon fill="white" stroke="none" points="-4,4 -4,-256 172.1,-256 172.1,4 -4,4"/>
<!-- 0 -->
<g id="node1" class="node">
<title>0</title>
<ellipse fill="none" stroke="black" cx="105.1" cy="-234" rx="27" ry="18"/>
<text text-anchor="middle" x="105.1" y="-228.57" font-family="Times New Roman,serif" font-size="14.00">sqrt</text>
</g>
<!-- 1 -->
<g id="node2" class="node">
<title>1</title>
<ellipse fill="none" stroke="black" cx="105.1" cy="-162" rx="27" ry="18"/>
<text text-anchor="middle" x="105.1" y="-156.57" font-family="Times New Roman,serif" font-size="14.00">*</text>
</g>
<!-- 0&#45;&gt;1 -->
<g id="edge1" class="edge">
<title>0&#45;&gt;1</title>
<path fill="none" stroke="black" d="M105.1,-215.7C105.1,-208.41 105.1,-199.73 105.1,-191.54"/>
<polygon fill="black" stroke="black" points="108.6,-191.62 105.1,-181.62 101.6,-191.62 108.6,-191.62"/>
</g>
<!-- 2 -->
<g id="node3" class="node">
<title>2</title>
<ellipse fill="none" stroke="black" cx="69.1" cy="-90" rx="27" ry="18"/>
<text text-anchor="middle" x="69.1" y="-84.58" font-family="Times New Roman,serif" font-size="14.00">*</text>
</g>
<!-- 1&#45;&gt;2 -->
<g id="edge2" class="edge">
<title>1&#45;&gt;2</title>
<path fill="none" stroke="black" d="M96.75,-144.76C92.53,-136.55 87.3,-126.37 82.52,-117.09"/>
<polygon fill="black" stroke="black" points="85.79,-115.79 78.1,-108.49 79.56,-118.99 85.79,-115.79"/>
</g>
<!-- 5 -->
<g id="node4" class="node">
<title>5</title>
<ellipse fill="none" stroke="black" cx="141.1" cy="-90" rx="27" ry="18"/>
<text text-anchor="middle" x="141.1" y="-84.58" font-family="Times New Roman,serif" font-size="14.00">x</text>
</g>
<!-- 1&#45;&gt;5 -->
<g id="edge3" class="edge">
<title>1&#45;&gt;5</title>
<path fill="none" stroke="black" d="M113.45,-144.76C117.68,-136.55 122.91,-126.37 127.68,-117.09"/>
<polygon fill="black" stroke="black" points="130.65,-118.99 132.11,-108.49 124.42,-115.79 130.65,-118.99"/>
</g>
<!-- 3 -->
<g id="node5" class="node">
<title>3</title>
<ellipse fill="none" stroke="black" cx="31.1" cy="-18" rx="31.1" ry="18"/>
<text text-anchor="middle" x="31.1" y="-12.57" font-family="Times New Roman,serif" font-size="14.00">0.674</text>
</g>
<!-- 2&#45;&gt;3 -->
<g id="edge4" class="edge">
<title>2&#45;&gt;3</title>
<path fill="none" stroke="black" d="M60.29,-72.76C55.89,-64.67 50.46,-54.66 45.48,-45.49"/>
<polygon fill="black" stroke="black" points="48.7,-44.08 40.86,-36.96 42.55,-47.42 48.7,-44.08"/>
</g>
<!-- 4 -->
<g id="node6" class="node">
<title>4</title>
<ellipse fill="none" stroke="black" cx="107.1" cy="-18" rx="27" ry="18"/>
<text text-anchor="middle" x="107.1" y="-12.57" font-family="Times New Roman,serif" font-size="14.00">x</text>
</g>
<!-- 2&#45;&gt;4 -->
<g id="edge5" class="edge">
<title>2&#45;&gt;4</title>
<path fill="none" stroke="black" d="M77.92,-72.76C82.38,-64.55 87.9,-54.37 92.94,-45.09"/>
<polygon fill="black" stroke="black" points="95.92,-46.94 97.62,-36.48 89.77,-43.6 95.92,-46.94"/>
</g>
</g>
</svg>
