<?xml version="1.0" encoding="UTF-8" standalone="no"?>
<!DOCTYPE svg PUBLIC "-//W3C//DTD SVG 1.1//EN"
 "http://www.w3.org/Graphics/SVG/1.1/DTD/svg11.dtd">
<!-- Generated by graphviz version 10.0.1 (20240210.2158)
 -->
<!-- Pages: 1 -->
<svg width="223pt" height="260pt"
 viewBox="0.00 0.00 223.10 260.00" xmlns="http://www.w3.org/2000/svg" xmlns:xlink="http://www.w3.org/1999/xlink">
<g id="graph0" class="graph" transform="scale(1 1) rotate(0) translate(4 256)">
<polygon fill="white" stroke="none" points="-4,4 -4,-256 219.1,-256 219.1,4 -4,4"/>
<!-- 0 -->
<g id="node1" class="node">
<title>0</title>
<ellipse fill="none" stroke="black" cx="141" cy="-234" rx="27" ry="18"/>
<text text-anchor="middle" x="141" y="-228.57" font-family="Times New Roman,serif" font-size="14.00">&#45;</text>
</g>
<!-- 1 -->
<g id="node2" class="node">
<title>1</title>
<ellipse fill="none" stroke="black" cx="102" cy="-162" rx="27" ry="18"/>
<text text-anchor="middle" x="102" y="-156.57" font-family="Times New Roman,serif" font-size="14.00">+</text>
</g>
<!-- 0&#45;&gt;1 -->
<g id="edge1" class="edge">
<title>0&#45;&gt;1</title>
<path fill="none" stroke="black" d="M131.95,-216.76C127.38,-208.55 121.71,-198.37 116.54,-189.09"/>
<polygon fill="black" stroke="black" points="119.66,-187.5 111.73,-180.47 113.54,-190.91 119.66,-187.5"/>
</g>
<!-- 6 -->
<g id="node3" class="node">
<title>6</title>
<ellipse fill="none" stroke="black" cx="181" cy="-162" rx="34.1" ry="18"/>
<text text-anchor="middle" x="181" y="-156.57" font-family="Times New Roman,serif" font-size="14.00">&#45;3.299</text>
</g>
<!-- 0&#45;&gt;6 -->
<g id="edge2" class="edge">
<title>0&#45;&gt;6</title>
<path fill="none" stroke="black" d="M150.28,-216.76C154.91,-208.67 160.62,-198.66 165.86,-189.49"/>
<polygon fill="black" stroke="black" points="168.82,-191.37 170.74,-180.95 162.74,-187.89 168.82,-191.37"/>
</g>
<!-- 2 -->
<g id="node4" class="node">
<title>2</title>
<ellipse fill="none" stroke="black" cx="66" cy="-90" rx="27" ry="18"/>
<text text-anchor="middle" x="66" y="-84.58" font-family="Times New Roman,serif" font-size="14.00">/</text>
</g>
<!-- 1&#45;&gt;2 -->
<g id="edge3" class="edge">
<title>1&#45;&gt;2</title>
<path fill="none" stroke="black" d="M93.65,-144.76C89.42,-136.55 84.19,-126.37 79.42,-117.09"/>
<polygon fill="black" stroke="black" points="82.68,-115.79 75,-108.49 76.46,-118.99 82.68,-115.79"/>
</g>
<!-- 5 -->
<g id="node5" class="node">
<title>5</title>
<ellipse fill="none" stroke="black" cx="138" cy="-90" rx="27" ry="18"/>
<text text-anchor="middle" x="138" y="-84.58" font-family="Times New Roman,serif" font-size="14.00">x</text>
</g>
<!-- 1&#45;&gt;5 -->
<g id="edge4" class="edge">
<title>1&#45;&gt;5</title>
<path fill="none" stroke="black" d="M110.35,-144.76C114.58,-136.55 119.81,-126.37 124.58,-117.09"/>
<polygon fill="black" stroke="black" points="127.54,-118.99 129,-108.49 121.32,-115.79 127.54,-118.99"/>
</g>
<!-- 3 -->
<g id="node6" class="node">
<title>3</title>
<ellipse fill="none" stroke="black" cx="27" cy="-18" rx="27" ry="18"/>
<text text-anchor="middle" x="27" y="-12.57" font-family="Times New Roman,serif" font-size="14.00">x</text>
</g>
<!-- 2&#45;&gt;3 -->
<g id="edge5" class="edge">
<title>2&#45;&gt;3</title>
<path fill="none" stroke="black" d="M56.95,-72.76C52.38,-64.55 46.71,-54.37 41.54,-45.09"/>
<polygon fill="black" stroke="black" points="44.66,-43.5 36.73,-36.47 38.54,-46.91 44.66,-43.5"/>
</g>
<!-- 4 -->
<g id="node7" class="node">
<title>4</title>
<ellipse fill="none" stroke="black" cx="106" cy="-18" rx="34.1" ry="18"/>
<text text-anchor="middle" x="106" y="-12.57" font-family="Times New Roman,serif" font-size="14.00">&#45;2.818</text>
</g>
<!-- 2&#45;&gt;4 -->
<g id="edge6" class="edge">
<title>2&#45;&gt;4</title>
<path fill="none" stroke="black" d="M75.28,-72.76C79.91,-64.67 85.62,-54.66 90.86,-45.49"/>
<polygon fill="black" stroke="black" points="93.82,-47.37 95.74,-36.95 87.74,-43.89 93.82,-47.37"/>
</g>
</g>
</svg>
