<?xml version="1.0" encoding="UTF-8" standalone="no"?>
<!DOCTYPE svg PUBLIC "-//W3C//DTD SVG 1.1//EN"
 "http://www.w3.org/Graphics/SVG/1.1/DTD/svg11.dtd">
<!-- Generated by graphviz version 10.0.1 (20240210.2158)
 -->
<!-- Pages: 1 -->
<svg width="187pt" height="260pt"
 viewBox="0.00 0.00 187.10 260.00" xmlns="http://www.w3.org/2000/svg" xmlns:xlink="http://www.w3.org/1999/xlink">
<g id="graph0" class="graph" transform="scale(1 1) rotate(0) translate(4 256)">
<polygon fill="white" stroke="none" points="-4,4 -4,-256 183.1,-256 183.1,4 -4,4"/>
<!-- 0 -->
<g id="node1" class="node">
<title>0</title>
<ellipse fill="none" stroke="black" cx="109.1" cy="-234" rx="27" ry="18"/>
<text text-anchor="middle" x="109.1" y="-228.57" font-family="Times New Roman,serif" font-size="14.00">+</text>
</g>
<!-- 1 -->
<g id="node2" class="node">
<title>1</title>
<ellipse fill="none" stroke="black" cx="73.1" cy="-162" rx="27" ry="18"/>
<text text-anchor="middle" x="73.1" y="-156.57" font-family="Times New Roman,serif" font-size="14.00">&#45;</text>
</g>
<!-- 0&#45;&gt;1 -->
<g id="edge1" class="edge">
<title>0&#45;&gt;1</title>
<path fill="none" stroke="black" d="M100.75,-216.76C96.52,-208.55 91.29,-198.37 86.52,-189.09"/>
<polygon fill="black" stroke="black" points="89.78,-187.79 82.09,-180.49 83.56,-190.99 89.78,-187.79"/>
</g>
<!-- 6 -->
<g id="node3" class="node">
<title>6</title>
<ellipse fill="none" stroke="black" cx="145.1" cy="-162" rx="27" ry="18"/>
<text text-anchor="middle" x="145.1" y="-156.57" font-family="Times New Roman,serif" font-size="14.00">x</text>
</g>
<!-- 0&#45;&gt;6 -->
<g id="edge2" class="edge">
<title>0&#45;&gt;6</title>
<path fill="none" stroke="black" d="M117.45,-216.76C121.67,-208.55 126.91,-198.37 131.68,-189.09"/>
<polygon fill="black" stroke="black" points="134.64,-190.99 136.1,-180.49 128.42,-187.79 134.64,-190.99"/>
</g>
<!-- 2 -->
<g id="node4" class="node">
<title>2</title>
<ellipse fill="none" stroke="black" cx="34.1" cy="-90" rx="34.1" ry="18"/>
<text text-anchor="middle" x="34.1" y="-84.58" font-family="Times New Roman,serif" font-size="14.00">&#45;0.013</text>
</g>
<!-- 1&#45;&gt;2 -->
<g id="edge3" class="edge">
<title>1&#45;&gt;2</title>
<path fill="none" stroke="black" d="M64.05,-144.76C59.54,-136.67 53.97,-126.66 48.86,-117.49"/>
<polygon fill="black" stroke="black" points="52.03,-115.99 44.1,-108.96 45.91,-119.39 52.03,-115.99"/>
</g>
<!-- 3 -->
<g id="node5" class="node">
<title>3</title>
<ellipse fill="none" stroke="black" cx="113.1" cy="-90" rx="27" ry="18"/>
<text text-anchor="middle" x="113.1" y="-84.58" font-family="Times New Roman,serif" font-size="14.00">/</text>
</g>
<!-- 1&#45;&gt;3 -->
<g id="edge4" class="edge">
<title>1&#45;&gt;3</title>
<path fill="none" stroke="black" d="M82.38,-144.76C87.07,-136.55 92.88,-126.37 98.19,-117.09"/>
<polygon fill="black" stroke="black" points="101.2,-118.88 103.12,-108.46 95.12,-115.41 101.2,-118.88"/>
</g>
<!-- 4 -->
<g id="node6" class="node">
<title>4</title>
<ellipse fill="none" stroke="black" cx="73.1" cy="-18" rx="34.1" ry="18"/>
<text text-anchor="middle" x="73.1" y="-12.57" font-family="Times New Roman,serif" font-size="14.00">&#45;2.417</text>
</g>
<!-- 3&#45;&gt;4 -->
<g id="edge5" class="edge">
<title>3&#45;&gt;4</title>
<path fill="none" stroke="black" d="M103.82,-72.76C99.19,-64.67 93.48,-54.66 88.24,-45.49"/>
<polygon fill="black" stroke="black" points="91.35,-43.89 83.35,-36.95 85.28,-47.37 91.35,-43.89"/>
</g>
<!-- 5 -->
<g id="node7" class="node">
<title>5</title>
<ellipse fill="none" stroke="black" cx="152.1" cy="-18" rx="27" ry="18"/>
<text text-anchor="middle" x="152.1" y="-12.57" font-family="Times New Roman,serif" font-size="14.00">x</text>
</g>
<!-- 3&#45;&gt;5 -->
<g id="edge6" class="edge">
<title>3&#45;&gt;5</title>
<path fill="none" stroke="black" d="M122.14,-72.76C126.72,-64.55 132.39,-54.37 137.56,-45.09"/>
<polygon fill="black" stroke="black" points="140.56,-46.91 142.37,-36.47 134.44,-43.5 140.56,-46.91"/>
</g>
</g>
</svg>
