<?xml version="1.0" encoding="UTF-8" standalone="no"?>
<!DOCTYPE svg PUBLIC "-//W3C//DTD SVG 1.1//EN"
 "http://www.w3.org/Graphics/SVG/1.1/DTD/svg11.dtd">
<!-- Generated by graphviz version 10.0.1 (20240210.2158)
 -->
<!-- Pages: 1 -->
<svg width="162pt" height="188pt"
 viewBox="0.00 0.00 162.20 188.00" xmlns="http://www.w3.org/2000/svg" xmlns:xlink="http://www.w3.org/1999/xlink">
<g id="graph0" class="graph" transform="scale(1 1) rotate(0) translate(4 184)">
<polygon fill="white" stroke="none" points="-4,4 -4,-184 158.2,-184 158.2,4 -4,4"/>
<!-- 0 -->
<g id="node1" class="node">
<title>0</title>
<ellipse fill="none" stroke="black" cx="77.1" cy="-162" rx="27" ry="18"/>
<text text-anchor="middle" x="77.1" y="-156.57" font-family="Times New Roman,serif" font-size="14.00">abs</text>
</g>
<!-- 1 -->
<g id="node2" class="node">
<title>1</title>
<ellipse fill="none" stroke="black" cx="77.1" cy="-90" rx="27" ry="18"/>
<text text-anchor="middle" x="77.1" y="-84.58" font-family="Times New Roman,serif" font-size="14.00">*</text>
</g>
<!-- 0&#45;&gt;1 -->
<g id="edge1" class="edge">
<title>0&#45;&gt;1</title>
<path fill="none" stroke="black" d="M77.1,-143.7C77.1,-136.41 77.1,-127.73 77.1,-119.54"/>
<polygon fill="black" stroke="black" points="80.6,-119.62 77.1,-109.62 73.6,-119.62 80.6,-119.62"/>
</g>
<!-- 2 -->
<g id="node3" class="node">
<title>2</title>
<ellipse fill="none" stroke="black" cx="34.1" cy="-18" rx="34.1" ry="18"/>
<text text-anchor="middle" x="34.1" y="-12.57" font-family="Times New Roman,serif" font-size="14.00">&#45;7.097</text>
</g>
<!-- 1&#45;&gt;2 -->
<g id="edge2" class="edge">
<title>1&#45;&gt;2</title>
<path fill="none" stroke="black" d="M67.12,-72.76C62.1,-64.58 55.87,-54.45 50.19,-45.2"/>
<polygon fill="black" stroke="black" points="53.32,-43.61 45.11,-36.92 47.36,-47.28 53.32,-43.61"/>
</g>
<!-- 3 -->
<g id="node4" class="node">
<title>3</title>
<ellipse fill="none" stroke="black" cx="120.1" cy="-18" rx="34.1" ry="18"/>
<text text-anchor="middle" x="120.1" y="-12.57" font-family="Times New Roman,serif" font-size="14.00">&#45;0.065</text>
</g>
<!-- 1&#45;&gt;3 -->
<g id="edge3" class="edge">
<title>1&#45;&gt;3</title>
<path fill="none" stroke="black" d="M87.07,-72.76C92.1,-64.58 98.32,-54.45 104.01,-45.2"/>
<polygon fill="black" stroke="black" points="106.84,-47.28 109.09,-36.92 100.87,-43.61 106.84,-47.28"/>
</g>
</g>
</svg>
