<?xml version="1.0" encoding="UTF-8" standalone="no"?>
<!DOCTYPE svg PUBLIC "-//W3C//DTD SVG 1.1//EN"
 "http://www.w3.org/Graphics/SVG/1.1/DTD/svg11.dtd">
<!-- Generated by graphviz version 10.0.1 (20240210.2158)
 -->
<!-- Pages: 1 -->
<svg width="138pt" height="188pt"
 viewBox="0.00 0.00 138.10 188.00" xmlns="http://www.w3.org/2000/svg" xmlns:xlink="http://www.w3.org/1999/xlink">
<g id="graph0" class="graph" transform="scale(1 1) rotate(0) translate(4 184)">
<polygon fill="white" stroke="none" points="-4,4 -4,-184 134.1,-184 134.1,4 -4,4"/>
<!-- 0 -->
<g id="node1" class="node">
<title>0</title>
<ellipse fill="none" stroke="black" cx="63" cy="-162" rx="27" ry="18"/>
<text text-anchor="middle" x="63" y="-156.57" font-family="Times New Roman,serif" font-size="14.00">*</text>
</g>
<!-- 1 -->
<g id="node2" class="node">
<title>1</title>
<ellipse fill="none" stroke="black" cx="27" cy="-90" rx="27" ry="18"/>
<text text-anchor="middle" x="27" y="-84.58" font-family="Times New Roman,serif" font-size="14.00">x</text>
</g>
<!-- 0&#45;&gt;1 -->
<g id="edge1" class="edge">
<title>0&#45;&gt;1</title>
<path fill="none" stroke="black" d="M54.65,-144.76C50.42,-136.55 45.19,-126.37 40.42,-117.09"/>
<polygon fill="black" stroke="black" points="43.68,-115.79 36,-108.49 37.46,-118.99 43.68,-115.79"/>
</g>
<!-- 2 -->
<g id="node3" class="node">
<title>2</title>
<ellipse fill="none" stroke="black" cx="99" cy="-90" rx="27" ry="18"/>
<text text-anchor="middle" x="99" y="-84.58" font-family="Times New Roman,serif" font-size="14.00">tanh</text>
</g>
<!-- 0&#45;&gt;2 -->
<g id="edge2" class="edge">
<title>0&#45;&gt;2</title>
<path fill="none" stroke="black" d="M71.35,-144.76C75.58,-136.55 80.81,-126.37 85.58,-117.09"/>
<polygon fill="black" stroke="black" points="88.54,-118.99 90,-108.49 82.32,-115.79 88.54,-118.99"/>
</g>
<!-- 3 -->
<g id="node4" class="node">
<title>3</title>
<ellipse fill="none" stroke="black" cx="99" cy="-18" rx="31.1" ry="18"/>
<text text-anchor="middle" x="99" y="-12.57" font-family="Times New Roman,serif" font-size="14.00">1.295</text>
</g>
<!-- 2&#45;&gt;3 -->
<g id="edge3" class="edge">
<title>2&#45;&gt;3</title>
<path fill="none" stroke="black" d="M99,-71.7C99,-64.41 99,-55.73 99,-47.54"/>
<polygon fill="black" stroke="black" points="102.5,-47.62 99,-37.62 95.5,-47.62 102.5,-47.62"/>
</g>
</g>
</svg>
