<?xml version="1.0" encoding="UTF-8" standalone="no"?>
<!DOCTYPE svg PUBLIC "-//W3C//DTD SVG 1.1//EN"
 "http://www.w3.org/Graphics/SVG/1.1/DTD/svg11.dtd">
<!-- Generated by graphviz version 10.0.1 (20240210.2158)
 -->
<!-- Pages: 1 -->
<svg width="228pt" height="188pt"
 viewBox="0.00 0.00 228.10 188.00" xmlns="http://www.w3.org/2000/svg" xmlns:xlink="http://www.w3.org/1999/xlink">
<g id="graph0" class="graph" transform="scale(1 1) rotate(0) translate(4 184)">
<polygon fill="white" stroke="none" points="-4,4 -4,-184 224.1,-184 224.1,4 -4,4"/>
<!-- 0 -->
<g id="node1" class="node">
<title>0</title>
<ellipse fill="none" stroke="black" cx="80.1" cy="-162" rx="27" ry="18"/>
<text text-anchor="middle" x="80.1" y="-156.57" font-family="Times New Roman,serif" font-size="14.00">/</text>
</g>
<!-- 1 -->
<g id="node2" class="node">
<title>1</title>
<ellipse fill="none" stroke="black" cx="39.1" cy="-90" rx="27" ry="18"/>
<text text-anchor="middle" x="39.1" y="-84.58" font-family="Times New Roman,serif" font-size="14.00">abs</text>
</g>
<!-- 0&#45;&gt;1 -->
<g id="edge1" class="edge">
<title>0&#45;&gt;1</title>
<path fill="none" stroke="black" d="M70.59,-144.76C65.72,-136.46 59.69,-126.15 54.21,-116.79"/>
<polygon fill="black" stroke="black" points="57.39,-115.31 49.32,-108.45 51.35,-118.85 57.39,-115.31"/>
</g>
<!-- 3 -->
<g id="node3" class="node">
<title>3</title>
<ellipse fill="none" stroke="black" cx="117.1" cy="-90" rx="27" ry="18"/>
<text text-anchor="middle" x="117.1" y="-84.58" font-family="Times New Roman,serif" font-size="14.00">*</text>
</g>
<!-- 0&#45;&gt;3 -->
<g id="edge2" class="edge">
<title>0&#45;&gt;3</title>
<path fill="none" stroke="black" d="M88.68,-144.76C93.02,-136.55 98.4,-126.37 103.31,-117.09"/>
<polygon fill="black" stroke="black" points="106.28,-118.96 107.86,-108.49 100.09,-115.69 106.28,-118.96"/>
</g>
<!-- 2 -->
<g id="node4" class="node">
<title>2</title>
<ellipse fill="none" stroke="black" cx="34.1" cy="-18" rx="34.1" ry="18"/>
<text text-anchor="middle" x="34.1" y="-12.57" font-family="Times New Roman,serif" font-size="14.00">&#45;6.321</text>
</g>
<!-- 1&#45;&gt;2 -->
<g id="edge3" class="edge">
<title>1&#45;&gt;2</title>
<path fill="none" stroke="black" d="M37.86,-71.7C37.34,-64.41 36.72,-55.73 36.14,-47.54"/>
<polygon fill="black" stroke="black" points="39.63,-47.34 35.43,-37.61 32.65,-47.84 39.63,-47.34"/>
</g>
<!-- 4 -->
<g id="node5" class="node">
<title>4</title>
<ellipse fill="none" stroke="black" cx="117.1" cy="-18" rx="31.1" ry="18"/>
<text text-anchor="middle" x="117.1" y="-12.57" font-family="Times New Roman,serif" font-size="14.00">0.968</text>
</g>
<!-- 3&#45;&gt;4 -->
<g id="edge4" class="edge">
<title>3&#45;&gt;4</title>
<path fill="none" stroke="black" d="M117.1,-71.7C117.1,-64.41 117.1,-55.73 117.1,-47.54"/>
<polygon fill="black" stroke="black" points="120.6,-47.62 117.1,-37.62 113.6,-47.62 120.6,-47.62"/>
</g>
<!-- 5 -->
<g id="node6" class="node">
<title>5</title>
<ellipse fill="none" stroke="black" cx="193.1" cy="-18" rx="27" ry="18"/>
<text text-anchor="middle" x="193.1" y="-12.57" font-family="Times New Roman,serif" font-size="14.00">x</text>
</g>
<!-- 3&#45;&gt;5 -->
<g id="edge5" class="edge">
<title>3&#45;&gt;5</title>
<path fill="none" stroke="black" d="M132.48,-74.83C143.09,-65.06 157.4,-51.88 169.45,-40.78"/>
<polygon fill="black" stroke="black" points="171.64,-43.52 176.63,-34.17 166.9,-38.37 171.64,-43.52"/>
</g>
</g>
</svg>
