<?xml version="1.0" encoding="UTF-8" standalone="no"?>
<!DOCTYPE svg PUBLIC "-//W3C//DTD SVG 1.1//EN"
 "http://www.w3.org/Graphics/SVG/1.1/DTD/svg11.dtd">
<!-- Generated by graphviz version 10.0.1 (20240210.2158)
 -->
<!-- Pages: 1 -->
<svg width="222pt" height="188pt"
 viewBox="0.00 0.00 222.10 188.00" xmlns="http://www.w3.org/2000/svg" xmlns:xlink="http://www.w3.org/1999/xlink">
<g id="graph0" class="graph" transform="scale(1 1) rotate(0) translate(4 184)">
<polygon fill="white" stroke="none" points="-4,4 -4,-184 218.1,-184 218.1,4 -4,4"/>
<!-- 0 -->
<g id="node1" class="node">
<title>0</title>
<ellipse fill="none" stroke="black" cx="141" cy="-162" rx="27" ry="18"/>
<text text-anchor="middle" x="141" y="-156.57" font-family="Times New Roman,serif" font-size="14.00">+</text>
</g>
<!-- 1 -->
<g id="node2" class="node">
<title>1</title>
<ellipse fill="none" stroke="black" cx="103" cy="-90" rx="27" ry="18"/>
<text text-anchor="middle" x="103" y="-84.58" font-family="Times New Roman,serif" font-size="14.00">/</text>
</g>
<!-- 0&#45;&gt;1 -->
<g id="edge1" class="edge">
<title>0&#45;&gt;1</title>
<path fill="none" stroke="black" d="M132.19,-144.76C127.73,-136.55 122.2,-126.37 117.16,-117.09"/>
<polygon fill="black" stroke="black" points="120.33,-115.6 112.49,-108.48 114.18,-118.94 120.33,-115.6"/>
</g>
<!-- 4 -->
<g id="node3" class="node">
<title>4</title>
<ellipse fill="none" stroke="black" cx="179" cy="-90" rx="27" ry="18"/>
<text text-anchor="middle" x="179" y="-84.58" font-family="Times New Roman,serif" font-size="14.00">sin</text>
</g>
<!-- 0&#45;&gt;4 -->
<g id="edge2" class="edge">
<title>0&#45;&gt;4</title>
<path fill="none" stroke="black" d="M149.81,-144.76C154.27,-136.55 159.8,-126.37 164.84,-117.09"/>
<polygon fill="black" stroke="black" points="167.82,-118.94 169.51,-108.48 161.67,-115.6 167.82,-118.94"/>
</g>
<!-- 2 -->
<g id="node4" class="node">
<title>2</title>
<ellipse fill="none" stroke="black" cx="27" cy="-18" rx="27" ry="18"/>
<text text-anchor="middle" x="27" y="-12.57" font-family="Times New Roman,serif" font-size="14.00">x</text>
</g>
<!-- 1&#45;&gt;2 -->
<g id="edge3" class="edge">
<title>1&#45;&gt;2</title>
<path fill="none" stroke="black" d="M87.62,-74.83C77.01,-65.06 62.7,-51.88 50.65,-40.78"/>
<polygon fill="black" stroke="black" points="53.2,-38.37 43.47,-34.17 48.45,-43.52 53.2,-38.37"/>
</g>
<!-- 3 -->
<g id="node5" class="node">
<title>3</title>
<ellipse fill="none" stroke="black" cx="103" cy="-18" rx="31.1" ry="18"/>
<text text-anchor="middle" x="103" y="-12.57" font-family="Times New Roman,serif" font-size="14.00">1.092</text>
</g>
<!-- 1&#45;&gt;3 -->
<g id="edge4" class="edge">
<title>1&#45;&gt;3</title>
<path fill="none" stroke="black" d="M103,-71.7C103,-64.41 103,-55.73 103,-47.54"/>
<polygon fill="black" stroke="black" points="106.5,-47.62 103,-37.62 99.5,-47.62 106.5,-47.62"/>
</g>
<!-- 5 -->
<g id="node6" class="node">
<title>5</title>
<ellipse fill="none" stroke="black" cx="183" cy="-18" rx="31.1" ry="18"/>
<text text-anchor="middle" x="183" y="-12.57" font-family="Times New Roman,serif" font-size="14.00">8.609</text>
</g>
<!-- 4&#45;&gt;5 -->
<g id="edge5" class="edge">
<title>4&#45;&gt;5</title>
<path fill="none" stroke="black" d="M179.99,-71.7C180.41,-64.41 180.9,-55.73 181.37,-47.54"/>
<polygon fill="black" stroke="black" points="184.86,-47.8 181.94,-37.62 177.87,-47.4 184.86,-47.8"/>
</g>
</g>
</svg>
