<?xml version="1.0" encoding="UTF-8" standalone="no"?>
<!DOCTYPE svg PUBLIC "-//W3C//DTD SVG 1.1//EN"
 "http://www.w3.org/Graphics/SVG/1.1/DTD/svg11.dtd">
<!-- Generated by graphviz version 10.0.1 (20240210.2158)
 -->
<!-- Pages: 1 -->
<svg width="228pt" height="260pt"
 viewBox="0.00 0.00 228.20 260.00" xmlns="http://www.w3.org/2000/svg" xmlns:xlink="http://www.w3.org/1999/xlink">
<g id="graph0" class="graph" transform="scale(1 1) rotate(0) translate(4 256)">
<polygon fill="white" stroke="none" points="-4,4 -4,-256 224.2,-256 224.2,4 -4,4"/>
<!-- 0 -->
<g id="node1" class="node">
<title>0</title>
<ellipse fill="none" stroke="black" cx="146.1" cy="-234" rx="27" ry="18"/>
<text text-anchor="middle" x="146.1" y="-228.57" font-family="Times New Roman,serif" font-size="14.00">+</text>
</g>
<!-- 1 -->
<g id="node2" class="node">
<title>1</title>
<ellipse fill="none" stroke="black" cx="107.1" cy="-162" rx="27" ry="18"/>
<text text-anchor="middle" x="107.1" y="-156.57" font-family="Times New Roman,serif" font-size="14.00">/</text>
</g>
<!-- 0&#45;&gt;1 -->
<g id="edge1" class="edge">
<title>0&#45;&gt;1</title>
<path fill="none" stroke="black" d="M137.06,-216.76C132.48,-208.55 126.81,-198.37 121.64,-189.09"/>
<polygon fill="black" stroke="black" points="124.76,-187.5 116.84,-180.47 118.65,-190.91 124.76,-187.5"/>
</g>
<!-- 6 -->
<g id="node3" class="node">
<title>6</title>
<ellipse fill="none" stroke="black" cx="186.1" cy="-162" rx="34.1" ry="18"/>
<text text-anchor="middle" x="186.1" y="-156.57" font-family="Times New Roman,serif" font-size="14.00">&#45;0.662</text>
</g>
<!-- 0&#45;&gt;6 -->
<g id="edge2" class="edge">
<title>0&#45;&gt;6</title>
<path fill="none" stroke="black" d="M155.38,-216.76C160.01,-208.67 165.73,-198.66 170.97,-189.49"/>
<polygon fill="black" stroke="black" points="173.93,-191.37 175.85,-180.95 167.85,-187.89 173.93,-191.37"/>
</g>
<!-- 2 -->
<g id="node4" class="node">
<title>2</title>
<ellipse fill="none" stroke="black" cx="69.1" cy="-90" rx="27" ry="18"/>
<text text-anchor="middle" x="69.1" y="-84.58" font-family="Times New Roman,serif" font-size="14.00">+</text>
</g>
<!-- 1&#45;&gt;2 -->
<g id="edge3" class="edge">
<title>1&#45;&gt;2</title>
<path fill="none" stroke="black" d="M98.29,-144.76C93.83,-136.55 88.31,-126.37 83.27,-117.09"/>
<polygon fill="black" stroke="black" points="86.44,-115.6 78.59,-108.48 80.29,-118.94 86.44,-115.6"/>
</g>
<!-- 5 -->
<g id="node5" class="node">
<title>5</title>
<ellipse fill="none" stroke="black" cx="145.1" cy="-90" rx="31.1" ry="18"/>
<text text-anchor="middle" x="145.1" y="-84.58" font-family="Times New Roman,serif" font-size="14.00">1.502</text>
</g>
<!-- 1&#45;&gt;5 -->
<g id="edge4" class="edge">
<title>1&#45;&gt;5</title>
<path fill="none" stroke="black" d="M115.92,-144.76C120.31,-136.67 125.74,-126.66 130.72,-117.49"/>
<polygon fill="black" stroke="black" points="133.66,-119.42 135.35,-108.96 127.51,-116.08 133.66,-119.42"/>
</g>
<!-- 3 -->
<g id="node6" class="node">
<title>3</title>
<ellipse fill="none" stroke="black" cx="31.1" cy="-18" rx="31.1" ry="18"/>
<text text-anchor="middle" x="31.1" y="-12.57" font-family="Times New Roman,serif" font-size="14.00">3.722</text>
</g>
<!-- 2&#45;&gt;3 -->
<g id="edge5" class="edge">
<title>2&#45;&gt;3</title>
<path fill="none" stroke="black" d="M60.29,-72.76C55.89,-64.67 50.46,-54.66 45.48,-45.49"/>
<polygon fill="black" stroke="black" points="48.7,-44.08 40.86,-36.96 42.55,-47.42 48.7,-44.08"/>
</g>
<!-- 4 -->
<g id="node7" class="node">
<title>4</title>
<ellipse fill="none" stroke="black" cx="107.1" cy="-18" rx="27" ry="18"/>
<text text-anchor="middle" x="107.1" y="-12.57" font-family="Times New Roman,serif" font-size="14.00">x</text>
</g>
<!-- 2&#45;&gt;4 -->
<g id="edge6" class="edge">
<title>2&#45;&gt;4</title>
<path fill="none" stroke="black" d="M77.92,-72.76C82.38,-64.55 87.9,-54.37 92.94,-45.09"/>
<polygon fill="black" stroke="black" points="95.92,-46.94 97.62,-36.48 89.77,-43.6 95.92,-46.94"/>
</g>
</g>
</svg>
