<?xml version="1.0" encoding="UTF-8" standalone="no"?>
<!DOCTYPE svg PUBLIC "-//W3C//DTD SVG 1.1//EN"
 "http://www.w3.org/Graphics/SVG/1.1/DTD/svg11.dtd">
<!-- Generated by graphviz version 10.0.1 (20240210.2158)
 -->
<!-- Pages: 1 -->
<svg width="220pt" height="188pt"
 viewBox="0.00 0.00 220.10 188.00" xmlns="http://www.w3.org/2000/svg" xmlns:xlink="http://www.w3.org/1999/xlink">
<g id="graph0" class="graph" transform="scale(1 1) rotate(0) translate(4 184)">
<polygon fill="white" stroke="none" points="-4,4 -4,-184 216.1,-184 216.1,4 -4,4"/>
<!-- 0 -->
<g id="node1" class="node">
<title>0</title>
<ellipse fill="none" stroke="black" cx="138" cy="-162" rx="27" ry="18"/>
<text text-anchor="middle" x="138" y="-156.57" font-family="Times New Roman,serif" font-size="14.00">/</text>
</g>
<!-- 1 -->
<g id="node2" class="node">
<title>1</title>
<ellipse fill="none" stroke="black" cx="102" cy="-90" rx="27" ry="18"/>
<text text-anchor="middle" x="102" y="-84.58" font-family="Times New Roman,serif" font-size="14.00">&#45;</text>
</g>
<!-- 0&#45;&gt;1 -->
<g id="edge1" class="edge">
<title>0&#45;&gt;1</title>
<path fill="none" stroke="black" d="M129.65,-144.76C125.42,-136.55 120.19,-126.37 115.42,-117.09"/>
<polygon fill="black" stroke="black" points="118.68,-115.79 111,-108.49 112.46,-118.99 118.68,-115.79"/>
</g>
<!-- 4 -->
<g id="node3" class="node">
<title>4</title>
<ellipse fill="none" stroke="black" cx="177" cy="-90" rx="27" ry="18"/>
<text text-anchor="middle" x="177" y="-84.58" font-family="Times New Roman,serif" font-size="14.00">tan</text>
</g>
<!-- 0&#45;&gt;4 -->
<g id="edge2" class="edge">
<title>0&#45;&gt;4</title>
<path fill="none" stroke="black" d="M147.05,-144.76C151.62,-136.55 157.29,-126.37 162.46,-117.09"/>
<polygon fill="black" stroke="black" points="165.46,-118.91 167.27,-108.47 159.34,-115.5 165.46,-118.91"/>
</g>
<!-- 2 -->
<g id="node4" class="node">
<title>2</title>
<ellipse fill="none" stroke="black" cx="27" cy="-18" rx="27" ry="18"/>
<text text-anchor="middle" x="27" y="-12.57" font-family="Times New Roman,serif" font-size="14.00">x</text>
</g>
<!-- 1&#45;&gt;2 -->
<g id="edge3" class="edge">
<title>1&#45;&gt;2</title>
<path fill="none" stroke="black" d="M86.82,-74.83C76.35,-65.06 62.23,-51.88 50.34,-40.78"/>
<polygon fill="black" stroke="black" points="52.96,-38.44 43.26,-34.18 48.18,-43.56 52.96,-38.44"/>
</g>
<!-- 3 -->
<g id="node5" class="node">
<title>3</title>
<ellipse fill="none" stroke="black" cx="102" cy="-18" rx="29.61" ry="18"/>
<text text-anchor="middle" x="102" y="-12.57" font-family="Times New Roman,serif" font-size="14.00">&#45;0.52</text>
</g>
<!-- 1&#45;&gt;3 -->
<g id="edge4" class="edge">
<title>1&#45;&gt;3</title>
<path fill="none" stroke="black" d="M102,-71.7C102,-64.41 102,-55.73 102,-47.54"/>
<polygon fill="black" stroke="black" points="105.5,-47.62 102,-37.62 98.5,-47.62 105.5,-47.62"/>
</g>
<!-- 5 -->
<g id="node6" class="node">
<title>5</title>
<ellipse fill="none" stroke="black" cx="181" cy="-18" rx="31.1" ry="18"/>
<text text-anchor="middle" x="181" y="-12.57" font-family="Times New Roman,serif" font-size="14.00">0.932</text>
</g>
<!-- 4&#45;&gt;5 -->
<g id="edge5" class="edge">
<title>4&#45;&gt;5</title>
<path fill="none" stroke="black" d="M177.99,-71.7C178.41,-64.41 178.9,-55.73 179.37,-47.54"/>
<polygon fill="black" stroke="black" points="182.86,-47.8 179.94,-37.62 175.87,-47.4 182.86,-47.8"/>
</g>
</g>
</svg>
