<?xml version="1.0" encoding="UTF-8" standalone="no"?>
<!DOCTYPE svg PUBLIC "-//W3C//DTD SVG 1.1//EN"
 "http://www.w3.org/Graphics/SVG/1.1/DTD/svg11.dtd">
<!-- Generated by graphviz version 10.0.1 (20240210.2158)
 -->
<!-- Pages: 1 -->
<svg width="214pt" height="188pt"
 viewBox="0.00 0.00 214.00 188.00" xmlns="http://www.w3.org/2000/svg" xmlns:xlink="http://www.w3.org/1999/xlink">
<g id="graph0" class="graph" transform="scale(1 1) rotate(0) translate(4 184)">
<polygon fill="white" stroke="none" points="-4,4 -4,-184 210,-184 210,4 -4,4"/>
<!-- 0 -->
<g id="node1" class="node">
<title>0</title>
<ellipse fill="none" stroke="black" cx="67" cy="-162" rx="27" ry="18"/>
<text text-anchor="middle" x="67" y="-156.57" font-family="Times New Roman,serif" font-size="14.00">/</text>
</g>
<!-- 1 -->
<g id="node2" class="node">
<title>1</title>
<ellipse fill="none" stroke="black" cx="29" cy="-90" rx="27" ry="18"/>
<text text-anchor="middle" x="29" y="-84.58" font-family="Times New Roman,serif" font-size="14.00">exp</text>
</g>
<!-- 0&#45;&gt;1 -->
<g id="edge1" class="edge">
<title>0&#45;&gt;1</title>
<path fill="none" stroke="black" d="M58.19,-144.76C53.73,-136.55 48.2,-126.37 43.16,-117.09"/>
<polygon fill="black" stroke="black" points="46.33,-115.6 38.49,-108.48 40.18,-118.94 46.33,-115.6"/>
</g>
<!-- 3 -->
<g id="node3" class="node">
<title>3</title>
<ellipse fill="none" stroke="black" cx="103" cy="-90" rx="27" ry="18"/>
<text text-anchor="middle" x="103" y="-84.58" font-family="Times New Roman,serif" font-size="14.00">+</text>
</g>
<!-- 0&#45;&gt;3 -->
<g id="edge2" class="edge">
<title>0&#45;&gt;3</title>
<path fill="none" stroke="black" d="M75.35,-144.76C79.58,-136.55 84.81,-126.37 89.58,-117.09"/>
<polygon fill="black" stroke="black" points="92.54,-118.99 94,-108.49 86.32,-115.79 92.54,-118.99"/>
</g>
<!-- 2 -->
<g id="node4" class="node">
<title>2</title>
<ellipse fill="none" stroke="black" cx="27" cy="-18" rx="27" ry="18"/>
<text text-anchor="middle" x="27" y="-12.57" font-family="Times New Roman,serif" font-size="14.00">x</text>
</g>
<!-- 1&#45;&gt;2 -->
<g id="edge3" class="edge">
<title>1&#45;&gt;2</title>
<path fill="none" stroke="black" d="M28.51,-71.7C28.3,-64.41 28.05,-55.73 27.82,-47.54"/>
<polygon fill="black" stroke="black" points="31.32,-47.51 27.53,-37.62 24.32,-47.71 31.32,-47.51"/>
</g>
<!-- 4 -->
<g id="node5" class="node">
<title>4</title>
<ellipse fill="none" stroke="black" cx="103" cy="-18" rx="31.1" ry="18"/>
<text text-anchor="middle" x="103" y="-12.57" font-family="Times New Roman,serif" font-size="14.00">1.271</text>
</g>
<!-- 3&#45;&gt;4 -->
<g id="edge4" class="edge">
<title>3&#45;&gt;4</title>
<path fill="none" stroke="black" d="M103,-71.7C103,-64.41 103,-55.73 103,-47.54"/>
<polygon fill="black" stroke="black" points="106.5,-47.62 103,-37.62 99.5,-47.62 106.5,-47.62"/>
</g>
<!-- 5 -->
<g id="node6" class="node">
<title>5</title>
<ellipse fill="none" stroke="black" cx="179" cy="-18" rx="27" ry="18"/>
<text text-anchor="middle" x="179" y="-12.57" font-family="Times New Roman,serif" font-size="14.00">x</text>
</g>
<!-- 3&#45;&gt;5 -->
<g id="edge5" class="edge">
<title>3&#45;&gt;5</title>
<path fill="none" stroke="black" d="M118.38,-74.83C128.99,-65.06 143.3,-51.88 155.35,-40.78"/>
<polygon fill="black" stroke="black" points="157.55,-43.52 162.53,-34.17 152.8,-38.37 157.55,-43.52"/>
</g>
</g>
</svg>
