<?xml version="1.0" encoding="UTF-8" standalone="no"?>
<!DOCTYPE svg PUBLIC "-//W3C//DTD SVG 1.1//EN"
 "http://www.w3.org/Graphics/SVG/1.1/DTD/svg11.dtd">
<!-- Generated by graphviz version 10.0.1 (20240210.2158)
 -->
<!-- Pages: 1 -->
<svg width="141pt" height="260pt"
 viewBox="0.00 0.00 141.10 260.00" xmlns="http://www.w3.org/2000/svg" xmlns:xlink="http://www.w3.org/1999/xlink">
<g id="graph0" class="graph" transform="scale(1 1) rotate(0) translate(4 256)">
<polygon fill="white" stroke="none" points="-4,4 -4,-256 137.1,-256 137.1,4 -4,4"/>
<!-- 0 -->
<g id="node1" class="node">
<title>0</title>
<ellipse fill="none" stroke="black" cx="64" cy="-234" rx="27" ry="18"/>
<text text-anchor="middle" x="64" y="-228.57" font-family="Times New Roman,serif" font-size="14.00">*</text>
</g>
<!-- 1 -->
<g id="node2" class="node">
<title>1</title>
<ellipse fill="none" stroke="black" cx="27" cy="-162" rx="27" ry="18"/>
<text text-anchor="middle" x="27" y="-156.57" font-family="Times New Roman,serif" font-size="14.00">x</text>
</g>
<!-- 0&#45;&gt;1 -->
<g id="edge1" class="edge">
<title>0&#45;&gt;1</title>
<path fill="none" stroke="black" d="M55.42,-216.76C51.08,-208.55 45.7,-198.37 40.79,-189.09"/>
<polygon fill="black" stroke="black" points="44.01,-187.69 36.24,-180.49 37.82,-190.96 44.01,-187.69"/>
</g>
<!-- 2 -->
<g id="node3" class="node">
<title>2</title>
<ellipse fill="none" stroke="black" cx="102" cy="-162" rx="29.61" ry="18"/>
<text text-anchor="middle" x="102" y="-156.57" font-family="Times New Roman,serif" font-size="14.00">quart</text>
</g>
<!-- 0&#45;&gt;2 -->
<g id="edge2" class="edge">
<title>0&#45;&gt;2</title>
<path fill="none" stroke="black" d="M72.81,-216.76C77.21,-208.67 82.64,-198.66 87.62,-189.49"/>
<polygon fill="black" stroke="black" points="90.55,-191.42 92.25,-180.96 84.4,-188.08 90.55,-191.42"/>
</g>
<!-- 3 -->
<g id="node4" class="node">
<title>3</title>
<ellipse fill="none" stroke="black" cx="102" cy="-90" rx="27" ry="18"/>
<text text-anchor="middle" x="102" y="-84.58" font-family="Times New Roman,serif" font-size="14.00">sin</text>
</g>
<!-- 2&#45;&gt;3 -->
<g id="edge3" class="edge">
<title>2&#45;&gt;3</title>
<path fill="none" stroke="black" d="M102,-143.7C102,-136.41 102,-127.73 102,-119.54"/>
<polygon fill="black" stroke="black" points="105.5,-119.62 102,-109.62 98.5,-119.62 105.5,-119.62"/>
</g>
<!-- 4 -->
<g id="node5" class="node">
<title>4</title>
<ellipse fill="none" stroke="black" cx="102" cy="-18" rx="31.1" ry="18"/>
<text text-anchor="middle" x="102" y="-12.57" font-family="Times New Roman,serif" font-size="14.00">1.689</text>
</g>
<!-- 3&#45;&gt;4 -->
<g id="edge4" class="edge">
<title>3&#45;&gt;4</title>
<path fill="none" stroke="black" d="M102,-71.7C102,-64.41 102,-55.73 102,-47.54"/>
<polygon fill="black" stroke="black" points="105.5,-47.62 102,-37.62 98.5,-47.62 105.5,-47.62"/>
</g>
</g>
</svg>
