<?xml version="1.0" encoding="UTF-8" standalone="no"?>
<!DOCTYPE svg PUBLIC "-//W3C//DTD SVG 1.1//EN"
 "http://www.w3.org/Graphics/SVG/1.1/DTD/svg11.dtd">
<!-- Generated by graphviz version 10.0.1 (20240210.2158)
 -->
<!-- Pages: 1 -->
<svg width="178pt" height="260pt"
 viewBox="0.00 0.00 178.10 260.00" xmlns="http://www.w3.org/2000/svg" xmlns:xlink="http://www.w3.org/1999/xlink">
<g id="graph0" class="graph" transform="scale(1 1) rotate(0) translate(4 256)">
<polygon fill="white" stroke="none" points="-4,4 -4,-256 174.1,-256 174.1,4 -4,4"/>
<!-- 0 -->
<g id="node1" class="node">
<title>0</title>
<ellipse fill="none" stroke="black" cx="107.1" cy="-234" rx="27" ry="18"/>
<text text-anchor="middle" x="107.1" y="-228.57" font-family="Times New Roman,serif" font-size="14.00">+</text>
</g>
<!-- 1 -->
<g id="node2" class="node">
<title>1</title>
<ellipse fill="none" stroke="black" cx="71.1" cy="-162" rx="27" ry="18"/>
<text text-anchor="middle" x="71.1" y="-156.57" font-family="Times New Roman,serif" font-size="14.00">tan</text>
</g>
<!-- 0&#45;&gt;1 -->
<g id="edge1" class="edge">
<title>0&#45;&gt;1</title>
<path fill="none" stroke="black" d="M98.75,-216.76C94.53,-208.55 89.3,-198.37 84.52,-189.09"/>
<polygon fill="black" stroke="black" points="87.79,-187.79 80.1,-180.49 81.56,-190.99 87.79,-187.79"/>
</g>
<!-- 5 -->
<g id="node3" class="node">
<title>5</title>
<ellipse fill="none" stroke="black" cx="143.1" cy="-162" rx="27" ry="18"/>
<text text-anchor="middle" x="143.1" y="-156.57" font-family="Times New Roman,serif" font-size="14.00">x</text>
</g>
<!-- 0&#45;&gt;5 -->
<g id="edge2" class="edge">
<title>0&#45;&gt;5</title>
<path fill="none" stroke="black" d="M115.45,-216.76C119.68,-208.55 124.91,-198.37 129.68,-189.09"/>
<polygon fill="black" stroke="black" points="132.65,-190.99 134.11,-180.49 126.42,-187.79 132.65,-190.99"/>
</g>
<!-- 2 -->
<g id="node4" class="node">
<title>2</title>
<ellipse fill="none" stroke="black" cx="71.1" cy="-90" rx="27" ry="18"/>
<text text-anchor="middle" x="71.1" y="-84.58" font-family="Times New Roman,serif" font-size="14.00">+</text>
</g>
<!-- 1&#45;&gt;2 -->
<g id="edge3" class="edge">
<title>1&#45;&gt;2</title>
<path fill="none" stroke="black" d="M71.1,-143.7C71.1,-136.41 71.1,-127.73 71.1,-119.54"/>
<polygon fill="black" stroke="black" points="74.6,-119.62 71.1,-109.62 67.6,-119.62 74.6,-119.62"/>
</g>
<!-- 3 -->
<g id="node5" class="node">
<title>3</title>
<ellipse fill="none" stroke="black" cx="31.1" cy="-18" rx="31.1" ry="18"/>
<text text-anchor="middle" x="31.1" y="-12.57" font-family="Times New Roman,serif" font-size="14.00">5.989</text>
</g>
<!-- 2&#45;&gt;3 -->
<g id="edge4" class="edge">
<title>2&#45;&gt;3</title>
<path fill="none" stroke="black" d="M61.83,-72.76C57.2,-64.67 51.48,-54.66 46.24,-45.49"/>
<polygon fill="black" stroke="black" points="49.36,-43.89 41.36,-36.95 43.28,-47.37 49.36,-43.89"/>
</g>
<!-- 4 -->
<g id="node6" class="node">
<title>4</title>
<ellipse fill="none" stroke="black" cx="111.1" cy="-18" rx="31.1" ry="18"/>
<text text-anchor="middle" x="111.1" y="-12.57" font-family="Times New Roman,serif" font-size="14.00">3.444</text>
</g>
<!-- 2&#45;&gt;4 -->
<g id="edge5" class="edge">
<title>2&#45;&gt;4</title>
<path fill="none" stroke="black" d="M80.38,-72.76C85.01,-64.67 90.73,-54.66 95.97,-45.49"/>
<polygon fill="black" stroke="black" points="98.93,-47.37 100.85,-36.95 92.85,-43.89 98.93,-47.37"/>
</g>
</g>
</svg>
