<?xml version="1.0" encoding="UTF-8" standalone="no"?>
<!DOCTYPE svg PUBLIC "-//W3C//DTD SVG 1.1//EN"
 "http://www.w3.org/Graphics/SVG/1.1/DTD/svg11.dtd">
<!-- Generated by graphviz version 10.0.1 (20240210.2158)
 -->
<!-- Pages: 1 -->
<svg width="146pt" height="260pt"
 viewBox="0.00 0.00 145.71 260.00" xmlns="http://www.w3.org/2000/svg" xmlns:xlink="http://www.w3.org/1999/xlink">
<g id="graph0" class="graph" transform="scale(1 1) rotate(0) translate(4 256)">
<polygon fill="white" stroke="none" points="-4,4 -4,-256 141.71,-256 141.71,4 -4,4"/>
<!-- 0 -->
<g id="node1" class="node">
<title>0</title>
<ellipse fill="none" stroke="black" cx="67.61" cy="-234" rx="27" ry="18"/>
<text text-anchor="middle" x="67.61" y="-228.57" font-family="Times New Roman,serif" font-size="14.00">tanh</text>
</g>
<!-- 1 -->
<g id="node2" class="node">
<title>1</title>
<ellipse fill="none" stroke="black" cx="67.61" cy="-162" rx="27" ry="18"/>
<text text-anchor="middle" x="67.61" y="-156.57" font-family="Times New Roman,serif" font-size="14.00">*</text>
</g>
<!-- 0&#45;&gt;1 -->
<g id="edge1" class="edge">
<title>0&#45;&gt;1</title>
<path fill="none" stroke="black" d="M67.61,-215.7C67.61,-208.41 67.61,-199.73 67.61,-191.54"/>
<polygon fill="black" stroke="black" points="71.11,-191.62 67.61,-181.62 64.11,-191.62 71.11,-191.62"/>
</g>
<!-- 2 -->
<g id="node3" class="node">
<title>2</title>
<ellipse fill="none" stroke="black" cx="28.61" cy="-90" rx="28.61" ry="18"/>
<text text-anchor="middle" x="28.61" y="-84.58" font-family="Times New Roman,serif" font-size="14.00">cube</text>
</g>
<!-- 1&#45;&gt;2 -->
<g id="edge2" class="edge">
<title>1&#45;&gt;2</title>
<path fill="none" stroke="black" d="M58.56,-144.76C53.99,-136.55 48.32,-126.37 43.15,-117.09"/>
<polygon fill="black" stroke="black" points="46.27,-115.5 38.34,-108.47 40.15,-118.91 46.27,-115.5"/>
</g>
<!-- 4 -->
<g id="node4" class="node">
<title>4</title>
<ellipse fill="none" stroke="black" cx="106.61" cy="-90" rx="31.1" ry="18"/>
<text text-anchor="middle" x="106.61" y="-84.58" font-family="Times New Roman,serif" font-size="14.00">9.938</text>
</g>
<!-- 1&#45;&gt;4 -->
<g id="edge3" class="edge">
<title>1&#45;&gt;4</title>
<path fill="none" stroke="black" d="M76.65,-144.76C81.17,-136.67 86.74,-126.66 91.85,-117.49"/>
<polygon fill="black" stroke="black" points="94.8,-119.39 96.61,-108.96 88.68,-115.99 94.8,-119.39"/>
</g>
<!-- 3 -->
<g id="node5" class="node">
<title>3</title>
<ellipse fill="none" stroke="black" cx="28.61" cy="-18" rx="27" ry="18"/>
<text text-anchor="middle" x="28.61" y="-12.57" font-family="Times New Roman,serif" font-size="14.00">x</text>
</g>
<!-- 2&#45;&gt;3 -->
<g id="edge4" class="edge">
<title>2&#45;&gt;3</title>
<path fill="none" stroke="black" d="M28.61,-71.7C28.61,-64.41 28.61,-55.73 28.61,-47.54"/>
<polygon fill="black" stroke="black" points="32.11,-47.62 28.61,-37.62 25.11,-47.62 32.11,-47.62"/>
</g>
</g>
</svg>
