<?xml version="1.0" encoding="UTF-8" standalone="no"?>
<!DOCTYPE svg PUBLIC "-//W3C//DTD SVG 1.1//EN"
 "http://www.w3.org/Graphics/SVG/1.1/DTD/svg11.dtd">
<!-- Generated by graphviz version 10.0.1 (20240210.2158)
 -->
<!-- Pages: 1 -->
<svg width="150pt" height="260pt"
 viewBox="0.00 0.00 150.10 260.00" xmlns="http://www.w3.org/2000/svg" xmlns:xlink="http://www.w3.org/1999/xlink">
<g id="graph0" class="graph" transform="scale(1 1) rotate(0) translate(4 256)">
<polygon fill="white" stroke="none" points="-4,4 -4,-256 146.1,-256 146.1,4 -4,4"/>
<!-- 0 -->
<g id="node1" class="node">
<title>0</title>
<ellipse fill="none" stroke="black" cx="75.1" cy="-234" rx="27" ry="18"/>
<text text-anchor="middle" x="75.1" y="-228.57" font-family="Times New Roman,serif" font-size="14.00">sin</text>
</g>
<!-- 1 -->
<g id="node2" class="node">
<title>1</title>
<ellipse fill="none" stroke="black" cx="75.1" cy="-162" rx="27" ry="18"/>
<text text-anchor="middle" x="75.1" y="-156.57" font-family="Times New Roman,serif" font-size="14.00">+</text>
</g>
<!-- 0&#45;&gt;1 -->
<g id="edge1" class="edge">
<title>0&#45;&gt;1</title>
<path fill="none" stroke="black" d="M75.1,-215.7C75.1,-208.41 75.1,-199.73 75.1,-191.54"/>
<polygon fill="black" stroke="black" points="78.6,-191.62 75.1,-181.62 71.6,-191.62 78.6,-191.62"/>
</g>
<!-- 2 -->
<g id="node3" class="node">
<title>2</title>
<ellipse fill="none" stroke="black" cx="35.1" cy="-90" rx="35.1" ry="18"/>
<text text-anchor="middle" x="35.1" y="-84.58" font-family="Times New Roman,serif" font-size="14.00">square</text>
</g>
<!-- 1&#45;&gt;2 -->
<g id="edge2" class="edge">
<title>1&#45;&gt;2</title>
<path fill="none" stroke="black" d="M65.82,-144.76C61.19,-136.67 55.48,-126.66 50.23,-117.49"/>
<polygon fill="black" stroke="black" points="53.35,-115.89 45.35,-108.95 47.27,-119.37 53.35,-115.89"/>
</g>
<!-- 4 -->
<g id="node4" class="node">
<title>4</title>
<ellipse fill="none" stroke="black" cx="115.1" cy="-90" rx="27" ry="18"/>
<text text-anchor="middle" x="115.1" y="-84.58" font-family="Times New Roman,serif" font-size="14.00">x</text>
</g>
<!-- 1&#45;&gt;4 -->
<g id="edge3" class="edge">
<title>1&#45;&gt;4</title>
<path fill="none" stroke="black" d="M84.37,-144.76C89.07,-136.55 94.88,-126.37 100.19,-117.09"/>
<polygon fill="black" stroke="black" points="103.2,-118.88 105.12,-108.46 97.12,-115.41 103.2,-118.88"/>
</g>
<!-- 3 -->
<g id="node5" class="node">
<title>3</title>
<ellipse fill="none" stroke="black" cx="35.1" cy="-18" rx="27" ry="18"/>
<text text-anchor="middle" x="35.1" y="-12.57" font-family="Times New Roman,serif" font-size="14.00">x</text>
</g>
<!-- 2&#45;&gt;3 -->
<g id="edge4" class="edge">
<title>2&#45;&gt;3</title>
<path fill="none" stroke="black" d="M35.1,-71.7C35.1,-64.41 35.1,-55.73 35.1,-47.54"/>
<polygon fill="black" stroke="black" points="38.6,-47.62 35.1,-37.62 31.6,-47.62 38.6,-47.62"/>
</g>
</g>
</svg>
