<?xml version="1.0" encoding="UTF-8" standalone="no"?>
<!DOCTYPE svg PUBLIC "-//W3C//DTD SVG 1.1//EN"
 "http://www.w3.org/Graphics/SVG/1.1/DTD/svg11.dtd">
<!-- Generated by graphviz version 10.0.1 (20240210.2158)
 -->
<!-- Pages: 1 -->
<svg width="176pt" height="260pt"
 viewBox="0.00 0.00 176.10 260.00" xmlns="http://www.w3.org/2000/svg" xmlns:xlink="http://www.w3.org/1999/xlink">
<g id="graph0" class="graph" transform="scale(1 1) rotate(0) translate(4 256)">
<polygon fill="white" stroke="none" points="-4,4 -4,-256 172.1,-256 172.1,4 -4,4"/>
<!-- 0 -->
<g id="node1" class="node">
<title>0</title>
<ellipse fill="none" stroke="black" cx="105.1" cy="-234" rx="27" ry="18"/>
<text text-anchor="middle" x="105.1" y="-228.57" font-family="Times New Roman,serif" font-size="14.00">*</text>
</g>
<!-- 1 -->
<g id="node2" class="node">
<title>1</title>
<ellipse fill="none" stroke="black" cx="69.1" cy="-162" rx="27" ry="18"/>
<text text-anchor="middle" x="69.1" y="-156.57" font-family="Times New Roman,serif" font-size="14.00">/</text>
</g>
<!-- 0&#45;&gt;1 -->
<g id="edge1" class="edge">
<title>0&#45;&gt;1</title>
<path fill="none" stroke="black" d="M96.75,-216.76C92.53,-208.55 87.3,-198.37 82.52,-189.09"/>
<polygon fill="black" stroke="black" points="85.79,-187.79 78.1,-180.49 79.56,-190.99 85.79,-187.79"/>
</g>
<!-- 5 -->
<g id="node3" class="node">
<title>5</title>
<ellipse fill="none" stroke="black" cx="141.1" cy="-162" rx="27" ry="18"/>
<text text-anchor="middle" x="141.1" y="-156.57" font-family="Times New Roman,serif" font-size="14.00">x</text>
</g>
<!-- 0&#45;&gt;5 -->
<g id="edge2" class="edge">
<title>0&#45;&gt;5</title>
<path fill="none" stroke="black" d="M113.45,-216.76C117.68,-208.55 122.91,-198.37 127.68,-189.09"/>
<polygon fill="black" stroke="black" points="130.65,-190.99 132.11,-180.49 124.42,-187.79 130.65,-190.99"/>
</g>
<!-- 2 -->
<g id="node4" class="node">
<title>2</title>
<ellipse fill="none" stroke="black" cx="31.1" cy="-90" rx="31.1" ry="18"/>
<text text-anchor="middle" x="31.1" y="-84.58" font-family="Times New Roman,serif" font-size="14.00">0.782</text>
</g>
<!-- 1&#45;&gt;2 -->
<g id="edge3" class="edge">
<title>1&#45;&gt;2</title>
<path fill="none" stroke="black" d="M60.29,-144.76C55.89,-136.67 50.46,-126.66 45.48,-117.49"/>
<polygon fill="black" stroke="black" points="48.7,-116.08 40.86,-108.96 42.55,-119.42 48.7,-116.08"/>
</g>
<!-- 3 -->
<g id="node5" class="node">
<title>3</title>
<ellipse fill="none" stroke="black" cx="107.1" cy="-90" rx="27" ry="18"/>
<text text-anchor="middle" x="107.1" y="-84.58" font-family="Times New Roman,serif" font-size="14.00">cos</text>
</g>
<!-- 1&#45;&gt;3 -->
<g id="edge4" class="edge">
<title>1&#45;&gt;3</title>
<path fill="none" stroke="black" d="M77.92,-144.76C82.38,-136.55 87.9,-126.37 92.94,-117.09"/>
<polygon fill="black" stroke="black" points="95.92,-118.94 97.62,-108.48 89.77,-115.6 95.92,-118.94"/>
</g>
<!-- 4 -->
<g id="node6" class="node">
<title>4</title>
<ellipse fill="none" stroke="black" cx="107.1" cy="-18" rx="31.1" ry="18"/>
<text text-anchor="middle" x="107.1" y="-12.57" font-family="Times New Roman,serif" font-size="14.00">7.153</text>
</g>
<!-- 3&#45;&gt;4 -->
<g id="edge5" class="edge">
<title>3&#45;&gt;4</title>
<path fill="none" stroke="black" d="M107.1,-71.7C107.1,-64.41 107.1,-55.73 107.1,-47.54"/>
<polygon fill="black" stroke="black" points="110.6,-47.62 107.1,-37.62 103.6,-47.62 110.6,-47.62"/>
</g>
</g>
</svg>
