<?xml version="1.0" encoding="UTF-8" standalone="no"?>
<!DOCTYPE svg PUBLIC "-//W3C//DTD SVG 1.1//EN"
 "http://www.w3.org/Graphics/SVG/1.1/DTD/svg11.dtd">
<!-- Generated by graphviz version 10.0.1 (20240210.2158)
 -->
<!-- Pages: 1 -->
<svg width="179pt" height="260pt"
 viewBox="0.00 0.00 179.10 260.00" xmlns="http://www.w3.org/2000/svg" xmlns:xlink="http://www.w3.org/1999/xlink">
<g id="graph0" class="graph" transform="scale(1 1) rotate(0) translate(4 256)">
<polygon fill="white" stroke="none" points="-4,4 -4,-256 175.1,-256 175.1,4 -4,4"/>
<!-- 0 -->
<g id="node1" class="node">
<title>0</title>
<ellipse fill="none" stroke="black" cx="108.1" cy="-234" rx="27" ry="18"/>
<text text-anchor="middle" x="108.1" y="-228.57" font-family="Times New Roman,serif" font-size="14.00">+</text>
</g>
<!-- 1 -->
<g id="node2" class="node">
<title>1</title>
<ellipse fill="none" stroke="black" cx="72.1" cy="-162" rx="27" ry="18"/>
<text text-anchor="middle" x="72.1" y="-156.57" font-family="Times New Roman,serif" font-size="14.00">exp</text>
</g>
<!-- 0&#45;&gt;1 -->
<g id="edge1" class="edge">
<title>0&#45;&gt;1</title>
<path fill="none" stroke="black" d="M99.75,-216.76C95.53,-208.55 90.3,-198.37 85.52,-189.09"/>
<polygon fill="black" stroke="black" points="88.79,-187.79 81.1,-180.49 82.56,-190.99 88.79,-187.79"/>
</g>
<!-- 5 -->
<g id="node3" class="node">
<title>5</title>
<ellipse fill="none" stroke="black" cx="144.1" cy="-162" rx="27" ry="18"/>
<text text-anchor="middle" x="144.1" y="-156.57" font-family="Times New Roman,serif" font-size="14.00">x</text>
</g>
<!-- 0&#45;&gt;5 -->
<g id="edge2" class="edge">
<title>0&#45;&gt;5</title>
<path fill="none" stroke="black" d="M116.45,-216.76C120.68,-208.55 125.91,-198.37 130.68,-189.09"/>
<polygon fill="black" stroke="black" points="133.65,-190.99 135.11,-180.49 127.42,-187.79 133.65,-190.99"/>
</g>
<!-- 2 -->
<g id="node4" class="node">
<title>2</title>
<ellipse fill="none" stroke="black" cx="72.1" cy="-90" rx="27" ry="18"/>
<text text-anchor="middle" x="72.1" y="-84.58" font-family="Times New Roman,serif" font-size="14.00">+</text>
</g>
<!-- 1&#45;&gt;2 -->
<g id="edge3" class="edge">
<title>1&#45;&gt;2</title>
<path fill="none" stroke="black" d="M72.1,-143.7C72.1,-136.41 72.1,-127.73 72.1,-119.54"/>
<polygon fill="black" stroke="black" points="75.6,-119.62 72.1,-109.62 68.6,-119.62 75.6,-119.62"/>
</g>
<!-- 3 -->
<g id="node5" class="node">
<title>3</title>
<ellipse fill="none" stroke="black" cx="31.1" cy="-18" rx="31.1" ry="18"/>
<text text-anchor="middle" x="31.1" y="-12.57" font-family="Times New Roman,serif" font-size="14.00">0.555</text>
</g>
<!-- 2&#45;&gt;3 -->
<g id="edge4" class="edge">
<title>2&#45;&gt;3</title>
<path fill="none" stroke="black" d="M62.59,-72.76C57.73,-64.46 51.69,-54.15 46.21,-44.79"/>
<polygon fill="black" stroke="black" points="49.4,-43.31 41.33,-36.45 43.36,-46.85 49.4,-43.31"/>
</g>
<!-- 4 -->
<g id="node6" class="node">
<title>4</title>
<ellipse fill="none" stroke="black" cx="114.1" cy="-18" rx="34.1" ry="18"/>
<text text-anchor="middle" x="114.1" y="-12.57" font-family="Times New Roman,serif" font-size="14.00">&#45;9.299</text>
</g>
<!-- 2&#45;&gt;4 -->
<g id="edge5" class="edge">
<title>2&#45;&gt;4</title>
<path fill="none" stroke="black" d="M81.85,-72.76C86.7,-64.67 92.71,-54.66 98.21,-45.49"/>
<polygon fill="black" stroke="black" points="101.2,-47.31 103.35,-36.93 95.2,-43.71 101.2,-47.31"/>
</g>
</g>
</svg>
