<?xml version="1.0" encoding="UTF-8" standalone="no"?>
<!DOCTYPE svg PUBLIC "-//W3C//DTD SVG 1.1//EN"
 "http://www.w3.org/Graphics/SVG/1.1/DTD/svg11.dtd">
<!-- Generated by graphviz version 10.0.1 (20240210.2158)
 -->
<!-- Pages: 1 -->
<svg width="138pt" height="260pt"
 viewBox="0.00 0.00 137.61 260.00" xmlns="http://www.w3.org/2000/svg" xmlns:xlink="http://www.w3.org/1999/xlink">
<g id="graph0" class="graph" transform="scale(1 1) rotate(0) translate(4 256)">
<polygon fill="white" stroke="none" points="-4,4 -4,-256 133.61,-256 133.61,4 -4,4"/>
<!-- 0 -->
<g id="node1" class="node">
<title>0</title>
<ellipse fill="none" stroke="black" cx="65.61" cy="-234" rx="27" ry="18"/>
<text text-anchor="middle" x="65.61" y="-228.57" font-family="Times New Roman,serif" font-size="14.00">tanh</text>
</g>
<!-- 1 -->
<g id="node2" class="node">
<title>1</title>
<ellipse fill="none" stroke="black" cx="65.61" cy="-162" rx="27" ry="18"/>
<text text-anchor="middle" x="65.61" y="-156.57" font-family="Times New Roman,serif" font-size="14.00">+</text>
</g>
<!-- 0&#45;&gt;1 -->
<g id="edge1" class="edge">
<title>0&#45;&gt;1</title>
<path fill="none" stroke="black" d="M65.61,-215.7C65.61,-208.41 65.61,-199.73 65.61,-191.54"/>
<polygon fill="black" stroke="black" points="69.11,-191.62 65.61,-181.62 62.11,-191.62 69.11,-191.62"/>
</g>
<!-- 2 -->
<g id="node3" class="node">
<title>2</title>
<ellipse fill="none" stroke="black" cx="28.61" cy="-90" rx="28.61" ry="18"/>
<text text-anchor="middle" x="28.61" y="-84.58" font-family="Times New Roman,serif" font-size="14.00">cube</text>
</g>
<!-- 1&#45;&gt;2 -->
<g id="edge2" class="edge">
<title>1&#45;&gt;2</title>
<path fill="none" stroke="black" d="M57.03,-144.76C52.79,-136.75 47.57,-126.88 42.77,-117.79"/>
<polygon fill="black" stroke="black" points="45.88,-116.18 38.11,-108.97 39.69,-119.45 45.88,-116.18"/>
</g>
<!-- 4 -->
<g id="node4" class="node">
<title>4</title>
<ellipse fill="none" stroke="black" cx="102.61" cy="-90" rx="27" ry="18"/>
<text text-anchor="middle" x="102.61" y="-84.58" font-family="Times New Roman,serif" font-size="14.00">x</text>
</g>
<!-- 1&#45;&gt;4 -->
<g id="edge3" class="edge">
<title>1&#45;&gt;4</title>
<path fill="none" stroke="black" d="M74.19,-144.76C78.53,-136.55 83.91,-126.37 88.82,-117.09"/>
<polygon fill="black" stroke="black" points="91.79,-118.96 93.37,-108.49 85.6,-115.69 91.79,-118.96"/>
</g>
<!-- 3 -->
<g id="node5" class="node">
<title>3</title>
<ellipse fill="none" stroke="black" cx="28.61" cy="-18" rx="27" ry="18"/>
<text text-anchor="middle" x="28.61" y="-12.57" font-family="Times New Roman,serif" font-size="14.00">x</text>
</g>
<!-- 2&#45;&gt;3 -->
<g id="edge4" class="edge">
<title>2&#45;&gt;3</title>
<path fill="none" stroke="black" d="M28.61,-71.7C28.61,-64.41 28.61,-55.73 28.61,-47.54"/>
<polygon fill="black" stroke="black" points="32.11,-47.62 28.61,-37.62 25.11,-47.62 32.11,-47.62"/>
</g>
</g>
</svg>
