<?xml version="1.0" encoding="UTF-8" standalone="no"?>
<!DOCTYPE svg PUBLIC "-//W3C//DTD SVG 1.1//EN"
 "http://www.w3.org/Graphics/SVG/1.1/DTD/svg11.dtd">
<!-- Generated by graphviz version 10.0.1 (20240210.2158)
 -->
<!-- Pages: 1 -->
<svg width="194pt" height="260pt"
 viewBox="0.00 0.00 194.20 260.00" xmlns="http://www.w3.org/2000/svg" xmlns:xlink="http://www.w3.org/1999/xlink">
<g id="graph0" class="graph" transform="scale(1 1) rotate(0) translate(4 256)">
<polygon fill="white" stroke="none" points="-4,4 -4,-256 190.2,-256 190.2,4 -4,4"/>
<!-- 0 -->
<g id="node1" class="node">
<title>0</title>
<ellipse fill="none" stroke="black" cx="73.1" cy="-234" rx="27" ry="18"/>
<text text-anchor="middle" x="73.1" y="-228.57" font-family="Times New Roman,serif" font-size="14.00">tanh</text>
</g>
<!-- 1 -->
<g id="node2" class="node">
<title>1</title>
<ellipse fill="none" stroke="black" cx="73.1" cy="-162" rx="27" ry="18"/>
<text text-anchor="middle" x="73.1" y="-156.57" font-family="Times New Roman,serif" font-size="14.00">+</text>
</g>
<!-- 0&#45;&gt;1 -->
<g id="edge1" class="edge">
<title>0&#45;&gt;1</title>
<path fill="none" stroke="black" d="M73.1,-215.7C73.1,-208.41 73.1,-199.73 73.1,-191.54"/>
<polygon fill="black" stroke="black" points="76.6,-191.62 73.1,-181.62 69.6,-191.62 76.6,-191.62"/>
</g>
<!-- 2 -->
<g id="node3" class="node">
<title>2</title>
<ellipse fill="none" stroke="black" cx="34.1" cy="-90" rx="34.1" ry="18"/>
<text text-anchor="middle" x="34.1" y="-84.58" font-family="Times New Roman,serif" font-size="14.00">&#45;8.516</text>
</g>
<!-- 1&#45;&gt;2 -->
<g id="edge2" class="edge">
<title>1&#45;&gt;2</title>
<path fill="none" stroke="black" d="M64.05,-144.76C59.54,-136.67 53.97,-126.66 48.86,-117.49"/>
<polygon fill="black" stroke="black" points="52.03,-115.99 44.1,-108.96 45.91,-119.39 52.03,-115.99"/>
</g>
<!-- 3 -->
<g id="node4" class="node">
<title>3</title>
<ellipse fill="none" stroke="black" cx="113.1" cy="-90" rx="27" ry="18"/>
<text text-anchor="middle" x="113.1" y="-84.58" font-family="Times New Roman,serif" font-size="14.00">+</text>
</g>
<!-- 1&#45;&gt;3 -->
<g id="edge3" class="edge">
<title>1&#45;&gt;3</title>
<path fill="none" stroke="black" d="M82.38,-144.76C87.07,-136.55 92.88,-126.37 98.19,-117.09"/>
<polygon fill="black" stroke="black" points="101.2,-118.88 103.12,-108.46 95.12,-115.41 101.2,-118.88"/>
</g>
<!-- 4 -->
<g id="node5" class="node">
<title>4</title>
<ellipse fill="none" stroke="black" cx="73.1" cy="-18" rx="27" ry="18"/>
<text text-anchor="middle" x="73.1" y="-12.57" font-family="Times New Roman,serif" font-size="14.00">x</text>
</g>
<!-- 3&#45;&gt;4 -->
<g id="edge4" class="edge">
<title>3&#45;&gt;4</title>
<path fill="none" stroke="black" d="M103.82,-72.76C99.13,-64.55 93.31,-54.37 88.01,-45.09"/>
<polygon fill="black" stroke="black" points="91.08,-43.41 83.08,-36.46 85,-46.88 91.08,-43.41"/>
</g>
<!-- 5 -->
<g id="node6" class="node">
<title>5</title>
<ellipse fill="none" stroke="black" cx="152.1" cy="-18" rx="34.1" ry="18"/>
<text text-anchor="middle" x="152.1" y="-12.57" font-family="Times New Roman,serif" font-size="14.00">&#45;0.246</text>
</g>
<!-- 3&#45;&gt;5 -->
<g id="edge5" class="edge">
<title>3&#45;&gt;5</title>
<path fill="none" stroke="black" d="M122.14,-72.76C126.66,-64.67 132.23,-54.66 137.34,-45.49"/>
<polygon fill="black" stroke="black" points="140.28,-47.39 142.09,-36.96 134.17,-43.99 140.28,-47.39"/>
</g>
</g>
</svg>
