<?xml version="1.0" encoding="UTF-8" standalone="no"?>
<!DOCTYPE svg PUBLIC "-//W3C//DTD SVG 1.1//EN"
 "http://www.w3.org/Graphics/SVG/1.1/DTD/svg11.dtd">
<!-- Generated by graphviz version 10.0.1 (20240210.2158)
 -->
<!-- Pages: 1 -->
<svg width="134pt" height="188pt"
 viewBox="0.00 0.00 134.00 188.00" xmlns="http://www.w3.org/2000/svg" xmlns:xlink="http://www.w3.org/1999/xlink">
<g id="graph0" class="graph" transform="scale(1 1) rotate(0) translate(4 184)">
<polygon fill="white" stroke="none" points="-4,4 -4,-184 130,-184 130,4 -4,4"/>
<!-- 0 -->
<g id="node1" class="node">
<title>0</title>
<ellipse fill="none" stroke="black" cx="63" cy="-162" rx="27" ry="18"/>
<text text-anchor="middle" x="63" y="-156.57" font-family="Times New Roman,serif" font-size="14.00">tanh</text>
</g>
<!-- 1 -->
<g id="node2" class="node">
<title>1</title>
<ellipse fill="none" stroke="black" cx="63" cy="-90" rx="27" ry="18"/>
<text text-anchor="middle" x="63" y="-84.58" font-family="Times New Roman,serif" font-size="14.00">+</text>
</g>
<!-- 0&#45;&gt;1 -->
<g id="edge1" class="edge">
<title>0&#45;&gt;1</title>
<path fill="none" stroke="black" d="M63,-143.7C63,-136.41 63,-127.73 63,-119.54"/>
<polygon fill="black" stroke="black" points="66.5,-119.62 63,-109.62 59.5,-119.62 66.5,-119.62"/>
</g>
<!-- 2 -->
<g id="node3" class="node">
<title>2</title>
<ellipse fill="none" stroke="black" cx="27" cy="-18" rx="27" ry="18"/>
<text text-anchor="middle" x="27" y="-12.57" font-family="Times New Roman,serif" font-size="14.00">x</text>
</g>
<!-- 1&#45;&gt;2 -->
<g id="edge2" class="edge">
<title>1&#45;&gt;2</title>
<path fill="none" stroke="black" d="M54.65,-72.76C50.42,-64.55 45.19,-54.37 40.42,-45.09"/>
<polygon fill="black" stroke="black" points="43.68,-43.79 36,-36.49 37.46,-46.99 43.68,-43.79"/>
</g>
<!-- 3 -->
<g id="node4" class="node">
<title>3</title>
<ellipse fill="none" stroke="black" cx="99" cy="-18" rx="27" ry="18"/>
<text text-anchor="middle" x="99" y="-12.57" font-family="Times New Roman,serif" font-size="14.00">x</text>
</g>
<!-- 1&#45;&gt;3 -->
<g id="edge3" class="edge">
<title>1&#45;&gt;3</title>
<path fill="none" stroke="black" d="M71.35,-72.76C75.58,-64.55 80.81,-54.37 85.58,-45.09"/>
<polygon fill="black" stroke="black" points="88.54,-46.99 90,-36.49 82.32,-43.79 88.54,-46.99"/>
</g>
</g>
</svg>
