<?xml version="1.0" encoding="UTF-8" standalone="no"?>
<!DOCTYPE svg PUBLIC "-//W3C//DTD SVG 1.1//EN"
 "http://www.w3.org/Graphics/SVG/1.1/DTD/svg11.dtd">
<!-- Generated by graphviz version 10.0.1 (20240210.2158)
 -->
<!-- Pages: 1 -->
<svg width="209pt" height="188pt"
 viewBox="0.00 0.00 208.61 188.00" xmlns="http://www.w3.org/2000/svg" xmlns:xlink="http://www.w3.org/1999/xlink">
<g id="graph0" class="graph" transform="scale(1 1) rotate(0) translate(4 184)">
<polygon fill="white" stroke="none" points="-4,4 -4,-184 204.61,-184 204.61,4 -4,4"/>
<!-- 0 -->
<g id="node1" class="node">
<title>0</title>
<ellipse fill="none" stroke="black" cx="135" cy="-162" rx="27" ry="18"/>
<text text-anchor="middle" x="135" y="-156.57" font-family="Times New Roman,serif" font-size="14.00">&#45;</text>
</g>
<!-- 1 -->
<g id="node2" class="node">
<title>1</title>
<ellipse fill="none" stroke="black" cx="98" cy="-90" rx="27" ry="18"/>
<text text-anchor="middle" x="98" y="-84.58" font-family="Times New Roman,serif" font-size="14.00">+</text>
</g>
<!-- 0&#45;&gt;1 -->
<g id="edge1" class="edge">
<title>0&#45;&gt;1</title>
<path fill="none" stroke="black" d="M126.42,-144.76C122.08,-136.55 116.7,-126.37 111.79,-117.09"/>
<polygon fill="black" stroke="black" points="115.01,-115.69 107.24,-108.49 108.82,-118.96 115.01,-115.69"/>
</g>
<!-- 4 -->
<g id="node3" class="node">
<title>4</title>
<ellipse fill="none" stroke="black" cx="172" cy="-90" rx="28.61" ry="18"/>
<text text-anchor="middle" x="172" y="-84.58" font-family="Times New Roman,serif" font-size="14.00">cube</text>
</g>
<!-- 0&#45;&gt;4 -->
<g id="edge2" class="edge">
<title>0&#45;&gt;4</title>
<path fill="none" stroke="black" d="M143.58,-144.76C147.82,-136.75 153.04,-126.88 157.84,-117.79"/>
<polygon fill="black" stroke="black" points="160.92,-119.45 162.5,-108.97 154.73,-116.18 160.92,-119.45"/>
</g>
<!-- 2 -->
<g id="node4" class="node">
<title>2</title>
<ellipse fill="none" stroke="black" cx="27" cy="-18" rx="27" ry="18"/>
<text text-anchor="middle" x="27" y="-12.57" font-family="Times New Roman,serif" font-size="14.00">x</text>
</g>
<!-- 1&#45;&gt;2 -->
<g id="edge3" class="edge">
<title>1&#45;&gt;2</title>
<path fill="none" stroke="black" d="M83.29,-74.5C73.58,-64.92 60.66,-52.19 49.66,-41.34"/>
<polygon fill="black" stroke="black" points="52.35,-39.08 42.77,-34.55 47.43,-44.06 52.35,-39.08"/>
</g>
<!-- 3 -->
<g id="node5" class="node">
<title>3</title>
<ellipse fill="none" stroke="black" cx="99" cy="-18" rx="27" ry="18"/>
<text text-anchor="middle" x="99" y="-12.57" font-family="Times New Roman,serif" font-size="14.00">x</text>
</g>
<!-- 1&#45;&gt;3 -->
<g id="edge4" class="edge">
<title>1&#45;&gt;3</title>
<path fill="none" stroke="black" d="M98.25,-71.7C98.35,-64.41 98.48,-55.73 98.59,-47.54"/>
<polygon fill="black" stroke="black" points="102.09,-47.67 98.73,-37.62 95.09,-47.57 102.09,-47.67"/>
</g>
<!-- 5 -->
<g id="node6" class="node">
<title>5</title>
<ellipse fill="none" stroke="black" cx="172" cy="-18" rx="27" ry="18"/>
<text text-anchor="middle" x="172" y="-12.57" font-family="Times New Roman,serif" font-size="14.00">x</text>
</g>
<!-- 4&#45;&gt;5 -->
<g id="edge5" class="edge">
<title>4&#45;&gt;5</title>
<path fill="none" stroke="black" d="M172,-71.7C172,-64.41 172,-55.73 172,-47.54"/>
<polygon fill="black" stroke="black" points="175.5,-47.62 172,-37.62 168.5,-47.62 175.5,-47.62"/>
</g>
</g>
</svg>
