<?xml version="1.0" encoding="UTF-8" standalone="no"?>
<!DOCTYPE svg PUBLIC "-//W3C//DTD SVG 1.1//EN"
 "http://www.w3.org/Graphics/SVG/1.1/DTD/svg11.dtd">
<!-- Generated by graphviz version 2.50.0 (0)
 -->
<!-- Pages: 1 -->
<svg width="222pt" height="260pt"
 viewBox="0.00 0.00 222.09 260.00" xmlns="http://www.w3.org/2000/svg" xmlns:xlink="http://www.w3.org/1999/xlink">
<g id="graph0" class="graph" transform="scale(1 1) rotate(0) translate(4 256)">
<polygon fill="white" stroke="transparent" points="-4,4 -4,-256 218.09,-256 218.09,4 -4,4"/>
<!-- 0 -->
<g id="node1" class="node">
<title>0</title>
<ellipse fill="none" stroke="black" cx="68.55" cy="-234" rx="27" ry="18"/>
<text text-anchor="middle" x="68.55" y="-230.3" font-family="Times New Roman,serif" font-size="14.00">+</text>
</g>
<!-- 1 -->
<g id="node2" class="node">
<title>1</title>
<ellipse fill="none" stroke="black" cx="30.55" cy="-162" rx="30.59" ry="18"/>
<text text-anchor="middle" x="30.55" y="-158.3" font-family="Times New Roman,serif" font-size="14.00">0.959</text>
</g>
<!-- 0&#45;&gt;1 -->
<g id="edge1" class="edge">
<title>0&#45;&gt;1</title>
<path fill="none" stroke="black" d="M59.73,-216.76C55.2,-208.4 49.56,-198.02 44.45,-188.61"/>
<polygon fill="black" stroke="black" points="47.42,-186.75 39.58,-179.63 41.27,-190.09 47.42,-186.75"/>
</g>
<!-- 2 -->
<g id="node3" class="node">
<title>2</title>
<ellipse fill="none" stroke="black" cx="106.55" cy="-162" rx="27" ry="18"/>
<text text-anchor="middle" x="106.55" y="-158.3" font-family="Times New Roman,serif" font-size="14.00">+</text>
</g>
<!-- 0&#45;&gt;2 -->
<g id="edge2" class="edge">
<title>0&#45;&gt;2</title>
<path fill="none" stroke="black" d="M77.36,-216.76C81.97,-208.28 87.7,-197.71 92.87,-188.2"/>
<polygon fill="black" stroke="black" points="96.09,-189.61 97.78,-179.15 89.93,-186.27 96.09,-189.61"/>
</g>
<!-- 3 -->
<g id="node4" class="node">
<title>3</title>
<ellipse fill="none" stroke="black" cx="66.55" cy="-90" rx="33.6" ry="18"/>
<text text-anchor="middle" x="66.55" y="-86.3" font-family="Times New Roman,serif" font-size="14.00">&#45;8.133</text>
</g>
<!-- 2&#45;&gt;3 -->
<g id="edge3" class="edge">
<title>2&#45;&gt;3</title>
<path fill="none" stroke="black" d="M97.27,-144.76C92.49,-136.4 86.56,-126.02 81.18,-116.61"/>
<polygon fill="black" stroke="black" points="84.05,-114.58 76.05,-107.63 77.97,-118.05 84.05,-114.58"/>
</g>
<!-- 4 -->
<g id="node5" class="node">
<title>4</title>
<ellipse fill="none" stroke="black" cx="145.55" cy="-90" rx="27" ry="18"/>
<text text-anchor="middle" x="145.55" y="-86.3" font-family="Times New Roman,serif" font-size="14.00">/</text>
</g>
<!-- 2&#45;&gt;4 -->
<g id="edge4" class="edge">
<title>2&#45;&gt;4</title>
<path fill="none" stroke="black" d="M115.59,-144.76C120.37,-136.19 126.33,-125.49 131.67,-115.9"/>
<polygon fill="black" stroke="black" points="134.74,-117.59 136.55,-107.15 128.63,-114.18 134.74,-117.59"/>
</g>
<!-- 5 -->
<g id="node6" class="node">
<title>5</title>
<ellipse fill="none" stroke="black" cx="107.55" cy="-18" rx="27" ry="18"/>
<text text-anchor="middle" x="107.55" y="-14.3" font-family="Times New Roman,serif" font-size="14.00">x</text>
</g>
<!-- 4&#45;&gt;5 -->
<g id="edge5" class="edge">
<title>4&#45;&gt;5</title>
<path fill="none" stroke="black" d="M136.73,-72.76C132.13,-64.28 126.39,-53.71 121.23,-44.2"/>
<polygon fill="black" stroke="black" points="124.16,-42.27 116.31,-35.15 118.01,-45.61 124.16,-42.27"/>
</g>
<!-- 6 -->
<g id="node7" class="node">
<title>6</title>
<ellipse fill="none" stroke="black" cx="183.55" cy="-18" rx="30.59" ry="18"/>
<text text-anchor="middle" x="183.55" y="-14.3" font-family="Times New Roman,serif" font-size="14.00">1.951</text>
</g>
<!-- 4&#45;&gt;6 -->
<g id="edge6" class="edge">
<title>4&#45;&gt;6</title>
<path fill="none" stroke="black" d="M154.36,-72.76C158.9,-64.4 164.54,-54.02 169.65,-44.61"/>
<polygon fill="black" stroke="black" points="172.82,-46.09 174.52,-35.63 166.67,-42.75 172.82,-46.09"/>
</g>
</g>
</svg>
