<?xml version="1.0" encoding="UTF-8" standalone="no"?>
<!DOCTYPE svg PUBLIC "-//W3C//DTD SVG 1.1//EN"
 "http://www.w3.org/Graphics/SVG/1.1/DTD/svg11.dtd">
<!-- Generated by graphviz version 2.50.0 (0)
 -->
<!-- Pages: 1 -->
<svg width="221pt" height="188pt"
 viewBox="0.00 0.00 220.55 188.00" xmlns="http://www.w3.org/2000/svg" xmlns:xlink="http://www.w3.org/1999/xlink">
<g id="graph0" class="graph" transform="scale(1 1) rotate(0) translate(4 184)">
<polygon fill="white" stroke="transparent" points="-4,4 -4,-184 216.55,-184 216.55,4 -4,4"/>
<!-- 0 -->
<g id="node1" class="node">
<title>0</title>
<ellipse fill="none" stroke="black" cx="70.55" cy="-162" rx="27" ry="18"/>
<text text-anchor="middle" x="70.55" y="-158.3" font-family="Times New Roman,serif" font-size="14.00">*</text>
</g>
<!-- 1 -->
<g id="node2" class="node">
<title>1</title>
<ellipse fill="none" stroke="black" cx="34.55" cy="-90" rx="27" ry="18"/>
<text text-anchor="middle" x="34.55" y="-86.3" font-family="Times New Roman,serif" font-size="14.00">sin</text>
</g>
<!-- 0&#45;&gt;1 -->
<g id="edge1" class="edge">
<title>0&#45;&gt;1</title>
<path fill="none" stroke="black" d="M62.2,-144.76C57.84,-136.28 52.4,-125.71 47.51,-116.2"/>
<polygon fill="black" stroke="black" points="50.54,-114.44 42.85,-107.15 44.31,-117.64 50.54,-114.44"/>
</g>
<!-- 3 -->
<g id="node3" class="node">
<title>3</title>
<ellipse fill="none" stroke="black" cx="109.55" cy="-90" rx="27" ry="18"/>
<text text-anchor="middle" x="109.55" y="-86.3" font-family="Times New Roman,serif" font-size="14.00">+</text>
</g>
<!-- 0&#45;&gt;3 -->
<g id="edge2" class="edge">
<title>0&#45;&gt;3</title>
<path fill="none" stroke="black" d="M79.59,-144.76C84.37,-136.19 90.33,-125.49 95.67,-115.9"/>
<polygon fill="black" stroke="black" points="98.74,-117.59 100.55,-107.15 92.63,-114.18 98.74,-117.59"/>
</g>
<!-- 2 -->
<g id="node4" class="node">
<title>2</title>
<ellipse fill="none" stroke="black" cx="30.55" cy="-18" rx="30.59" ry="18"/>
<text text-anchor="middle" x="30.55" y="-14.3" font-family="Times New Roman,serif" font-size="14.00">7.535</text>
</g>
<!-- 1&#45;&gt;2 -->
<g id="edge3" class="edge">
<title>1&#45;&gt;2</title>
<path fill="none" stroke="black" d="M33.56,-71.7C33.12,-63.98 32.59,-54.71 32.1,-46.11"/>
<polygon fill="black" stroke="black" points="35.59,-45.89 31.52,-36.1 28.6,-46.29 35.59,-45.89"/>
</g>
<!-- 4 -->
<g id="node5" class="node">
<title>4</title>
<ellipse fill="none" stroke="black" cx="109.55" cy="-18" rx="30.59" ry="18"/>
<text text-anchor="middle" x="109.55" y="-14.3" font-family="Times New Roman,serif" font-size="14.00">0.907</text>
</g>
<!-- 3&#45;&gt;4 -->
<g id="edge4" class="edge">
<title>3&#45;&gt;4</title>
<path fill="none" stroke="black" d="M109.55,-71.7C109.55,-63.98 109.55,-54.71 109.55,-46.11"/>
<polygon fill="black" stroke="black" points="113.05,-46.1 109.55,-36.1 106.05,-46.1 113.05,-46.1"/>
</g>
<!-- 5 -->
<g id="node6" class="node">
<title>5</title>
<ellipse fill="none" stroke="black" cx="185.55" cy="-18" rx="27" ry="18"/>
<text text-anchor="middle" x="185.55" y="-14.3" font-family="Times New Roman,serif" font-size="14.00">x</text>
</g>
<!-- 3&#45;&gt;5 -->
<g id="edge5" class="edge">
<title>3&#45;&gt;5</title>
<path fill="none" stroke="black" d="M124.93,-74.83C135.74,-64.87 150.4,-51.37 162.6,-40.14"/>
<polygon fill="black" stroke="black" points="165.21,-42.49 170.19,-33.14 160.46,-37.34 165.21,-42.49"/>
</g>
</g>
</svg>
