<?xml version="1.0" encoding="UTF-8" standalone="no"?>
<!DOCTYPE svg PUBLIC "-//W3C//DTD SVG 1.1//EN"
 "http://www.w3.org/Graphics/SVG/1.1/DTD/svg11.dtd">
<!-- Generated by graphviz version 2.50.0 (0)
 -->
<!-- Pages: 1 -->
<svg width="227pt" height="188pt"
 viewBox="0.00 0.00 226.55 188.00" xmlns="http://www.w3.org/2000/svg" xmlns:xlink="http://www.w3.org/1999/xlink">
<g id="graph0" class="graph" transform="scale(1 1) rotate(0) translate(4 184)">
<polygon fill="white" stroke="transparent" points="-4,4 -4,-184 222.55,-184 222.55,4 -4,4"/>
<!-- 0 -->
<g id="node1" class="node">
<title>0</title>
<ellipse fill="none" stroke="black" cx="142" cy="-162" rx="27" ry="18"/>
<text text-anchor="middle" x="142" y="-158.3" font-family="Times New Roman,serif" font-size="14.00">/</text>
</g>
<!-- 1 -->
<g id="node2" class="node">
<title>1</title>
<ellipse fill="none" stroke="black" cx="106" cy="-90" rx="27" ry="18"/>
<text text-anchor="middle" x="106" y="-86.3" font-family="Times New Roman,serif" font-size="14.00">&#45;</text>
</g>
<!-- 0&#45;&gt;1 -->
<g id="edge1" class="edge">
<title>0&#45;&gt;1</title>
<path fill="none" stroke="black" d="M133.65,-144.76C129.29,-136.28 123.85,-125.71 118.96,-116.2"/>
<polygon fill="black" stroke="black" points="121.99,-114.44 114.3,-107.15 115.77,-117.64 121.99,-114.44"/>
</g>
<!-- 4 -->
<g id="node3" class="node">
<title>4</title>
<ellipse fill="none" stroke="black" cx="183" cy="-90" rx="27" ry="18"/>
<text text-anchor="middle" x="183" y="-86.3" font-family="Times New Roman,serif" font-size="14.00">log</text>
</g>
<!-- 0&#45;&gt;4 -->
<g id="edge2" class="edge">
<title>0&#45;&gt;4</title>
<path fill="none" stroke="black" d="M151.51,-144.76C156.53,-136.19 162.8,-125.49 168.42,-115.9"/>
<polygon fill="black" stroke="black" points="171.51,-117.55 173.54,-107.15 165.47,-114.01 171.51,-117.55"/>
</g>
<!-- 2 -->
<g id="node4" class="node">
<title>2</title>
<ellipse fill="none" stroke="black" cx="27" cy="-18" rx="27" ry="18"/>
<text text-anchor="middle" x="27" y="-14.3" font-family="Times New Roman,serif" font-size="14.00">x</text>
</g>
<!-- 1&#45;&gt;2 -->
<g id="edge3" class="edge">
<title>1&#45;&gt;2</title>
<path fill="none" stroke="black" d="M90.39,-75.17C78.92,-65.01 63.15,-51.03 50.21,-39.56"/>
<polygon fill="black" stroke="black" points="52.38,-36.81 42.58,-32.8 47.74,-42.05 52.38,-36.81"/>
</g>
<!-- 3 -->
<g id="node5" class="node">
<title>3</title>
<ellipse fill="none" stroke="black" cx="106" cy="-18" rx="33.6" ry="18"/>
<text text-anchor="middle" x="106" y="-14.3" font-family="Times New Roman,serif" font-size="14.00">&#45;6.976</text>
</g>
<!-- 1&#45;&gt;3 -->
<g id="edge4" class="edge">
<title>1&#45;&gt;3</title>
<path fill="none" stroke="black" d="M106,-71.7C106,-63.98 106,-54.71 106,-46.11"/>
<polygon fill="black" stroke="black" points="109.5,-46.1 106,-36.1 102.5,-46.1 109.5,-46.1"/>
</g>
<!-- 5 -->
<g id="node6" class="node">
<title>5</title>
<ellipse fill="none" stroke="black" cx="188" cy="-18" rx="30.59" ry="18"/>
<text text-anchor="middle" x="188" y="-14.3" font-family="Times New Roman,serif" font-size="14.00">7.198</text>
</g>
<!-- 4&#45;&gt;5 -->
<g id="edge5" class="edge">
<title>4&#45;&gt;5</title>
<path fill="none" stroke="black" d="M184.24,-71.7C184.79,-63.98 185.45,-54.71 186.06,-46.11"/>
<polygon fill="black" stroke="black" points="189.56,-46.33 186.78,-36.1 182.57,-45.83 189.56,-46.33"/>
</g>
</g>
</svg>
