<?xml version="1.0" encoding="UTF-8" standalone="no"?>
<!DOCTYPE svg PUBLIC "-//W3C//DTD SVG 1.1//EN"
 "http://www.w3.org/Graphics/SVG/1.1/DTD/svg11.dtd">
<!-- Generated by graphviz version 10.0.1 (20240210.2158)
 -->
<!-- Pages: 1 -->
<svg width="181pt" height="260pt"
 viewBox="0.00 0.00 181.10 260.00" xmlns="http://www.w3.org/2000/svg" xmlns:xlink="http://www.w3.org/1999/xlink">
<g id="graph0" class="graph" transform="scale(1 1) rotate(0) translate(4 256)">
<polygon fill="white" stroke="none" points="-4,4 -4,-256 177.1,-256 177.1,4 -4,4"/>
<!-- 0 -->
<g id="node1" class="node">
<title>0</title>
<ellipse fill="none" stroke="black" cx="69.1" cy="-234" rx="27" ry="18"/>
<text text-anchor="middle" x="69.1" y="-228.57" font-family="Times New Roman,serif" font-size="14.00">cos</text>
</g>
<!-- 1 -->
<g id="node2" class="node">
<title>1</title>
<ellipse fill="none" stroke="black" cx="69.1" cy="-162" rx="27" ry="18"/>
<text text-anchor="middle" x="69.1" y="-156.57" font-family="Times New Roman,serif" font-size="14.00">&#45;</text>
</g>
<!-- 0&#45;&gt;1 -->
<g id="edge1" class="edge">
<title>0&#45;&gt;1</title>
<path fill="none" stroke="black" d="M69.1,-215.7C69.1,-208.41 69.1,-199.73 69.1,-191.54"/>
<polygon fill="black" stroke="black" points="72.6,-191.62 69.1,-181.62 65.6,-191.62 72.6,-191.62"/>
</g>
<!-- 2 -->
<g id="node3" class="node">
<title>2</title>
<ellipse fill="none" stroke="black" cx="31.1" cy="-90" rx="31.1" ry="18"/>
<text text-anchor="middle" x="31.1" y="-84.58" font-family="Times New Roman,serif" font-size="14.00">9.084</text>
</g>
<!-- 1&#45;&gt;2 -->
<g id="edge2" class="edge">
<title>1&#45;&gt;2</title>
<path fill="none" stroke="black" d="M60.29,-144.76C55.89,-136.67 50.46,-126.66 45.48,-117.49"/>
<polygon fill="black" stroke="black" points="48.7,-116.08 40.86,-108.96 42.55,-119.42 48.7,-116.08"/>
</g>
<!-- 3 -->
<g id="node4" class="node">
<title>3</title>
<ellipse fill="none" stroke="black" cx="107.1" cy="-90" rx="27" ry="18"/>
<text text-anchor="middle" x="107.1" y="-84.58" font-family="Times New Roman,serif" font-size="14.00">*</text>
</g>
<!-- 1&#45;&gt;3 -->
<g id="edge3" class="edge">
<title>1&#45;&gt;3</title>
<path fill="none" stroke="black" d="M77.92,-144.76C82.38,-136.55 87.9,-126.37 92.94,-117.09"/>
<polygon fill="black" stroke="black" points="95.92,-118.94 97.62,-108.48 89.77,-115.6 95.92,-118.94"/>
</g>
<!-- 4 -->
<g id="node5" class="node">
<title>4</title>
<ellipse fill="none" stroke="black" cx="67.1" cy="-18" rx="34.1" ry="18"/>
<text text-anchor="middle" x="67.1" y="-12.57" font-family="Times New Roman,serif" font-size="14.00">&#45;1.798</text>
</g>
<!-- 3&#45;&gt;4 -->
<g id="edge4" class="edge">
<title>3&#45;&gt;4</title>
<path fill="none" stroke="black" d="M97.83,-72.76C93.2,-64.67 87.48,-54.66 82.24,-45.49"/>
<polygon fill="black" stroke="black" points="85.36,-43.89 77.36,-36.95 79.28,-47.37 85.36,-43.89"/>
</g>
<!-- 5 -->
<g id="node6" class="node">
<title>5</title>
<ellipse fill="none" stroke="black" cx="146.1" cy="-18" rx="27" ry="18"/>
<text text-anchor="middle" x="146.1" y="-12.57" font-family="Times New Roman,serif" font-size="14.00">x</text>
</g>
<!-- 3&#45;&gt;5 -->
<g id="edge5" class="edge">
<title>3&#45;&gt;5</title>
<path fill="none" stroke="black" d="M116.15,-72.76C120.73,-64.55 126.4,-54.37 131.57,-45.09"/>
<polygon fill="black" stroke="black" points="134.56,-46.91 136.37,-36.47 128.45,-43.5 134.56,-46.91"/>
</g>
</g>
</svg>
