<?xml version="1.0" encoding="UTF-8" standalone="no"?>
<!DOCTYPE svg PUBLIC "-//W3C//DTD SVG 1.1//EN"
 "http://www.w3.org/Graphics/SVG/1.1/DTD/svg11.dtd">
<!-- Generated by graphviz version 10.0.1 (20240210.2158)
 -->
<!-- Pages: 1 -->
<svg width="148pt" height="260pt"
 viewBox="0.00 0.00 148.10 260.00" xmlns="http://www.w3.org/2000/svg" xmlns:xlink="http://www.w3.org/1999/xlink">
<g id="graph0" class="graph" transform="scale(1 1) rotate(0) translate(4 256)">
<polygon fill="white" stroke="none" points="-4,4 -4,-256 144.1,-256 144.1,4 -4,4"/>
<!-- 0 -->
<g id="node1" class="node">
<title>0</title>
<ellipse fill="none" stroke="black" cx="66" cy="-234" rx="27" ry="18"/>
<text text-anchor="middle" x="66" y="-228.57" font-family="Times New Roman,serif" font-size="14.00">tanh</text>
</g>
<!-- 1 -->
<g id="node2" class="node">
<title>1</title>
<ellipse fill="none" stroke="black" cx="66" cy="-162" rx="29.61" ry="18"/>
<text text-anchor="middle" x="66" y="-156.57" font-family="Times New Roman,serif" font-size="14.00">quart</text>
</g>
<!-- 0&#45;&gt;1 -->
<g id="edge1" class="edge">
<title>0&#45;&gt;1</title>
<path fill="none" stroke="black" d="M66,-215.7C66,-208.41 66,-199.73 66,-191.54"/>
<polygon fill="black" stroke="black" points="69.5,-191.62 66,-181.62 62.5,-191.62 69.5,-191.62"/>
</g>
<!-- 2 -->
<g id="node3" class="node">
<title>2</title>
<ellipse fill="none" stroke="black" cx="66" cy="-90" rx="27" ry="18"/>
<text text-anchor="middle" x="66" y="-84.58" font-family="Times New Roman,serif" font-size="14.00">*</text>
</g>
<!-- 1&#45;&gt;2 -->
<g id="edge2" class="edge">
<title>1&#45;&gt;2</title>
<path fill="none" stroke="black" d="M66,-143.7C66,-136.41 66,-127.73 66,-119.54"/>
<polygon fill="black" stroke="black" points="69.5,-119.62 66,-109.62 62.5,-119.62 69.5,-119.62"/>
</g>
<!-- 3 -->
<g id="node4" class="node">
<title>3</title>
<ellipse fill="none" stroke="black" cx="27" cy="-18" rx="27" ry="18"/>
<text text-anchor="middle" x="27" y="-12.57" font-family="Times New Roman,serif" font-size="14.00">x</text>
</g>
<!-- 2&#45;&gt;3 -->
<g id="edge3" class="edge">
<title>2&#45;&gt;3</title>
<path fill="none" stroke="black" d="M56.95,-72.76C52.38,-64.55 46.71,-54.37 41.54,-45.09"/>
<polygon fill="black" stroke="black" points="44.66,-43.5 36.73,-36.47 38.54,-46.91 44.66,-43.5"/>
</g>
<!-- 4 -->
<g id="node5" class="node">
<title>4</title>
<ellipse fill="none" stroke="black" cx="106" cy="-18" rx="34.1" ry="18"/>
<text text-anchor="middle" x="106" y="-12.57" font-family="Times New Roman,serif" font-size="14.00">&#45;2.037</text>
</g>
<!-- 2&#45;&gt;4 -->
<g id="edge4" class="edge">
<title>2&#45;&gt;4</title>
<path fill="none" stroke="black" d="M75.28,-72.76C79.91,-64.67 85.62,-54.66 90.86,-45.49"/>
<polygon fill="black" stroke="black" points="93.82,-47.37 95.74,-36.95 87.74,-43.89 93.82,-47.37"/>
</g>
</g>
</svg>
