<?xml version="1.0" encoding="UTF-8" standalone="no"?>
<!DOCTYPE svg PUBLIC "-//W3C//DTD SVG 1.1//EN"
 "http://www.w3.org/Graphics/SVG/1.1/DTD/svg11.dtd">
<!-- Generated by graphviz version 10.0.1 (20240210.2158)
 -->
<!-- Pages: 1 -->
<svg width="172pt" height="260pt"
 viewBox="0.00 0.00 172.00 260.00" xmlns="http://www.w3.org/2000/svg" xmlns:xlink="http://www.w3.org/1999/xlink">
<g id="graph0" class="graph" transform="scale(1 1) rotate(0) translate(4 256)">
<polygon fill="white" stroke="none" points="-4,4 -4,-256 168,-256 168,4 -4,4"/>
<!-- 0 -->
<g id="node1" class="node">
<title>0</title>
<ellipse fill="none" stroke="black" cx="101" cy="-234" rx="27" ry="18"/>
<text text-anchor="middle" x="101" y="-228.57" font-family="Times New Roman,serif" font-size="14.00">tanh</text>
</g>
<!-- 1 -->
<g id="node2" class="node">
<title>1</title>
<ellipse fill="none" stroke="black" cx="101" cy="-162" rx="27" ry="18"/>
<text text-anchor="middle" x="101" y="-156.57" font-family="Times New Roman,serif" font-size="14.00">*</text>
</g>
<!-- 0&#45;&gt;1 -->
<g id="edge1" class="edge">
<title>0&#45;&gt;1</title>
<path fill="none" stroke="black" d="M101,-215.7C101,-208.41 101,-199.73 101,-191.54"/>
<polygon fill="black" stroke="black" points="104.5,-191.62 101,-181.62 97.5,-191.62 104.5,-191.62"/>
</g>
<!-- 2 -->
<g id="node3" class="node">
<title>2</title>
<ellipse fill="none" stroke="black" cx="65" cy="-90" rx="27" ry="18"/>
<text text-anchor="middle" x="65" y="-84.58" font-family="Times New Roman,serif" font-size="14.00">*</text>
</g>
<!-- 1&#45;&gt;2 -->
<g id="edge2" class="edge">
<title>1&#45;&gt;2</title>
<path fill="none" stroke="black" d="M92.65,-144.76C88.42,-136.55 83.19,-126.37 78.42,-117.09"/>
<polygon fill="black" stroke="black" points="81.68,-115.79 74,-108.49 75.46,-118.99 81.68,-115.79"/>
</g>
<!-- 5 -->
<g id="node4" class="node">
<title>5</title>
<ellipse fill="none" stroke="black" cx="137" cy="-90" rx="27" ry="18"/>
<text text-anchor="middle" x="137" y="-84.58" font-family="Times New Roman,serif" font-size="14.00">x</text>
</g>
<!-- 1&#45;&gt;5 -->
<g id="edge3" class="edge">
<title>1&#45;&gt;5</title>
<path fill="none" stroke="black" d="M109.35,-144.76C113.58,-136.55 118.81,-126.37 123.58,-117.09"/>
<polygon fill="black" stroke="black" points="126.54,-118.99 128,-108.49 120.32,-115.79 126.54,-118.99"/>
</g>
<!-- 3 -->
<g id="node5" class="node">
<title>3</title>
<ellipse fill="none" stroke="black" cx="27" cy="-18" rx="27" ry="18"/>
<text text-anchor="middle" x="27" y="-12.57" font-family="Times New Roman,serif" font-size="14.00">x</text>
</g>
<!-- 2&#45;&gt;3 -->
<g id="edge4" class="edge">
<title>2&#45;&gt;3</title>
<path fill="none" stroke="black" d="M56.19,-72.76C51.73,-64.55 46.2,-54.37 41.16,-45.09"/>
<polygon fill="black" stroke="black" points="44.33,-43.6 36.49,-36.48 38.18,-46.94 44.33,-43.6"/>
</g>
<!-- 4 -->
<g id="node6" class="node">
<title>4</title>
<ellipse fill="none" stroke="black" cx="103" cy="-18" rx="31.1" ry="18"/>
<text text-anchor="middle" x="103" y="-12.57" font-family="Times New Roman,serif" font-size="14.00">2.343</text>
</g>
<!-- 2&#45;&gt;4 -->
<g id="edge5" class="edge">
<title>2&#45;&gt;4</title>
<path fill="none" stroke="black" d="M73.81,-72.76C78.21,-64.67 83.64,-54.66 88.62,-45.49"/>
<polygon fill="black" stroke="black" points="91.55,-47.42 93.25,-36.96 85.4,-44.08 91.55,-47.42"/>
</g>
</g>
</svg>
