<?xml version="1.0" encoding="UTF-8" standalone="no"?>
<!DOCTYPE svg PUBLIC "-//W3C//DTD SVG 1.1//EN"
 "http://www.w3.org/Graphics/SVG/1.1/DTD/svg11.dtd">
<!-- Generated by graphviz version 2.50.0 (0)
 -->
<!-- Pages: 1 -->
<svg width="178pt" height="260pt"
 viewBox="0.00 0.00 177.55 260.00" xmlns="http://www.w3.org/2000/svg" xmlns:xlink="http://www.w3.org/1999/xlink">
<g id="graph0" class="graph" transform="scale(1 1) rotate(0) translate(4 256)">
<polygon fill="white" stroke="transparent" points="-4,4 -4,-256 173.55,-256 173.55,4 -4,4"/>
<!-- 0 -->
<g id="node1" class="node">
<title>0</title>
<ellipse fill="none" stroke="black" cx="68.55" cy="-234" rx="27" ry="18"/>
<text text-anchor="middle" x="68.55" y="-230.3" font-family="Times New Roman,serif" font-size="14.00">tanh</text>
</g>
<!-- 1 -->
<g id="node2" class="node">
<title>1</title>
<ellipse fill="none" stroke="black" cx="68.55" cy="-162" rx="27" ry="18"/>
<text text-anchor="middle" x="68.55" y="-158.3" font-family="Times New Roman,serif" font-size="14.00">+</text>
</g>
<!-- 0&#45;&gt;1 -->
<g id="edge1" class="edge">
<title>0&#45;&gt;1</title>
<path fill="none" stroke="black" d="M68.55,-215.7C68.55,-207.98 68.55,-198.71 68.55,-190.11"/>
<polygon fill="black" stroke="black" points="72.05,-190.1 68.55,-180.1 65.05,-190.1 72.05,-190.1"/>
</g>
<!-- 2 -->
<g id="node3" class="node">
<title>2</title>
<ellipse fill="none" stroke="black" cx="30.55" cy="-90" rx="30.59" ry="18"/>
<text text-anchor="middle" x="30.55" y="-86.3" font-family="Times New Roman,serif" font-size="14.00">0.155</text>
</g>
<!-- 1&#45;&gt;2 -->
<g id="edge2" class="edge">
<title>1&#45;&gt;2</title>
<path fill="none" stroke="black" d="M59.73,-144.76C55.2,-136.4 49.56,-126.02 44.45,-116.61"/>
<polygon fill="black" stroke="black" points="47.42,-114.75 39.58,-107.63 41.27,-118.09 47.42,-114.75"/>
</g>
<!-- 3 -->
<g id="node4" class="node">
<title>3</title>
<ellipse fill="none" stroke="black" cx="106.55" cy="-90" rx="27" ry="18"/>
<text text-anchor="middle" x="106.55" y="-86.3" font-family="Times New Roman,serif" font-size="14.00">+</text>
</g>
<!-- 1&#45;&gt;3 -->
<g id="edge3" class="edge">
<title>1&#45;&gt;3</title>
<path fill="none" stroke="black" d="M77.36,-144.76C81.97,-136.28 87.7,-125.71 92.87,-116.2"/>
<polygon fill="black" stroke="black" points="96.09,-117.61 97.78,-107.15 89.93,-114.27 96.09,-117.61"/>
</g>
<!-- 4 -->
<g id="node5" class="node">
<title>4</title>
<ellipse fill="none" stroke="black" cx="70.55" cy="-18" rx="27" ry="18"/>
<text text-anchor="middle" x="70.55" y="-14.3" font-family="Times New Roman,serif" font-size="14.00">x</text>
</g>
<!-- 3&#45;&gt;4 -->
<g id="edge4" class="edge">
<title>3&#45;&gt;4</title>
<path fill="none" stroke="black" d="M98.2,-72.76C93.84,-64.28 88.4,-53.71 83.51,-44.2"/>
<polygon fill="black" stroke="black" points="86.54,-42.44 78.85,-35.15 80.31,-45.64 86.54,-42.44"/>
</g>
<!-- 5 -->
<g id="node6" class="node">
<title>5</title>
<ellipse fill="none" stroke="black" cx="142.55" cy="-18" rx="27" ry="18"/>
<text text-anchor="middle" x="142.55" y="-14.3" font-family="Times New Roman,serif" font-size="14.00">x</text>
</g>
<!-- 3&#45;&gt;5 -->
<g id="edge5" class="edge">
<title>3&#45;&gt;5</title>
<path fill="none" stroke="black" d="M114.9,-72.76C119.26,-64.28 124.69,-53.71 129.59,-44.2"/>
<polygon fill="black" stroke="black" points="132.78,-45.64 134.24,-35.15 126.56,-42.44 132.78,-45.64"/>
</g>
</g>
</svg>
