<?xml version="1.0" encoding="UTF-8" standalone="no"?>
<!DOCTYPE svg PUBLIC "-//W3C//DTD SVG 1.1//EN"
 "http://www.w3.org/Graphics/SVG/1.1/DTD/svg11.dtd">
<!-- Generated by graphviz version 2.50.0 (0)
 -->
<!-- Pages: 1 -->
<svg width="181pt" height="260pt"
 viewBox="0.00 0.00 181.09 260.00" xmlns="http://www.w3.org/2000/svg" xmlns:xlink="http://www.w3.org/1999/xlink">
<g id="graph0" class="graph" transform="scale(1 1) rotate(0) translate(4 256)">
<polygon fill="white" stroke="transparent" points="-4,4 -4,-256 177.09,-256 177.09,4 -4,4"/>
<!-- 0 -->
<g id="node1" class="node">
<title>0</title>
<ellipse fill="none" stroke="black" cx="104.55" cy="-234" rx="27" ry="18"/>
<text text-anchor="middle" x="104.55" y="-230.3" font-family="Times New Roman,serif" font-size="14.00">&#45;</text>
</g>
<!-- 1 -->
<g id="node2" class="node">
<title>1</title>
<ellipse fill="none" stroke="black" cx="66.55" cy="-162" rx="27" ry="18"/>
<text text-anchor="middle" x="66.55" y="-158.3" font-family="Times New Roman,serif" font-size="14.00">*</text>
</g>
<!-- 0&#45;&gt;1 -->
<g id="edge1" class="edge">
<title>0&#45;&gt;1</title>
<path fill="none" stroke="black" d="M95.73,-216.76C91.13,-208.28 85.39,-197.71 80.23,-188.2"/>
<polygon fill="black" stroke="black" points="83.16,-186.27 75.31,-179.15 77.01,-189.61 83.16,-186.27"/>
</g>
<!-- 5 -->
<g id="node3" class="node">
<title>5</title>
<ellipse fill="none" stroke="black" cx="142.55" cy="-162" rx="30.59" ry="18"/>
<text text-anchor="middle" x="142.55" y="-158.3" font-family="Times New Roman,serif" font-size="14.00">0.209</text>
</g>
<!-- 0&#45;&gt;5 -->
<g id="edge2" class="edge">
<title>0&#45;&gt;5</title>
<path fill="none" stroke="black" d="M113.36,-216.76C117.9,-208.4 123.54,-198.02 128.65,-188.61"/>
<polygon fill="black" stroke="black" points="131.82,-190.09 133.52,-179.63 125.67,-186.75 131.82,-190.09"/>
</g>
<!-- 2 -->
<g id="node4" class="node">
<title>2</title>
<ellipse fill="none" stroke="black" cx="30.55" cy="-90" rx="27" ry="18"/>
<text text-anchor="middle" x="30.55" y="-86.3" font-family="Times New Roman,serif" font-size="14.00">exp</text>
</g>
<!-- 1&#45;&gt;2 -->
<g id="edge3" class="edge">
<title>1&#45;&gt;2</title>
<path fill="none" stroke="black" d="M58.2,-144.76C53.84,-136.28 48.4,-125.71 43.51,-116.2"/>
<polygon fill="black" stroke="black" points="46.54,-114.44 38.85,-107.15 40.31,-117.64 46.54,-114.44"/>
</g>
<!-- 4 -->
<g id="node5" class="node">
<title>4</title>
<ellipse fill="none" stroke="black" cx="102.55" cy="-90" rx="27" ry="18"/>
<text text-anchor="middle" x="102.55" y="-86.3" font-family="Times New Roman,serif" font-size="14.00">x</text>
</g>
<!-- 1&#45;&gt;4 -->
<g id="edge4" class="edge">
<title>1&#45;&gt;4</title>
<path fill="none" stroke="black" d="M74.9,-144.76C79.26,-136.28 84.69,-125.71 89.59,-116.2"/>
<polygon fill="black" stroke="black" points="92.78,-117.64 94.24,-107.15 86.56,-114.44 92.78,-117.64"/>
</g>
<!-- 3 -->
<g id="node6" class="node">
<title>3</title>
<ellipse fill="none" stroke="black" cx="30.55" cy="-18" rx="30.59" ry="18"/>
<text text-anchor="middle" x="30.55" y="-14.3" font-family="Times New Roman,serif" font-size="14.00">0.479</text>
</g>
<!-- 2&#45;&gt;3 -->
<g id="edge5" class="edge">
<title>2&#45;&gt;3</title>
<path fill="none" stroke="black" d="M30.55,-71.7C30.55,-63.98 30.55,-54.71 30.55,-46.11"/>
<polygon fill="black" stroke="black" points="34.05,-46.1 30.55,-36.1 27.05,-46.1 34.05,-46.1"/>
</g>
</g>
</svg>
