<?xml version="1.0" encoding="UTF-8" standalone="no"?>
<!DOCTYPE svg PUBLIC "-//W3C//DTD SVG 1.1//EN"
 "http://www.w3.org/Graphics/SVG/1.1/DTD/svg11.dtd">
<!-- Generated by graphviz version 2.50.0 (0)
 -->
<!-- Pages: 1 -->
<svg width="216pt" height="188pt"
 viewBox="0.00 0.00 215.80 188.00" xmlns="http://www.w3.org/2000/svg" xmlns:xlink="http://www.w3.org/1999/xlink">
<g id="graph0" class="graph" transform="scale(1 1) rotate(0) translate(4 184)">
<polygon fill="white" stroke="transparent" points="-4,4 -4,-184 211.8,-184 211.8,4 -4,4"/>
<!-- 0 -->
<g id="node1" class="node">
<title>0</title>
<ellipse fill="none" stroke="black" cx="134" cy="-162" rx="27" ry="18"/>
<text text-anchor="middle" x="134" y="-158.3" font-family="Times New Roman,serif" font-size="14.00">&#45;</text>
</g>
<!-- 1 -->
<g id="node2" class="node">
<title>1</title>
<ellipse fill="none" stroke="black" cx="95" cy="-90" rx="27" ry="18"/>
<text text-anchor="middle" x="95" y="-86.3" font-family="Times New Roman,serif" font-size="14.00">+</text>
</g>
<!-- 0&#45;&gt;1 -->
<g id="edge1" class="edge">
<title>0&#45;&gt;1</title>
<path fill="none" stroke="black" d="M124.95,-144.76C120.18,-136.19 114.22,-125.49 108.87,-115.9"/>
<polygon fill="black" stroke="black" points="111.92,-114.18 104,-107.15 105.81,-117.59 111.92,-114.18"/>
</g>
<!-- 4 -->
<g id="node3" class="node">
<title>4</title>
<ellipse fill="none" stroke="black" cx="174" cy="-90" rx="33.6" ry="18"/>
<text text-anchor="middle" x="174" y="-86.3" font-family="Times New Roman,serif" font-size="14.00">square</text>
</g>
<!-- 0&#45;&gt;4 -->
<g id="edge2" class="edge">
<title>0&#45;&gt;4</title>
<path fill="none" stroke="black" d="M143.28,-144.76C148.05,-136.4 153.99,-126.02 159.37,-116.61"/>
<polygon fill="black" stroke="black" points="162.57,-118.05 164.5,-107.63 156.49,-114.58 162.57,-118.05"/>
</g>
<!-- 2 -->
<g id="node4" class="node">
<title>2</title>
<ellipse fill="none" stroke="black" cx="27" cy="-18" rx="27" ry="18"/>
<text text-anchor="middle" x="27" y="-14.3" font-family="Times New Roman,serif" font-size="14.00">x</text>
</g>
<!-- 1&#45;&gt;2 -->
<g id="edge3" class="edge">
<title>1&#45;&gt;2</title>
<path fill="none" stroke="black" d="M80.91,-74.5C71.43,-64.73 58.76,-51.69 48.08,-40.7"/>
<polygon fill="black" stroke="black" points="50.55,-38.22 41.07,-33.49 45.53,-43.1 50.55,-38.22"/>
</g>
<!-- 3 -->
<g id="node5" class="node">
<title>3</title>
<ellipse fill="none" stroke="black" cx="99" cy="-18" rx="27" ry="18"/>
<text text-anchor="middle" x="99" y="-14.3" font-family="Times New Roman,serif" font-size="14.00">x</text>
</g>
<!-- 1&#45;&gt;3 -->
<g id="edge4" class="edge">
<title>1&#45;&gt;3</title>
<path fill="none" stroke="black" d="M95.99,-71.7C96.43,-63.98 96.96,-54.71 97.45,-46.11"/>
<polygon fill="black" stroke="black" points="100.95,-46.29 98.02,-36.1 93.96,-45.89 100.95,-46.29"/>
</g>
<!-- 5 -->
<g id="node6" class="node">
<title>5</title>
<ellipse fill="none" stroke="black" cx="174" cy="-18" rx="27" ry="18"/>
<text text-anchor="middle" x="174" y="-14.3" font-family="Times New Roman,serif" font-size="14.00">x</text>
</g>
<!-- 4&#45;&gt;5 -->
<g id="edge5" class="edge">
<title>4&#45;&gt;5</title>
<path fill="none" stroke="black" d="M174,-71.7C174,-63.98 174,-54.71 174,-46.11"/>
<polygon fill="black" stroke="black" points="177.5,-46.1 174,-36.1 170.5,-46.1 177.5,-46.1"/>
</g>
</g>
</svg>
