<?xml version="1.0" encoding="UTF-8" standalone="no"?>
<!DOCTYPE svg PUBLIC "-//W3C//DTD SVG 1.1//EN"
 "http://www.w3.org/Graphics/SVG/1.1/DTD/svg11.dtd">
<!-- Generated by graphviz version 2.50.0 (0)
 -->
<!-- Pages: 1 -->
<svg width="293pt" height="188pt"
 viewBox="0.00 0.00 293.00 188.00" xmlns="http://www.w3.org/2000/svg" xmlns:xlink="http://www.w3.org/1999/xlink">
<g id="graph0" class="graph" transform="scale(1 1) rotate(0) translate(4 184)">
<polygon fill="white" stroke="transparent" points="-4,4 -4,-184 289,-184 289,4 -4,4"/>
<!-- 0 -->
<g id="node1" class="node">
<title>0</title>
<ellipse fill="none" stroke="black" cx="142" cy="-162" rx="27" ry="18"/>
<text text-anchor="middle" x="142" y="-158.3" font-family="Times New Roman,serif" font-size="14.00">+</text>
</g>
<!-- 1 -->
<g id="node2" class="node">
<title>1</title>
<ellipse fill="none" stroke="black" cx="103" cy="-90" rx="27" ry="18"/>
<text text-anchor="middle" x="103" y="-86.3" font-family="Times New Roman,serif" font-size="14.00">*</text>
</g>
<!-- 0&#45;&gt;1 -->
<g id="edge1" class="edge">
<title>0&#45;&gt;1</title>
<path fill="none" stroke="black" d="M132.95,-144.76C128.18,-136.19 122.22,-125.49 116.87,-115.9"/>
<polygon fill="black" stroke="black" points="119.92,-114.18 112,-107.15 113.81,-117.59 119.92,-114.18"/>
</g>
<!-- 4 -->
<g id="node3" class="node">
<title>4</title>
<ellipse fill="none" stroke="black" cx="182" cy="-90" rx="27" ry="18"/>
<text text-anchor="middle" x="182" y="-86.3" font-family="Times New Roman,serif" font-size="14.00">/</text>
</g>
<!-- 0&#45;&gt;4 -->
<g id="edge2" class="edge">
<title>0&#45;&gt;4</title>
<path fill="none" stroke="black" d="M151.28,-144.76C156.17,-136.19 162.29,-125.49 167.77,-115.9"/>
<polygon fill="black" stroke="black" points="170.85,-117.57 172.77,-107.15 164.77,-114.09 170.85,-117.57"/>
</g>
<!-- 2 -->
<g id="node4" class="node">
<title>2</title>
<ellipse fill="none" stroke="black" cx="27" cy="-18" rx="27" ry="18"/>
<text text-anchor="middle" x="27" y="-14.3" font-family="Times New Roman,serif" font-size="14.00">x</text>
</g>
<!-- 1&#45;&gt;2 -->
<g id="edge3" class="edge">
<title>1&#45;&gt;2</title>
<path fill="none" stroke="black" d="M87.62,-74.83C76.8,-64.87 62.14,-51.37 49.95,-40.14"/>
<polygon fill="black" stroke="black" points="52.08,-37.34 42.36,-33.14 47.34,-42.49 52.08,-37.34"/>
</g>
<!-- 3 -->
<g id="node5" class="node">
<title>3</title>
<ellipse fill="none" stroke="black" cx="103" cy="-18" rx="30.59" ry="18"/>
<text text-anchor="middle" x="103" y="-14.3" font-family="Times New Roman,serif" font-size="14.00">7.784</text>
</g>
<!-- 1&#45;&gt;3 -->
<g id="edge4" class="edge">
<title>1&#45;&gt;3</title>
<path fill="none" stroke="black" d="M103,-71.7C103,-63.98 103,-54.71 103,-46.11"/>
<polygon fill="black" stroke="black" points="106.5,-46.1 103,-36.1 99.5,-46.1 106.5,-46.1"/>
</g>
<!-- 5 -->
<g id="node6" class="node">
<title>5</title>
<ellipse fill="none" stroke="black" cx="182" cy="-18" rx="30.59" ry="18"/>
<text text-anchor="middle" x="182" y="-14.3" font-family="Times New Roman,serif" font-size="14.00">1.852</text>
</g>
<!-- 4&#45;&gt;5 -->
<g id="edge5" class="edge">
<title>4&#45;&gt;5</title>
<path fill="none" stroke="black" d="M182,-71.7C182,-63.98 182,-54.71 182,-46.11"/>
<polygon fill="black" stroke="black" points="185.5,-46.1 182,-36.1 178.5,-46.1 185.5,-46.1"/>
</g>
<!-- 6 -->
<g id="node7" class="node">
<title>6</title>
<ellipse fill="none" stroke="black" cx="258" cy="-18" rx="27" ry="18"/>
<text text-anchor="middle" x="258" y="-14.3" font-family="Times New Roman,serif" font-size="14.00">x</text>
</g>
<!-- 4&#45;&gt;6 -->
<g id="edge6" class="edge">
<title>4&#45;&gt;6</title>
<path fill="none" stroke="black" d="M197.38,-74.83C208.2,-64.87 222.86,-51.37 235.05,-40.14"/>
<polygon fill="black" stroke="black" points="237.66,-42.49 242.64,-33.14 232.92,-37.34 237.66,-42.49"/>
</g>
</g>
</svg>
