<?xml version="1.0" encoding="UTF-8" standalone="no"?>
<!DOCTYPE svg PUBLIC "-//W3C//DTD SVG 1.1//EN"
 "http://www.w3.org/Graphics/SVG/1.1/DTD/svg11.dtd">
<!-- Generated by graphviz version 2.50.0 (0)
 -->
<!-- Pages: 1 -->
<svg width="219pt" height="260pt"
 viewBox="0.00 0.00 218.55 260.00" xmlns="http://www.w3.org/2000/svg" xmlns:xlink="http://www.w3.org/1999/xlink">
<g id="graph0" class="graph" transform="scale(1 1) rotate(0) translate(4 256)">
<polygon fill="white" stroke="transparent" points="-4,4 -4,-256 214.55,-256 214.55,4 -4,4"/>
<!-- 0 -->
<g id="node1" class="node">
<title>0</title>
<ellipse fill="none" stroke="black" cx="142" cy="-234" rx="27" ry="18"/>
<text text-anchor="middle" x="142" y="-230.3" font-family="Times New Roman,serif" font-size="14.00">+</text>
</g>
<!-- 1 -->
<g id="node2" class="node">
<title>1</title>
<ellipse fill="none" stroke="black" cx="104" cy="-162" rx="27" ry="18"/>
<text text-anchor="middle" x="104" y="-158.3" font-family="Times New Roman,serif" font-size="14.00">*</text>
</g>
<!-- 0&#45;&gt;1 -->
<g id="edge1" class="edge">
<title>0&#45;&gt;1</title>
<path fill="none" stroke="black" d="M133.19,-216.76C128.58,-208.28 122.84,-197.71 117.68,-188.2"/>
<polygon fill="black" stroke="black" points="120.61,-186.27 112.77,-179.15 114.46,-189.61 120.61,-186.27"/>
</g>
<!-- 6 -->
<g id="node3" class="node">
<title>6</title>
<ellipse fill="none" stroke="black" cx="180" cy="-162" rx="30.59" ry="18"/>
<text text-anchor="middle" x="180" y="-158.3" font-family="Times New Roman,serif" font-size="14.00">0.242</text>
</g>
<!-- 0&#45;&gt;6 -->
<g id="edge2" class="edge">
<title>0&#45;&gt;6</title>
<path fill="none" stroke="black" d="M150.81,-216.76C155.35,-208.4 160.99,-198.02 166.1,-188.61"/>
<polygon fill="black" stroke="black" points="169.28,-190.09 170.97,-179.63 163.12,-186.75 169.28,-190.09"/>
</g>
<!-- 2 -->
<g id="node4" class="node">
<title>2</title>
<ellipse fill="none" stroke="black" cx="66" cy="-90" rx="27" ry="18"/>
<text text-anchor="middle" x="66" y="-86.3" font-family="Times New Roman,serif" font-size="14.00">&#45;</text>
</g>
<!-- 1&#45;&gt;2 -->
<g id="edge3" class="edge">
<title>1&#45;&gt;2</title>
<path fill="none" stroke="black" d="M95.19,-144.76C90.58,-136.28 84.84,-125.71 79.68,-116.2"/>
<polygon fill="black" stroke="black" points="82.61,-114.27 74.77,-107.15 76.46,-117.61 82.61,-114.27"/>
</g>
<!-- 5 -->
<g id="node5" class="node">
<title>5</title>
<ellipse fill="none" stroke="black" cx="142" cy="-90" rx="30.59" ry="18"/>
<text text-anchor="middle" x="142" y="-86.3" font-family="Times New Roman,serif" font-size="14.00">0.794</text>
</g>
<!-- 1&#45;&gt;5 -->
<g id="edge4" class="edge">
<title>1&#45;&gt;5</title>
<path fill="none" stroke="black" d="M112.81,-144.76C117.35,-136.4 122.99,-126.02 128.1,-116.61"/>
<polygon fill="black" stroke="black" points="131.28,-118.09 132.97,-107.63 125.12,-114.75 131.28,-118.09"/>
</g>
<!-- 3 -->
<g id="node6" class="node">
<title>3</title>
<ellipse fill="none" stroke="black" cx="27" cy="-18" rx="27" ry="18"/>
<text text-anchor="middle" x="27" y="-14.3" font-family="Times New Roman,serif" font-size="14.00">x</text>
</g>
<!-- 2&#45;&gt;3 -->
<g id="edge5" class="edge">
<title>2&#45;&gt;3</title>
<path fill="none" stroke="black" d="M56.95,-72.76C52.18,-64.19 46.22,-53.49 40.87,-43.9"/>
<polygon fill="black" stroke="black" points="43.92,-42.18 36,-35.15 37.81,-45.59 43.92,-42.18"/>
</g>
<!-- 4 -->
<g id="node7" class="node">
<title>4</title>
<ellipse fill="none" stroke="black" cx="106" cy="-18" rx="33.6" ry="18"/>
<text text-anchor="middle" x="106" y="-14.3" font-family="Times New Roman,serif" font-size="14.00">&#45;2.745</text>
</g>
<!-- 2&#45;&gt;4 -->
<g id="edge6" class="edge">
<title>2&#45;&gt;4</title>
<path fill="none" stroke="black" d="M75.28,-72.76C80.05,-64.4 85.99,-54.02 91.37,-44.61"/>
<polygon fill="black" stroke="black" points="94.57,-46.05 96.5,-35.63 88.49,-42.58 94.57,-46.05"/>
</g>
</g>
</svg>
