<?xml version="1.0" encoding="UTF-8" standalone="no"?>
<!DOCTYPE svg PUBLIC "-//W3C//DTD SVG 1.1//EN"
 "http://www.w3.org/Graphics/SVG/1.1/DTD/svg11.dtd">
<!-- Generated by graphviz version 2.50.0 (0)
 -->
<!-- Pages: 1 -->
<svg width="227pt" height="260pt"
 viewBox="0.00 0.00 227.34 260.00" xmlns="http://www.w3.org/2000/svg" xmlns:xlink="http://www.w3.org/1999/xlink">
<g id="graph0" class="graph" transform="scale(1 1) rotate(0) translate(4 256)">
<polygon fill="white" stroke="transparent" points="-4,4 -4,-256 223.34,-256 223.34,4 -4,4"/>
<!-- 0 -->
<g id="node1" class="node">
<title>0</title>
<ellipse fill="none" stroke="black" cx="72.8" cy="-234" rx="27" ry="18"/>
<text text-anchor="middle" x="72.8" y="-230.3" font-family="Times New Roman,serif" font-size="14.00">+</text>
</g>
<!-- 1 -->
<g id="node2" class="node">
<title>1</title>
<ellipse fill="none" stroke="black" cx="33.8" cy="-162" rx="33.6" ry="18"/>
<text text-anchor="middle" x="33.8" y="-158.3" font-family="Times New Roman,serif" font-size="14.00">&#45;1.492</text>
</g>
<!-- 0&#45;&gt;1 -->
<g id="edge1" class="edge">
<title>0&#45;&gt;1</title>
<path fill="none" stroke="black" d="M63.75,-216.76C59.09,-208.4 53.31,-198.02 48.06,-188.61"/>
<polygon fill="black" stroke="black" points="50.99,-186.67 43.06,-179.63 44.87,-190.07 50.99,-186.67"/>
</g>
<!-- 2 -->
<g id="node3" class="node">
<title>2</title>
<ellipse fill="none" stroke="black" cx="112.8" cy="-162" rx="27" ry="18"/>
<text text-anchor="middle" x="112.8" y="-158.3" font-family="Times New Roman,serif" font-size="14.00">/</text>
</g>
<!-- 0&#45;&gt;2 -->
<g id="edge2" class="edge">
<title>0&#45;&gt;2</title>
<path fill="none" stroke="black" d="M82.07,-216.76C86.97,-208.19 93.09,-197.49 98.57,-187.9"/>
<polygon fill="black" stroke="black" points="101.65,-189.57 103.57,-179.15 95.57,-186.09 101.65,-189.57"/>
</g>
<!-- 3 -->
<g id="node4" class="node">
<title>3</title>
<ellipse fill="none" stroke="black" cx="74.8" cy="-90" rx="30.59" ry="18"/>
<text text-anchor="middle" x="74.8" y="-86.3" font-family="Times New Roman,serif" font-size="14.00">9.763</text>
</g>
<!-- 2&#45;&gt;3 -->
<g id="edge3" class="edge">
<title>2&#45;&gt;3</title>
<path fill="none" stroke="black" d="M103.98,-144.76C99.45,-136.4 93.81,-126.02 88.7,-116.61"/>
<polygon fill="black" stroke="black" points="91.67,-114.75 83.83,-107.63 85.52,-118.09 91.67,-114.75"/>
</g>
<!-- 4 -->
<g id="node5" class="node">
<title>4</title>
<ellipse fill="none" stroke="black" cx="150.8" cy="-90" rx="27" ry="18"/>
<text text-anchor="middle" x="150.8" y="-86.3" font-family="Times New Roman,serif" font-size="14.00">+</text>
</g>
<!-- 2&#45;&gt;4 -->
<g id="edge4" class="edge">
<title>2&#45;&gt;4</title>
<path fill="none" stroke="black" d="M121.61,-144.76C126.21,-136.28 131.95,-125.71 137.12,-116.2"/>
<polygon fill="black" stroke="black" points="140.34,-117.61 142.03,-107.15 134.18,-114.27 140.34,-117.61"/>
</g>
<!-- 5 -->
<g id="node6" class="node">
<title>5</title>
<ellipse fill="none" stroke="black" cx="112.8" cy="-18" rx="27" ry="18"/>
<text text-anchor="middle" x="112.8" y="-14.3" font-family="Times New Roman,serif" font-size="14.00">x</text>
</g>
<!-- 4&#45;&gt;5 -->
<g id="edge5" class="edge">
<title>4&#45;&gt;5</title>
<path fill="none" stroke="black" d="M141.98,-72.76C137.38,-64.28 131.64,-53.71 126.48,-44.2"/>
<polygon fill="black" stroke="black" points="129.41,-42.27 121.56,-35.15 123.26,-45.61 129.41,-42.27"/>
</g>
<!-- 6 -->
<g id="node7" class="node">
<title>6</title>
<ellipse fill="none" stroke="black" cx="188.8" cy="-18" rx="30.59" ry="18"/>
<text text-anchor="middle" x="188.8" y="-14.3" font-family="Times New Roman,serif" font-size="14.00">1.843</text>
</g>
<!-- 4&#45;&gt;6 -->
<g id="edge6" class="edge">
<title>4&#45;&gt;6</title>
<path fill="none" stroke="black" d="M159.61,-72.76C164.15,-64.4 169.79,-54.02 174.9,-44.61"/>
<polygon fill="black" stroke="black" points="178.07,-46.09 179.77,-35.63 171.92,-42.75 178.07,-46.09"/>
</g>
</g>
</svg>
