<?xml version="1.0" encoding="UTF-8" standalone="no"?>
<!DOCTYPE svg PUBLIC "-//W3C//DTD SVG 1.1//EN"
 "http://www.w3.org/Graphics/SVG/1.1/DTD/svg11.dtd">
<!-- Generated by graphviz version 2.50.0 (0)
 -->
<!-- Pages: 1 -->
<svg width="216pt" height="260pt"
 viewBox="0.00 0.00 215.80 260.00" xmlns="http://www.w3.org/2000/svg" xmlns:xlink="http://www.w3.org/1999/xlink">
<g id="graph0" class="graph" transform="scale(1 1) rotate(0) translate(4 256)">
<polygon fill="white" stroke="transparent" points="-4,4 -4,-256 211.8,-256 211.8,4 -4,4"/>
<!-- 0 -->
<g id="node1" class="node">
<title>0</title>
<ellipse fill="none" stroke="black" cx="63" cy="-234" rx="27" ry="18"/>
<text text-anchor="middle" x="63" y="-230.3" font-family="Times New Roman,serif" font-size="14.00">&#45;</text>
</g>
<!-- 1 -->
<g id="node2" class="node">
<title>1</title>
<ellipse fill="none" stroke="black" cx="27" cy="-162" rx="27" ry="18"/>
<text text-anchor="middle" x="27" y="-158.3" font-family="Times New Roman,serif" font-size="14.00">x</text>
</g>
<!-- 0&#45;&gt;1 -->
<g id="edge1" class="edge">
<title>0&#45;&gt;1</title>
<path fill="none" stroke="black" d="M54.65,-216.76C50.29,-208.28 44.85,-197.71 39.96,-188.2"/>
<polygon fill="black" stroke="black" points="42.99,-186.44 35.3,-179.15 36.77,-189.64 42.99,-186.44"/>
</g>
<!-- 2 -->
<g id="node3" class="node">
<title>2</title>
<ellipse fill="none" stroke="black" cx="99" cy="-162" rx="27" ry="18"/>
<text text-anchor="middle" x="99" y="-158.3" font-family="Times New Roman,serif" font-size="14.00">*</text>
</g>
<!-- 0&#45;&gt;2 -->
<g id="edge2" class="edge">
<title>0&#45;&gt;2</title>
<path fill="none" stroke="black" d="M71.35,-216.76C75.71,-208.28 81.15,-197.71 86.04,-188.2"/>
<polygon fill="black" stroke="black" points="89.23,-189.64 90.7,-179.15 83.01,-186.44 89.23,-189.64"/>
</g>
<!-- 3 -->
<g id="node4" class="node">
<title>3</title>
<ellipse fill="none" stroke="black" cx="63" cy="-90" rx="27" ry="18"/>
<text text-anchor="middle" x="63" y="-86.3" font-family="Times New Roman,serif" font-size="14.00">x</text>
</g>
<!-- 2&#45;&gt;3 -->
<g id="edge3" class="edge">
<title>2&#45;&gt;3</title>
<path fill="none" stroke="black" d="M90.65,-144.76C86.29,-136.28 80.85,-125.71 75.96,-116.2"/>
<polygon fill="black" stroke="black" points="78.99,-114.44 71.3,-107.15 72.77,-117.64 78.99,-114.44"/>
</g>
<!-- 4 -->
<g id="node5" class="node">
<title>4</title>
<ellipse fill="none" stroke="black" cx="135" cy="-90" rx="27" ry="18"/>
<text text-anchor="middle" x="135" y="-86.3" font-family="Times New Roman,serif" font-size="14.00">*</text>
</g>
<!-- 2&#45;&gt;4 -->
<g id="edge4" class="edge">
<title>2&#45;&gt;4</title>
<path fill="none" stroke="black" d="M107.35,-144.76C111.71,-136.28 117.15,-125.71 122.04,-116.2"/>
<polygon fill="black" stroke="black" points="125.23,-117.64 126.7,-107.15 119.01,-114.44 125.23,-117.64"/>
</g>
<!-- 5 -->
<g id="node6" class="node">
<title>5</title>
<ellipse fill="none" stroke="black" cx="95" cy="-18" rx="27" ry="18"/>
<text text-anchor="middle" x="95" y="-14.3" font-family="Times New Roman,serif" font-size="14.00">x</text>
</g>
<!-- 4&#45;&gt;5 -->
<g id="edge5" class="edge">
<title>4&#45;&gt;5</title>
<path fill="none" stroke="black" d="M125.72,-72.76C120.83,-64.19 114.71,-53.49 109.23,-43.9"/>
<polygon fill="black" stroke="black" points="112.23,-42.09 104.23,-35.15 106.15,-45.57 112.23,-42.09"/>
</g>
<!-- 6 -->
<g id="node7" class="node">
<title>6</title>
<ellipse fill="none" stroke="black" cx="174" cy="-18" rx="33.6" ry="18"/>
<text text-anchor="middle" x="174" y="-14.3" font-family="Times New Roman,serif" font-size="14.00">&#45;0.897</text>
</g>
<!-- 4&#45;&gt;6 -->
<g id="edge6" class="edge">
<title>4&#45;&gt;6</title>
<path fill="none" stroke="black" d="M144.05,-72.76C148.7,-64.4 154.49,-54.02 159.73,-44.61"/>
<polygon fill="black" stroke="black" points="162.92,-46.07 164.73,-35.63 156.81,-42.67 162.92,-46.07"/>
</g>
</g>
</svg>
