<?xml version="1.0" encoding="UTF-8" standalone="no"?>
<!DOCTYPE svg PUBLIC "-//W3C//DTD SVG 1.1//EN"
 "http://www.w3.org/Graphics/SVG/1.1/DTD/svg11.dtd">
<!-- Generated by graphviz version 2.50.0 (0)
 -->
<!-- Pages: 1 -->
<svg width="172pt" height="260pt"
 viewBox="0.00 0.00 172.00 260.00" xmlns="http://www.w3.org/2000/svg" xmlns:xlink="http://www.w3.org/1999/xlink">
<g id="graph0" class="graph" transform="scale(1 1) rotate(0) translate(4 256)">
<polygon fill="white" stroke="transparent" points="-4,4 -4,-256 168,-256 168,4 -4,4"/>
<!-- 0 -->
<g id="node1" class="node">
<title>0</title>
<ellipse fill="none" stroke="black" cx="101" cy="-234" rx="27" ry="18"/>
<text text-anchor="middle" x="101" y="-230.3" font-family="Times New Roman,serif" font-size="14.00">+</text>
</g>
<!-- 1 -->
<g id="node2" class="node">
<title>1</title>
<ellipse fill="none" stroke="black" cx="65" cy="-162" rx="27" ry="18"/>
<text text-anchor="middle" x="65" y="-158.3" font-family="Times New Roman,serif" font-size="14.00">cos</text>
</g>
<!-- 0&#45;&gt;1 -->
<g id="edge1" class="edge">
<title>0&#45;&gt;1</title>
<path fill="none" stroke="black" d="M92.65,-216.76C88.29,-208.28 82.85,-197.71 77.96,-188.2"/>
<polygon fill="black" stroke="black" points="80.99,-186.44 73.3,-179.15 74.77,-189.64 80.99,-186.44"/>
</g>
<!-- 5 -->
<g id="node3" class="node">
<title>5</title>
<ellipse fill="none" stroke="black" cx="137" cy="-162" rx="27" ry="18"/>
<text text-anchor="middle" x="137" y="-158.3" font-family="Times New Roman,serif" font-size="14.00">x</text>
</g>
<!-- 0&#45;&gt;5 -->
<g id="edge2" class="edge">
<title>0&#45;&gt;5</title>
<path fill="none" stroke="black" d="M109.35,-216.76C113.71,-208.28 119.15,-197.71 124.04,-188.2"/>
<polygon fill="black" stroke="black" points="127.23,-189.64 128.7,-179.15 121.01,-186.44 127.23,-189.64"/>
</g>
<!-- 2 -->
<g id="node4" class="node">
<title>2</title>
<ellipse fill="none" stroke="black" cx="65" cy="-90" rx="27" ry="18"/>
<text text-anchor="middle" x="65" y="-86.3" font-family="Times New Roman,serif" font-size="14.00">*</text>
</g>
<!-- 1&#45;&gt;2 -->
<g id="edge3" class="edge">
<title>1&#45;&gt;2</title>
<path fill="none" stroke="black" d="M65,-143.7C65,-135.98 65,-126.71 65,-118.11"/>
<polygon fill="black" stroke="black" points="68.5,-118.1 65,-108.1 61.5,-118.1 68.5,-118.1"/>
</g>
<!-- 3 -->
<g id="node5" class="node">
<title>3</title>
<ellipse fill="none" stroke="black" cx="27" cy="-18" rx="27" ry="18"/>
<text text-anchor="middle" x="27" y="-14.3" font-family="Times New Roman,serif" font-size="14.00">x</text>
</g>
<!-- 2&#45;&gt;3 -->
<g id="edge4" class="edge">
<title>2&#45;&gt;3</title>
<path fill="none" stroke="black" d="M56.19,-72.76C51.58,-64.28 45.84,-53.71 40.68,-44.2"/>
<polygon fill="black" stroke="black" points="43.61,-42.27 35.77,-35.15 37.46,-45.61 43.61,-42.27"/>
</g>
<!-- 4 -->
<g id="node6" class="node">
<title>4</title>
<ellipse fill="none" stroke="black" cx="103" cy="-18" rx="30.59" ry="18"/>
<text text-anchor="middle" x="103" y="-14.3" font-family="Times New Roman,serif" font-size="14.00">0.165</text>
</g>
<!-- 2&#45;&gt;4 -->
<g id="edge5" class="edge">
<title>2&#45;&gt;4</title>
<path fill="none" stroke="black" d="M73.81,-72.76C78.35,-64.4 83.99,-54.02 89.1,-44.61"/>
<polygon fill="black" stroke="black" points="92.28,-46.09 93.97,-35.63 86.12,-42.75 92.28,-46.09"/>
</g>
</g>
</svg>
