<?xml version="1.0" encoding="UTF-8" standalone="no"?>
<!DOCTYPE svg PUBLIC "-//W3C//DTD SVG 1.1//EN"
 "http://www.w3.org/Graphics/SVG/1.1/DTD/svg11.dtd">
<!-- Generated by graphviz version 2.50.0 (0)
 -->
<!-- Pages: 1 -->
<svg width="141pt" height="260pt"
 viewBox="0.00 0.00 140.80 260.00" xmlns="http://www.w3.org/2000/svg" xmlns:xlink="http://www.w3.org/1999/xlink">
<g id="graph0" class="graph" transform="scale(1 1) rotate(0) translate(4 256)">
<polygon fill="white" stroke="transparent" points="-4,4 -4,-256 136.8,-256 136.8,4 -4,4"/>
<!-- 0 -->
<g id="node1" class="node">
<title>0</title>
<ellipse fill="none" stroke="black" cx="69.8" cy="-234" rx="27" ry="18"/>
<text text-anchor="middle" x="69.8" y="-230.3" font-family="Times New Roman,serif" font-size="14.00">+</text>
</g>
<!-- 1 -->
<g id="node2" class="node">
<title>1</title>
<ellipse fill="none" stroke="black" cx="33.8" cy="-162" rx="27.1" ry="18"/>
<text text-anchor="middle" x="33.8" y="-158.3" font-family="Times New Roman,serif" font-size="14.00">cube</text>
</g>
<!-- 0&#45;&gt;1 -->
<g id="edge1" class="edge">
<title>0&#45;&gt;1</title>
<path fill="none" stroke="black" d="M61.45,-216.76C57.09,-208.28 51.65,-197.71 46.76,-188.2"/>
<polygon fill="black" stroke="black" points="49.79,-186.44 42.1,-179.15 43.56,-189.64 49.79,-186.44"/>
</g>
<!-- 4 -->
<g id="node3" class="node">
<title>4</title>
<ellipse fill="none" stroke="black" cx="105.8" cy="-162" rx="27" ry="18"/>
<text text-anchor="middle" x="105.8" y="-158.3" font-family="Times New Roman,serif" font-size="14.00">x</text>
</g>
<!-- 0&#45;&gt;4 -->
<g id="edge2" class="edge">
<title>0&#45;&gt;4</title>
<path fill="none" stroke="black" d="M78.15,-216.76C82.51,-208.28 87.94,-197.71 92.84,-188.2"/>
<polygon fill="black" stroke="black" points="96.03,-189.64 97.49,-179.15 89.81,-186.44 96.03,-189.64"/>
</g>
<!-- 2 -->
<g id="node4" class="node">
<title>2</title>
<ellipse fill="none" stroke="black" cx="33.8" cy="-90" rx="27" ry="18"/>
<text text-anchor="middle" x="33.8" y="-86.3" font-family="Times New Roman,serif" font-size="14.00">tan</text>
</g>
<!-- 1&#45;&gt;2 -->
<g id="edge3" class="edge">
<title>1&#45;&gt;2</title>
<path fill="none" stroke="black" d="M33.8,-143.7C33.8,-135.98 33.8,-126.71 33.8,-118.11"/>
<polygon fill="black" stroke="black" points="37.3,-118.1 33.8,-108.1 30.3,-118.1 37.3,-118.1"/>
</g>
<!-- 3 -->
<g id="node5" class="node">
<title>3</title>
<ellipse fill="none" stroke="black" cx="33.8" cy="-18" rx="33.6" ry="18"/>
<text text-anchor="middle" x="33.8" y="-14.3" font-family="Times New Roman,serif" font-size="14.00">&#45;5.902</text>
</g>
<!-- 2&#45;&gt;3 -->
<g id="edge4" class="edge">
<title>2&#45;&gt;3</title>
<path fill="none" stroke="black" d="M33.8,-71.7C33.8,-63.98 33.8,-54.71 33.8,-46.11"/>
<polygon fill="black" stroke="black" points="37.3,-46.1 33.8,-36.1 30.3,-46.1 37.3,-46.1"/>
</g>
</g>
</svg>
