<?xml version="1.0" encoding="UTF-8" standalone="no"?>
<!DOCTYPE svg PUBLIC "-//W3C//DTD SVG 1.1//EN"
 "http://www.w3.org/Graphics/SVG/1.1/DTD/svg11.dtd">
<!-- Generated by graphviz version 2.50.0 (0)
 -->
<!-- Pages: 1 -->
<svg width="182pt" height="260pt"
 viewBox="0.00 0.00 181.80 260.00" xmlns="http://www.w3.org/2000/svg" xmlns:xlink="http://www.w3.org/1999/xlink">
<g id="graph0" class="graph" transform="scale(1 1) rotate(0) translate(4 256)">
<polygon fill="white" stroke="transparent" points="-4,4 -4,-256 177.8,-256 177.8,4 -4,4"/>
<!-- 0 -->
<g id="node1" class="node">
<title>0</title>
<ellipse fill="none" stroke="black" cx="110.8" cy="-234" rx="27" ry="18"/>
<text text-anchor="middle" x="110.8" y="-230.3" font-family="Times New Roman,serif" font-size="14.00">*</text>
</g>
<!-- 1 -->
<g id="node2" class="node">
<title>1</title>
<ellipse fill="none" stroke="black" cx="74.8" cy="-162" rx="27" ry="18"/>
<text text-anchor="middle" x="74.8" y="-158.3" font-family="Times New Roman,serif" font-size="14.00">sin</text>
</g>
<!-- 0&#45;&gt;1 -->
<g id="edge1" class="edge">
<title>0&#45;&gt;1</title>
<path fill="none" stroke="black" d="M102.45,-216.76C98.09,-208.28 92.65,-197.71 87.76,-188.2"/>
<polygon fill="black" stroke="black" points="90.79,-186.44 83.1,-179.15 84.56,-189.64 90.79,-186.44"/>
</g>
<!-- 5 -->
<g id="node3" class="node">
<title>5</title>
<ellipse fill="none" stroke="black" cx="146.8" cy="-162" rx="27" ry="18"/>
<text text-anchor="middle" x="146.8" y="-158.3" font-family="Times New Roman,serif" font-size="14.00">x</text>
</g>
<!-- 0&#45;&gt;5 -->
<g id="edge2" class="edge">
<title>0&#45;&gt;5</title>
<path fill="none" stroke="black" d="M119.15,-216.76C123.51,-208.28 128.94,-197.71 133.84,-188.2"/>
<polygon fill="black" stroke="black" points="137.03,-189.64 138.49,-179.15 130.81,-186.44 137.03,-189.64"/>
</g>
<!-- 2 -->
<g id="node4" class="node">
<title>2</title>
<ellipse fill="none" stroke="black" cx="74.8" cy="-90" rx="27" ry="18"/>
<text text-anchor="middle" x="74.8" y="-86.3" font-family="Times New Roman,serif" font-size="14.00">*</text>
</g>
<!-- 1&#45;&gt;2 -->
<g id="edge3" class="edge">
<title>1&#45;&gt;2</title>
<path fill="none" stroke="black" d="M74.8,-143.7C74.8,-135.98 74.8,-126.71 74.8,-118.11"/>
<polygon fill="black" stroke="black" points="78.3,-118.1 74.8,-108.1 71.3,-118.1 78.3,-118.1"/>
</g>
<!-- 3 -->
<g id="node5" class="node">
<title>3</title>
<ellipse fill="none" stroke="black" cx="33.8" cy="-18" rx="33.6" ry="18"/>
<text text-anchor="middle" x="33.8" y="-14.3" font-family="Times New Roman,serif" font-size="14.00">&#45;1.318</text>
</g>
<!-- 2&#45;&gt;3 -->
<g id="edge4" class="edge">
<title>2&#45;&gt;3</title>
<path fill="none" stroke="black" d="M65.29,-72.76C60.34,-64.32 54.18,-53.8 48.62,-44.31"/>
<polygon fill="black" stroke="black" points="51.61,-42.49 43.54,-35.63 45.57,-46.03 51.61,-42.49"/>
</g>
<!-- 4 -->
<g id="node6" class="node">
<title>4</title>
<ellipse fill="none" stroke="black" cx="115.8" cy="-18" rx="30.59" ry="18"/>
<text text-anchor="middle" x="115.8" y="-14.3" font-family="Times New Roman,serif" font-size="14.00">3.133</text>
</g>
<!-- 2&#45;&gt;4 -->
<g id="edge5" class="edge">
<title>2&#45;&gt;4</title>
<path fill="none" stroke="black" d="M84.31,-72.76C89.33,-64.19 95.59,-53.49 101.21,-43.9"/>
<polygon fill="black" stroke="black" points="104.31,-45.55 106.34,-35.15 98.27,-42.01 104.31,-45.55"/>
</g>
</g>
</svg>
