<?xml version="1.0" encoding="UTF-8" standalone="no"?>
<!DOCTYPE svg PUBLIC "-//W3C//DTD SVG 1.1//EN"
 "http://www.w3.org/Graphics/SVG/1.1/DTD/svg11.dtd">
<!-- Generated by graphviz version 2.50.0 (0)
 -->
<!-- Pages: 1 -->
<svg width="212pt" height="260pt"
 viewBox="0.00 0.00 212.00 260.00" xmlns="http://www.w3.org/2000/svg" xmlns:xlink="http://www.w3.org/1999/xlink">
<g id="graph0" class="graph" transform="scale(1 1) rotate(0) translate(4 256)">
<polygon fill="white" stroke="transparent" points="-4,4 -4,-256 208,-256 208,4 -4,4"/>
<!-- 0 -->
<g id="node1" class="node">
<title>0</title>
<ellipse fill="none" stroke="black" cx="141" cy="-234" rx="27" ry="18"/>
<text text-anchor="middle" x="141" y="-230.3" font-family="Times New Roman,serif" font-size="14.00">+</text>
</g>
<!-- 1 -->
<g id="node2" class="node">
<title>1</title>
<ellipse fill="none" stroke="black" cx="105" cy="-162" rx="27" ry="18"/>
<text text-anchor="middle" x="105" y="-158.3" font-family="Times New Roman,serif" font-size="14.00">&#45;</text>
</g>
<!-- 0&#45;&gt;1 -->
<g id="edge1" class="edge">
<title>0&#45;&gt;1</title>
<path fill="none" stroke="black" d="M132.65,-216.76C128.29,-208.28 122.85,-197.71 117.96,-188.2"/>
<polygon fill="black" stroke="black" points="120.99,-186.44 113.3,-179.15 114.77,-189.64 120.99,-186.44"/>
</g>
<!-- 6 -->
<g id="node3" class="node">
<title>6</title>
<ellipse fill="none" stroke="black" cx="177" cy="-162" rx="27" ry="18"/>
<text text-anchor="middle" x="177" y="-158.3" font-family="Times New Roman,serif" font-size="14.00">x</text>
</g>
<!-- 0&#45;&gt;6 -->
<g id="edge2" class="edge">
<title>0&#45;&gt;6</title>
<path fill="none" stroke="black" d="M149.35,-216.76C153.71,-208.28 159.15,-197.71 164.04,-188.2"/>
<polygon fill="black" stroke="black" points="167.23,-189.64 168.7,-179.15 161.01,-186.44 167.23,-189.64"/>
</g>
<!-- 2 -->
<g id="node4" class="node">
<title>2</title>
<ellipse fill="none" stroke="black" cx="66" cy="-90" rx="27" ry="18"/>
<text text-anchor="middle" x="66" y="-86.3" font-family="Times New Roman,serif" font-size="14.00">/</text>
</g>
<!-- 1&#45;&gt;2 -->
<g id="edge3" class="edge">
<title>1&#45;&gt;2</title>
<path fill="none" stroke="black" d="M95.95,-144.76C91.18,-136.19 85.22,-125.49 79.87,-115.9"/>
<polygon fill="black" stroke="black" points="82.92,-114.18 75,-107.15 76.81,-117.59 82.92,-114.18"/>
</g>
<!-- 5 -->
<g id="node5" class="node">
<title>5</title>
<ellipse fill="none" stroke="black" cx="145" cy="-90" rx="33.6" ry="18"/>
<text text-anchor="middle" x="145" y="-86.3" font-family="Times New Roman,serif" font-size="14.00">&#45;1.706</text>
</g>
<!-- 1&#45;&gt;5 -->
<g id="edge4" class="edge">
<title>1&#45;&gt;5</title>
<path fill="none" stroke="black" d="M114.28,-144.76C119.05,-136.4 124.99,-126.02 130.37,-116.61"/>
<polygon fill="black" stroke="black" points="133.57,-118.05 135.5,-107.63 127.49,-114.58 133.57,-118.05"/>
</g>
<!-- 3 -->
<g id="node6" class="node">
<title>3</title>
<ellipse fill="none" stroke="black" cx="27" cy="-18" rx="27" ry="18"/>
<text text-anchor="middle" x="27" y="-14.3" font-family="Times New Roman,serif" font-size="14.00">x</text>
</g>
<!-- 2&#45;&gt;3 -->
<g id="edge5" class="edge">
<title>2&#45;&gt;3</title>
<path fill="none" stroke="black" d="M56.95,-72.76C52.18,-64.19 46.22,-53.49 40.87,-43.9"/>
<polygon fill="black" stroke="black" points="43.92,-42.18 36,-35.15 37.81,-45.59 43.92,-42.18"/>
</g>
<!-- 4 -->
<g id="node7" class="node">
<title>4</title>
<ellipse fill="none" stroke="black" cx="106" cy="-18" rx="33.6" ry="18"/>
<text text-anchor="middle" x="106" y="-14.3" font-family="Times New Roman,serif" font-size="14.00">&#45;3.373</text>
</g>
<!-- 2&#45;&gt;4 -->
<g id="edge6" class="edge">
<title>2&#45;&gt;4</title>
<path fill="none" stroke="black" d="M75.28,-72.76C80.05,-64.4 85.99,-54.02 91.37,-44.61"/>
<polygon fill="black" stroke="black" points="94.57,-46.05 96.5,-35.63 88.49,-42.58 94.57,-46.05"/>
</g>
</g>
</svg>
