<?xml version="1.0" encoding="UTF-8" standalone="no"?>
<!DOCTYPE svg PUBLIC "-//W3C//DTD SVG 1.1//EN"
 "http://www.w3.org/Graphics/SVG/1.1/DTD/svg11.dtd">
<!-- Generated by graphviz version 2.50.0 (0)
 -->
<!-- Pages: 1 -->
<svg width="189pt" height="260pt"
 viewBox="0.00 0.00 189.34 260.00" xmlns="http://www.w3.org/2000/svg" xmlns:xlink="http://www.w3.org/1999/xlink">
<g id="graph0" class="graph" transform="scale(1 1) rotate(0) translate(4 256)">
<polygon fill="white" stroke="transparent" points="-4,4 -4,-256 185.34,-256 185.34,4 -4,4"/>
<!-- 0 -->
<g id="node1" class="node">
<title>0</title>
<ellipse fill="none" stroke="black" cx="107.55" cy="-234" rx="27" ry="18"/>
<text text-anchor="middle" x="107.55" y="-230.3" font-family="Times New Roman,serif" font-size="14.00">/</text>
</g>
<!-- 1 -->
<g id="node2" class="node">
<title>1</title>
<ellipse fill="none" stroke="black" cx="68.55" cy="-162" rx="27" ry="18"/>
<text text-anchor="middle" x="68.55" y="-158.3" font-family="Times New Roman,serif" font-size="14.00">*</text>
</g>
<!-- 0&#45;&gt;1 -->
<g id="edge1" class="edge">
<title>0&#45;&gt;1</title>
<path fill="none" stroke="black" d="M98.5,-216.76C93.73,-208.19 87.77,-197.49 82.42,-187.9"/>
<polygon fill="black" stroke="black" points="85.47,-186.18 77.54,-179.15 79.35,-189.59 85.47,-186.18"/>
</g>
<!-- 6 -->
<g id="node3" class="node">
<title>6</title>
<ellipse fill="none" stroke="black" cx="147.55" cy="-162" rx="33.6" ry="18"/>
<text text-anchor="middle" x="147.55" y="-158.3" font-family="Times New Roman,serif" font-size="14.00">&#45;7.354</text>
</g>
<!-- 0&#45;&gt;6 -->
<g id="edge2" class="edge">
<title>0&#45;&gt;6</title>
<path fill="none" stroke="black" d="M116.82,-216.76C121.6,-208.4 127.54,-198.02 132.92,-188.61"/>
<polygon fill="black" stroke="black" points="136.12,-190.05 138.04,-179.63 130.04,-186.58 136.12,-190.05"/>
</g>
<!-- 2 -->
<g id="node4" class="node">
<title>2</title>
<ellipse fill="none" stroke="black" cx="30.55" cy="-90" rx="30.59" ry="18"/>
<text text-anchor="middle" x="30.55" y="-86.3" font-family="Times New Roman,serif" font-size="14.00">9.304</text>
</g>
<!-- 1&#45;&gt;2 -->
<g id="edge3" class="edge">
<title>1&#45;&gt;2</title>
<path fill="none" stroke="black" d="M59.73,-144.76C55.2,-136.4 49.56,-126.02 44.45,-116.61"/>
<polygon fill="black" stroke="black" points="47.42,-114.75 39.58,-107.63 41.27,-118.09 47.42,-114.75"/>
</g>
<!-- 3 -->
<g id="node5" class="node">
<title>3</title>
<ellipse fill="none" stroke="black" cx="106.55" cy="-90" rx="27" ry="18"/>
<text text-anchor="middle" x="106.55" y="-86.3" font-family="Times New Roman,serif" font-size="14.00">&#45;</text>
</g>
<!-- 1&#45;&gt;3 -->
<g id="edge4" class="edge">
<title>1&#45;&gt;3</title>
<path fill="none" stroke="black" d="M77.36,-144.76C81.97,-136.28 87.7,-125.71 92.87,-116.2"/>
<polygon fill="black" stroke="black" points="96.09,-117.61 97.78,-107.15 89.93,-114.27 96.09,-117.61"/>
</g>
<!-- 4 -->
<g id="node6" class="node">
<title>4</title>
<ellipse fill="none" stroke="black" cx="66.55" cy="-18" rx="33.6" ry="18"/>
<text text-anchor="middle" x="66.55" y="-14.3" font-family="Times New Roman,serif" font-size="14.00">&#45;4.072</text>
</g>
<!-- 3&#45;&gt;4 -->
<g id="edge5" class="edge">
<title>3&#45;&gt;4</title>
<path fill="none" stroke="black" d="M97.27,-72.76C92.49,-64.4 86.56,-54.02 81.18,-44.61"/>
<polygon fill="black" stroke="black" points="84.05,-42.58 76.05,-35.63 77.97,-46.05 84.05,-42.58"/>
</g>
<!-- 5 -->
<g id="node7" class="node">
<title>5</title>
<ellipse fill="none" stroke="black" cx="145.55" cy="-18" rx="27" ry="18"/>
<text text-anchor="middle" x="145.55" y="-14.3" font-family="Times New Roman,serif" font-size="14.00">x</text>
</g>
<!-- 3&#45;&gt;5 -->
<g id="edge6" class="edge">
<title>3&#45;&gt;5</title>
<path fill="none" stroke="black" d="M115.59,-72.76C120.37,-64.19 126.33,-53.49 131.67,-43.9"/>
<polygon fill="black" stroke="black" points="134.74,-45.59 136.55,-35.15 128.63,-42.18 134.74,-45.59"/>
</g>
</g>
</svg>
