<?xml version="1.0" encoding="UTF-8" standalone="no"?>
<!DOCTYPE svg PUBLIC "-//W3C//DTD SVG 1.1//EN"
 "http://www.w3.org/Graphics/SVG/1.1/DTD/svg11.dtd">
<!-- Generated by graphviz version 2.50.0 (0)
 -->
<!-- Pages: 1 -->
<svg width="136pt" height="188pt"
 viewBox="0.00 0.00 136.25 188.00" xmlns="http://www.w3.org/2000/svg" xmlns:xlink="http://www.w3.org/1999/xlink">
<g id="graph0" class="graph" transform="scale(1 1) rotate(0) translate(4 184)">
<polygon fill="white" stroke="transparent" points="-4,4 -4,-184 132.25,-184 132.25,4 -4,4"/>
<!-- 0 -->
<g id="node1" class="node">
<title>0</title>
<ellipse fill="none" stroke="black" cx="65.25" cy="-162" rx="27" ry="18"/>
<text text-anchor="middle" x="65.25" y="-158.3" font-family="Times New Roman,serif" font-size="14.00">+</text>
</g>
<!-- 1 -->
<g id="node2" class="node">
<title>1</title>
<ellipse fill="none" stroke="black" cx="29.25" cy="-90" rx="27" ry="18"/>
<text text-anchor="middle" x="29.25" y="-86.3" font-family="Times New Roman,serif" font-size="14.00">cos</text>
</g>
<!-- 0&#45;&gt;1 -->
<g id="edge1" class="edge">
<title>0&#45;&gt;1</title>
<path fill="none" stroke="black" d="M56.9,-144.76C52.54,-136.28 47.1,-125.71 42.21,-116.2"/>
<polygon fill="black" stroke="black" points="45.24,-114.44 37.55,-107.15 39.01,-117.64 45.24,-114.44"/>
</g>
<!-- 3 -->
<g id="node3" class="node">
<title>3</title>
<ellipse fill="none" stroke="black" cx="101.25" cy="-90" rx="27" ry="18"/>
<text text-anchor="middle" x="101.25" y="-86.3" font-family="Times New Roman,serif" font-size="14.00">x</text>
</g>
<!-- 0&#45;&gt;3 -->
<g id="edge2" class="edge">
<title>0&#45;&gt;3</title>
<path fill="none" stroke="black" d="M73.6,-144.76C77.96,-136.28 83.39,-125.71 88.29,-116.2"/>
<polygon fill="black" stroke="black" points="91.48,-117.64 92.94,-107.15 85.26,-114.44 91.48,-117.64"/>
</g>
<!-- 2 -->
<g id="node4" class="node">
<title>2</title>
<ellipse fill="none" stroke="black" cx="29.25" cy="-18" rx="29.5" ry="18"/>
<text text-anchor="middle" x="29.25" y="-14.3" font-family="Times New Roman,serif" font-size="14.00">&#45;7.29</text>
</g>
<!-- 1&#45;&gt;2 -->
<g id="edge3" class="edge">
<title>1&#45;&gt;2</title>
<path fill="none" stroke="black" d="M29.25,-71.7C29.25,-63.98 29.25,-54.71 29.25,-46.11"/>
<polygon fill="black" stroke="black" points="32.75,-46.1 29.25,-36.1 25.75,-46.1 32.75,-46.1"/>
</g>
</g>
</svg>
