<?xml version="1.0" encoding="UTF-8" standalone="no"?>
<!DOCTYPE svg PUBLIC "-//W3C//DTD SVG 1.1//EN"
 "http://www.w3.org/Graphics/SVG/1.1/DTD/svg11.dtd">
<!-- Generated by graphviz version 2.50.0 (0)
 -->
<!-- Pages: 1 -->
<svg width="227pt" height="188pt"
 viewBox="0.00 0.00 226.80 188.00" xmlns="http://www.w3.org/2000/svg" xmlns:xlink="http://www.w3.org/1999/xlink">
<g id="graph0" class="graph" transform="scale(1 1) rotate(0) translate(4 184)">
<polygon fill="white" stroke="transparent" points="-4,4 -4,-184 222.8,-184 222.8,4 -4,4"/>
<!-- 0 -->
<g id="node1" class="node">
<title>0</title>
<ellipse fill="none" stroke="black" cx="74.8" cy="-162" rx="27" ry="18"/>
<text text-anchor="middle" x="74.8" y="-158.3" font-family="Times New Roman,serif" font-size="14.00">/</text>
</g>
<!-- 1 -->
<g id="node2" class="node">
<title>1</title>
<ellipse fill="none" stroke="black" cx="38.8" cy="-90" rx="27" ry="18"/>
<text text-anchor="middle" x="38.8" y="-86.3" font-family="Times New Roman,serif" font-size="14.00">sqrt</text>
</g>
<!-- 0&#45;&gt;1 -->
<g id="edge1" class="edge">
<title>0&#45;&gt;1</title>
<path fill="none" stroke="black" d="M66.45,-144.76C62.09,-136.28 56.65,-125.71 51.76,-116.2"/>
<polygon fill="black" stroke="black" points="54.79,-114.44 47.1,-107.15 48.56,-117.64 54.79,-114.44"/>
</g>
<!-- 3 -->
<g id="node3" class="node">
<title>3</title>
<ellipse fill="none" stroke="black" cx="115.8" cy="-90" rx="27" ry="18"/>
<text text-anchor="middle" x="115.8" y="-86.3" font-family="Times New Roman,serif" font-size="14.00">+</text>
</g>
<!-- 0&#45;&gt;3 -->
<g id="edge2" class="edge">
<title>0&#45;&gt;3</title>
<path fill="none" stroke="black" d="M84.31,-144.76C89.33,-136.19 95.59,-125.49 101.21,-115.9"/>
<polygon fill="black" stroke="black" points="104.31,-117.55 106.34,-107.15 98.27,-114.01 104.31,-117.55"/>
</g>
<!-- 2 -->
<g id="node4" class="node">
<title>2</title>
<ellipse fill="none" stroke="black" cx="33.8" cy="-18" rx="33.6" ry="18"/>
<text text-anchor="middle" x="33.8" y="-14.3" font-family="Times New Roman,serif" font-size="14.00">&#45;9.529</text>
</g>
<!-- 1&#45;&gt;2 -->
<g id="edge3" class="edge">
<title>1&#45;&gt;2</title>
<path fill="none" stroke="black" d="M37.56,-71.7C37.01,-63.98 36.35,-54.71 35.73,-46.11"/>
<polygon fill="black" stroke="black" points="39.22,-45.83 35.02,-36.1 32.24,-46.33 39.22,-45.83"/>
</g>
<!-- 4 -->
<g id="node5" class="node">
<title>4</title>
<ellipse fill="none" stroke="black" cx="115.8" cy="-18" rx="30.59" ry="18"/>
<text text-anchor="middle" x="115.8" y="-14.3" font-family="Times New Roman,serif" font-size="14.00">1.042</text>
</g>
<!-- 3&#45;&gt;4 -->
<g id="edge4" class="edge">
<title>3&#45;&gt;4</title>
<path fill="none" stroke="black" d="M115.8,-71.7C115.8,-63.98 115.8,-54.71 115.8,-46.11"/>
<polygon fill="black" stroke="black" points="119.3,-46.1 115.8,-36.1 112.3,-46.1 119.3,-46.1"/>
</g>
<!-- 5 -->
<g id="node6" class="node">
<title>5</title>
<ellipse fill="none" stroke="black" cx="191.8" cy="-18" rx="27" ry="18"/>
<text text-anchor="middle" x="191.8" y="-14.3" font-family="Times New Roman,serif" font-size="14.00">x</text>
</g>
<!-- 3&#45;&gt;5 -->
<g id="edge5" class="edge">
<title>3&#45;&gt;5</title>
<path fill="none" stroke="black" d="M131.18,-74.83C141.99,-64.87 156.65,-51.37 168.85,-40.14"/>
<polygon fill="black" stroke="black" points="171.46,-42.49 176.44,-33.14 166.71,-37.34 171.46,-42.49"/>
</g>
</g>
</svg>
