<?xml version="1.0" encoding="UTF-8" standalone="no"?>
<!DOCTYPE svg PUBLIC "-//W3C//DTD SVG 1.1//EN"
 "http://www.w3.org/Graphics/SVG/1.1/DTD/svg11.dtd">
<!-- Generated by graphviz version 2.50.0 (0)
 -->
<!-- Pages: 1 -->
<svg width="215pt" height="188pt"
 viewBox="0.00 0.00 214.60 188.00" xmlns="http://www.w3.org/2000/svg" xmlns:xlink="http://www.w3.org/1999/xlink">
<g id="graph0" class="graph" transform="scale(1 1) rotate(0) translate(4 184)">
<polygon fill="white" stroke="transparent" points="-4,4 -4,-184 210.6,-184 210.6,4 -4,4"/>
<!-- 0 -->
<g id="node1" class="node">
<title>0</title>
<ellipse fill="none" stroke="black" cx="65.6" cy="-162" rx="27" ry="18"/>
<text text-anchor="middle" x="65.6" y="-158.3" font-family="Times New Roman,serif" font-size="14.00">+</text>
</g>
<!-- 1 -->
<g id="node2" class="node">
<title>1</title>
<ellipse fill="none" stroke="black" cx="28.6" cy="-90" rx="28.7" ry="18"/>
<text text-anchor="middle" x="28.6" y="-86.3" font-family="Times New Roman,serif" font-size="14.00">quart</text>
</g>
<!-- 0&#45;&gt;1 -->
<g id="edge1" class="edge">
<title>0&#45;&gt;1</title>
<path fill="none" stroke="black" d="M57.02,-144.76C52.6,-136.4 47.11,-126.02 42.13,-116.61"/>
<polygon fill="black" stroke="black" points="45.16,-114.84 37.39,-107.63 38.97,-118.11 45.16,-114.84"/>
</g>
<!-- 3 -->
<g id="node3" class="node">
<title>3</title>
<ellipse fill="none" stroke="black" cx="103.6" cy="-90" rx="27" ry="18"/>
<text text-anchor="middle" x="103.6" y="-86.3" font-family="Times New Roman,serif" font-size="14.00">/</text>
</g>
<!-- 0&#45;&gt;3 -->
<g id="edge2" class="edge">
<title>0&#45;&gt;3</title>
<path fill="none" stroke="black" d="M74.41,-144.76C79.02,-136.28 84.75,-125.71 89.92,-116.2"/>
<polygon fill="black" stroke="black" points="93.14,-117.61 94.83,-107.15 86.98,-114.27 93.14,-117.61"/>
</g>
<!-- 2 -->
<g id="node4" class="node">
<title>2</title>
<ellipse fill="none" stroke="black" cx="27.6" cy="-18" rx="27" ry="18"/>
<text text-anchor="middle" x="27.6" y="-14.3" font-family="Times New Roman,serif" font-size="14.00">x</text>
</g>
<!-- 1&#45;&gt;2 -->
<g id="edge3" class="edge">
<title>1&#45;&gt;2</title>
<path fill="none" stroke="black" d="M28.35,-71.7C28.24,-63.98 28.11,-54.71 27.98,-46.11"/>
<polygon fill="black" stroke="black" points="31.48,-46.05 27.84,-36.1 24.49,-46.15 31.48,-46.05"/>
</g>
<!-- 4 -->
<g id="node5" class="node">
<title>4</title>
<ellipse fill="none" stroke="black" cx="103.6" cy="-18" rx="30.59" ry="18"/>
<text text-anchor="middle" x="103.6" y="-14.3" font-family="Times New Roman,serif" font-size="14.00">1.241</text>
</g>
<!-- 3&#45;&gt;4 -->
<g id="edge4" class="edge">
<title>3&#45;&gt;4</title>
<path fill="none" stroke="black" d="M103.6,-71.7C103.6,-63.98 103.6,-54.71 103.6,-46.11"/>
<polygon fill="black" stroke="black" points="107.1,-46.1 103.6,-36.1 100.1,-46.1 107.1,-46.1"/>
</g>
<!-- 5 -->
<g id="node6" class="node">
<title>5</title>
<ellipse fill="none" stroke="black" cx="179.6" cy="-18" rx="27" ry="18"/>
<text text-anchor="middle" x="179.6" y="-14.3" font-family="Times New Roman,serif" font-size="14.00">x</text>
</g>
<!-- 3&#45;&gt;5 -->
<g id="edge5" class="edge">
<title>3&#45;&gt;5</title>
<path fill="none" stroke="black" d="M118.98,-74.83C129.79,-64.87 144.45,-51.37 156.65,-40.14"/>
<polygon fill="black" stroke="black" points="159.26,-42.49 164.24,-33.14 154.51,-37.34 159.26,-42.49"/>
</g>
</g>
</svg>
