<?xml version="1.0" encoding="UTF-8" standalone="no"?>
<!DOCTYPE svg PUBLIC "-//W3C//DTD SVG 1.1//EN"
 "http://www.w3.org/Graphics/SVG/1.1/DTD/svg11.dtd">
<!-- Generated by graphviz version 10.0.1 (20240210.2158)
 -->
<!-- Pages: 1 -->
<svg width="150pt" height="188pt"
 viewBox="0.00 0.00 150.21 188.00" xmlns="http://www.w3.org/2000/svg" xmlns:xlink="http://www.w3.org/1999/xlink">
<g id="graph0" class="graph" transform="scale(1 1) rotate(0) translate(4 184)">
<polygon fill="white" stroke="none" points="-4,4 -4,-184 146.21,-184 146.21,4 -4,4"/>
<!-- 0 -->
<g id="node1" class="node">
<title>0</title>
<ellipse fill="none" stroke="black" cx="71.1" cy="-162" rx="27" ry="18"/>
<text text-anchor="middle" x="71.1" y="-156.57" font-family="Times New Roman,serif" font-size="14.00">sin</text>
</g>
<!-- 1 -->
<g id="node2" class="node">
<title>1</title>
<ellipse fill="none" stroke="black" cx="71.1" cy="-90" rx="27" ry="18"/>
<text text-anchor="middle" x="71.1" y="-84.58" font-family="Times New Roman,serif" font-size="14.00">&#45;</text>
</g>
<!-- 0&#45;&gt;1 -->
<g id="edge1" class="edge">
<title>0&#45;&gt;1</title>
<path fill="none" stroke="black" d="M71.1,-143.7C71.1,-136.41 71.1,-127.73 71.1,-119.54"/>
<polygon fill="black" stroke="black" points="74.6,-119.62 71.1,-109.62 67.6,-119.62 74.6,-119.62"/>
</g>
<!-- 2 -->
<g id="node3" class="node">
<title>2</title>
<ellipse fill="none" stroke="black" cx="31.1" cy="-18" rx="31.1" ry="18"/>
<text text-anchor="middle" x="31.1" y="-12.57" font-family="Times New Roman,serif" font-size="14.00">2.418</text>
</g>
<!-- 1&#45;&gt;2 -->
<g id="edge2" class="edge">
<title>1&#45;&gt;2</title>
<path fill="none" stroke="black" d="M61.83,-72.76C57.2,-64.67 51.48,-54.66 46.24,-45.49"/>
<polygon fill="black" stroke="black" points="49.36,-43.89 41.36,-36.95 43.28,-47.37 49.36,-43.89"/>
</g>
<!-- 3 -->
<g id="node4" class="node">
<title>3</title>
<ellipse fill="none" stroke="black" cx="111.1" cy="-18" rx="31.1" ry="18"/>
<text text-anchor="middle" x="111.1" y="-12.57" font-family="Times New Roman,serif" font-size="14.00">1.888</text>
</g>
<!-- 1&#45;&gt;3 -->
<g id="edge3" class="edge">
<title>1&#45;&gt;3</title>
<path fill="none" stroke="black" d="M80.38,-72.76C85.01,-64.67 90.73,-54.66 95.97,-45.49"/>
<polygon fill="black" stroke="black" points="98.93,-47.37 100.85,-36.95 92.85,-43.89 98.93,-47.37"/>
</g>
</g>
</svg>
