<?xml version="1.0" encoding="UTF-8" standalone="no"?>
<!DOCTYPE svg PUBLIC "-//W3C//DTD SVG 1.1//EN"
 "http://www.w3.org/Graphics/SVG/1.1/DTD/svg11.dtd">
<!-- Generated by graphviz version 10.0.1 (20240210.2158)
 -->
<!-- Pages: 1 -->
<svg width="195pt" height="260pt"
 viewBox="0.00 0.00 195.20 260.00" xmlns="http://www.w3.org/2000/svg" xmlns:xlink="http://www.w3.org/1999/xlink">
<g id="graph0" class="graph" transform="scale(1 1) rotate(0) translate(4 256)">
<polygon fill="white" stroke="none" points="-4,4 -4,-256 191.2,-256 191.2,4 -4,4"/>
<!-- 0 -->
<g id="node1" class="node">
<title>0</title>
<ellipse fill="none" stroke="black" cx="73.1" cy="-234" rx="27" ry="18"/>
<text text-anchor="middle" x="73.1" y="-228.57" font-family="Times New Roman,serif" font-size="14.00">+</text>
</g>
<!-- 1 -->
<g id="node2" class="node">
<title>1</title>
<ellipse fill="none" stroke="black" cx="34.1" cy="-162" rx="34.1" ry="18"/>
<text text-anchor="middle" x="34.1" y="-156.57" font-family="Times New Roman,serif" font-size="14.00">&#45;3.711</text>
</g>
<!-- 0&#45;&gt;1 -->
<g id="edge1" class="edge">
<title>0&#45;&gt;1</title>
<path fill="none" stroke="black" d="M64.05,-216.76C59.54,-208.67 53.97,-198.66 48.86,-189.49"/>
<polygon fill="black" stroke="black" points="52.03,-187.99 44.1,-180.96 45.91,-191.39 52.03,-187.99"/>
</g>
<!-- 2 -->
<g id="node3" class="node">
<title>2</title>
<ellipse fill="none" stroke="black" cx="113.1" cy="-162" rx="27" ry="18"/>
<text text-anchor="middle" x="113.1" y="-156.57" font-family="Times New Roman,serif" font-size="14.00">exp</text>
</g>
<!-- 0&#45;&gt;2 -->
<g id="edge2" class="edge">
<title>0&#45;&gt;2</title>
<path fill="none" stroke="black" d="M82.38,-216.76C87.07,-208.55 92.88,-198.37 98.19,-189.09"/>
<polygon fill="black" stroke="black" points="101.2,-190.88 103.12,-180.46 95.12,-187.41 101.2,-190.88"/>
</g>
<!-- 3 -->
<g id="node4" class="node">
<title>3</title>
<ellipse fill="none" stroke="black" cx="113.1" cy="-90" rx="27" ry="18"/>
<text text-anchor="middle" x="113.1" y="-84.58" font-family="Times New Roman,serif" font-size="14.00">&#45;</text>
</g>
<!-- 2&#45;&gt;3 -->
<g id="edge3" class="edge">
<title>2&#45;&gt;3</title>
<path fill="none" stroke="black" d="M113.1,-143.7C113.1,-136.41 113.1,-127.73 113.1,-119.54"/>
<polygon fill="black" stroke="black" points="116.6,-119.62 113.1,-109.62 109.6,-119.62 116.6,-119.62"/>
</g>
<!-- 4 -->
<g id="node5" class="node">
<title>4</title>
<ellipse fill="none" stroke="black" cx="74.1" cy="-18" rx="27" ry="18"/>
<text text-anchor="middle" x="74.1" y="-12.57" font-family="Times New Roman,serif" font-size="14.00">x</text>
</g>
<!-- 3&#45;&gt;4 -->
<g id="edge4" class="edge">
<title>3&#45;&gt;4</title>
<path fill="none" stroke="black" d="M104.05,-72.76C99.47,-64.55 93.81,-54.37 88.64,-45.09"/>
<polygon fill="black" stroke="black" points="91.76,-43.5 83.83,-36.47 85.64,-46.91 91.76,-43.5"/>
</g>
<!-- 5 -->
<g id="node6" class="node">
<title>5</title>
<ellipse fill="none" stroke="black" cx="153.1" cy="-18" rx="34.1" ry="18"/>
<text text-anchor="middle" x="153.1" y="-12.57" font-family="Times New Roman,serif" font-size="14.00">&#45;8.888</text>
</g>
<!-- 3&#45;&gt;5 -->
<g id="edge5" class="edge">
<title>3&#45;&gt;5</title>
<path fill="none" stroke="black" d="M122.38,-72.76C127,-64.67 132.72,-54.66 137.96,-45.49"/>
<polygon fill="black" stroke="black" points="140.92,-47.37 142.84,-36.95 134.84,-43.89 140.92,-47.37"/>
</g>
</g>
</svg>
