<?xml version="1.0" encoding="UTF-8" standalone="no"?>
<!DOCTYPE svg PUBLIC "-//W3C//DTD SVG 1.1//EN"
 "http://www.w3.org/Graphics/SVG/1.1/DTD/svg11.dtd">
<!-- Generated by graphviz version 10.0.1 (20240210.2158)
 -->
<!-- Pages: 1 -->
<svg width="184pt" height="260pt"
 viewBox="0.00 0.00 184.10 260.00" xmlns="http://www.w3.org/2000/svg" xmlns:xlink="http://www.w3.org/1999/xlink">
<g id="graph0" class="graph" transform="scale(1 1) rotate(0) translate(4 256)">
<polygon fill="white" stroke="none" points="-4,4 -4,-256 180.1,-256 180.1,4 -4,4"/>
<!-- 0 -->
<g id="node1" class="node">
<title>0</title>
<ellipse fill="none" stroke="black" cx="75.1" cy="-234" rx="27" ry="18"/>
<text text-anchor="middle" x="75.1" y="-228.57" font-family="Times New Roman,serif" font-size="14.00">&#45;</text>
</g>
<!-- 1 -->
<g id="node2" class="node">
<title>1</title>
<ellipse fill="none" stroke="black" cx="37.1" cy="-162" rx="31.1" ry="18"/>
<text text-anchor="middle" x="37.1" y="-156.57" font-family="Times New Roman,serif" font-size="14.00">8.064</text>
</g>
<!-- 0&#45;&gt;1 -->
<g id="edge1" class="edge">
<title>0&#45;&gt;1</title>
<path fill="none" stroke="black" d="M66.28,-216.76C61.89,-208.67 56.46,-198.66 51.48,-189.49"/>
<polygon fill="black" stroke="black" points="54.7,-188.08 46.85,-180.96 48.54,-191.42 54.7,-188.08"/>
</g>
<!-- 2 -->
<g id="node3" class="node">
<title>2</title>
<ellipse fill="none" stroke="black" cx="113.1" cy="-162" rx="27" ry="18"/>
<text text-anchor="middle" x="113.1" y="-156.57" font-family="Times New Roman,serif" font-size="14.00">*</text>
</g>
<!-- 0&#45;&gt;2 -->
<g id="edge2" class="edge">
<title>0&#45;&gt;2</title>
<path fill="none" stroke="black" d="M83.91,-216.76C88.37,-208.55 93.9,-198.37 98.93,-189.09"/>
<polygon fill="black" stroke="black" points="101.92,-190.94 103.61,-180.48 95.76,-187.6 101.92,-190.94"/>
</g>
<!-- 3 -->
<g id="node4" class="node">
<title>3</title>
<ellipse fill="none" stroke="black" cx="77.1" cy="-90" rx="27" ry="18"/>
<text text-anchor="middle" x="77.1" y="-84.58" font-family="Times New Roman,serif" font-size="14.00">/</text>
</g>
<!-- 2&#45;&gt;3 -->
<g id="edge3" class="edge">
<title>2&#45;&gt;3</title>
<path fill="none" stroke="black" d="M104.75,-144.76C100.52,-136.55 95.29,-126.37 90.52,-117.09"/>
<polygon fill="black" stroke="black" points="93.78,-115.79 86.09,-108.49 87.56,-118.99 93.78,-115.79"/>
</g>
<!-- 6 -->
<g id="node5" class="node">
<title>6</title>
<ellipse fill="none" stroke="black" cx="149.1" cy="-90" rx="27" ry="18"/>
<text text-anchor="middle" x="149.1" y="-84.58" font-family="Times New Roman,serif" font-size="14.00">x</text>
</g>
<!-- 2&#45;&gt;6 -->
<g id="edge4" class="edge">
<title>2&#45;&gt;6</title>
<path fill="none" stroke="black" d="M121.45,-144.76C125.67,-136.55 130.91,-126.37 135.68,-117.09"/>
<polygon fill="black" stroke="black" points="138.64,-118.99 140.1,-108.49 132.42,-115.79 138.64,-118.99"/>
</g>
<!-- 4 -->
<g id="node6" class="node">
<title>4</title>
<ellipse fill="none" stroke="black" cx="34.1" cy="-18" rx="34.1" ry="18"/>
<text text-anchor="middle" x="34.1" y="-12.57" font-family="Times New Roman,serif" font-size="14.00">&#45;3.882</text>
</g>
<!-- 3&#45;&gt;4 -->
<g id="edge5" class="edge">
<title>3&#45;&gt;4</title>
<path fill="none" stroke="black" d="M67.12,-72.76C62.1,-64.58 55.87,-54.45 50.19,-45.2"/>
<polygon fill="black" stroke="black" points="53.32,-43.61 45.11,-36.92 47.36,-47.28 53.32,-43.61"/>
</g>
<!-- 5 -->
<g id="node7" class="node">
<title>5</title>
<ellipse fill="none" stroke="black" cx="120.1" cy="-18" rx="34.1" ry="18"/>
<text text-anchor="middle" x="120.1" y="-12.57" font-family="Times New Roman,serif" font-size="14.00">&#45;8.327</text>
</g>
<!-- 3&#45;&gt;5 -->
<g id="edge6" class="edge">
<title>3&#45;&gt;5</title>
<path fill="none" stroke="black" d="M87.07,-72.76C92.1,-64.58 98.32,-54.45 104.01,-45.2"/>
<polygon fill="black" stroke="black" points="106.84,-47.28 109.09,-36.92 100.87,-43.61 106.84,-47.28"/>
</g>
</g>
</svg>
