<?xml version="1.0" encoding="UTF-8" standalone="no"?>
<!DOCTYPE svg PUBLIC "-//W3C//DTD SVG 1.1//EN"
 "http://www.w3.org/Graphics/SVG/1.1/DTD/svg11.dtd">
<!-- Generated by graphviz version 10.0.1 (20240210.2158)
 -->
<!-- Pages: 1 -->
<svg width="314pt" height="188pt"
 viewBox="0.00 0.00 314.10 188.00" xmlns="http://www.w3.org/2000/svg" xmlns:xlink="http://www.w3.org/1999/xlink">
<g id="graph0" class="graph" transform="scale(1 1) rotate(0) translate(4 184)">
<polygon fill="white" stroke="none" points="-4,4 -4,-184 310.1,-184 310.1,4 -4,4"/>
<!-- 0 -->
<g id="node1" class="node">
<title>0</title>
<ellipse fill="none" stroke="black" cx="161.1" cy="-162" rx="27" ry="18"/>
<text text-anchor="middle" x="161.1" y="-156.57" font-family="Times New Roman,serif" font-size="14.00">/</text>
</g>
<!-- 1 -->
<g id="node2" class="node">
<title>1</title>
<ellipse fill="none" stroke="black" cx="120.1" cy="-90" rx="27" ry="18"/>
<text text-anchor="middle" x="120.1" y="-84.58" font-family="Times New Roman,serif" font-size="14.00">/</text>
</g>
<!-- 0&#45;&gt;1 -->
<g id="edge1" class="edge">
<title>0&#45;&gt;1</title>
<path fill="none" stroke="black" d="M151.59,-144.76C146.72,-136.46 140.69,-126.15 135.21,-116.79"/>
<polygon fill="black" stroke="black" points="138.39,-115.31 130.32,-108.45 132.35,-118.85 138.39,-115.31"/>
</g>
<!-- 4 -->
<g id="node3" class="node">
<title>4</title>
<ellipse fill="none" stroke="black" cx="203.1" cy="-90" rx="27" ry="18"/>
<text text-anchor="middle" x="203.1" y="-84.58" font-family="Times New Roman,serif" font-size="14.00">*</text>
</g>
<!-- 0&#45;&gt;4 -->
<g id="edge2" class="edge">
<title>0&#45;&gt;4</title>
<path fill="none" stroke="black" d="M170.84,-144.76C175.82,-136.46 182.01,-126.15 187.62,-116.79"/>
<polygon fill="black" stroke="black" points="190.49,-118.82 192.63,-108.45 184.48,-115.22 190.49,-118.82"/>
</g>
<!-- 2 -->
<g id="node4" class="node">
<title>2</title>
<ellipse fill="none" stroke="black" cx="34.1" cy="-18" rx="34.1" ry="18"/>
<text text-anchor="middle" x="34.1" y="-12.57" font-family="Times New Roman,serif" font-size="14.00">&#45;0.997</text>
</g>
<!-- 1&#45;&gt;2 -->
<g id="edge3" class="edge">
<title>1&#45;&gt;2</title>
<path fill="none" stroke="black" d="M103.52,-75.5C91.42,-65.66 74.78,-52.11 60.82,-40.75"/>
<polygon fill="black" stroke="black" points="63.25,-38.22 53.29,-34.62 58.83,-43.65 63.25,-38.22"/>
</g>
<!-- 3 -->
<g id="node5" class="node">
<title>3</title>
<ellipse fill="none" stroke="black" cx="120.1" cy="-18" rx="34.1" ry="18"/>
<text text-anchor="middle" x="120.1" y="-12.57" font-family="Times New Roman,serif" font-size="14.00">&#45;5.316</text>
</g>
<!-- 1&#45;&gt;3 -->
<g id="edge4" class="edge">
<title>1&#45;&gt;3</title>
<path fill="none" stroke="black" d="M120.1,-71.7C120.1,-64.41 120.1,-55.73 120.1,-47.54"/>
<polygon fill="black" stroke="black" points="123.6,-47.62 120.1,-37.62 116.6,-47.62 123.6,-47.62"/>
</g>
<!-- 5 -->
<g id="node6" class="node">
<title>5</title>
<ellipse fill="none" stroke="black" cx="203.1" cy="-18" rx="31.1" ry="18"/>
<text text-anchor="middle" x="203.1" y="-12.57" font-family="Times New Roman,serif" font-size="14.00">5.804</text>
</g>
<!-- 4&#45;&gt;5 -->
<g id="edge5" class="edge">
<title>4&#45;&gt;5</title>
<path fill="none" stroke="black" d="M203.1,-71.7C203.1,-64.41 203.1,-55.73 203.1,-47.54"/>
<polygon fill="black" stroke="black" points="206.6,-47.62 203.1,-37.62 199.6,-47.62 206.6,-47.62"/>
</g>
<!-- 6 -->
<g id="node7" class="node">
<title>6</title>
<ellipse fill="none" stroke="black" cx="279.1" cy="-18" rx="27" ry="18"/>
<text text-anchor="middle" x="279.1" y="-12.57" font-family="Times New Roman,serif" font-size="14.00">x</text>
</g>
<!-- 4&#45;&gt;6 -->
<g id="edge6" class="edge">
<title>4&#45;&gt;6</title>
<path fill="none" stroke="black" d="M218.48,-74.83C229.09,-65.06 243.4,-51.88 255.45,-40.78"/>
<polygon fill="black" stroke="black" points="257.64,-43.52 262.63,-34.17 252.9,-38.37 257.64,-43.52"/>
</g>
</g>
</svg>
