<?xml version="1.0" encoding="UTF-8" standalone="no"?>
<!DOCTYPE svg PUBLIC "-//W3C//DTD SVG 1.1//EN"
 "http://www.w3.org/Graphics/SVG/1.1/DTD/svg11.dtd">
<!-- Generated by graphviz version 2.50.0 (0)
 -->
<!-- Pages: 1 -->
<svg width="182pt" height="260pt"
 viewBox="0.00 0.00 182.09 260.00" xmlns="http://www.w3.org/2000/svg" xmlns:xlink="http://www.w3.org/1999/xlink">
<g id="graph0" class="graph" transform="scale(1 1) rotate(0) translate(4 256)">
<polygon fill="white" stroke="transparent" points="-4,4 -4,-256 178.09,-256 178.09,4 -4,4"/>
<!-- 0 -->
<g id="node1" class="node">
<title>0</title>
<ellipse fill="none" stroke="black" cx="105.55" cy="-234" rx="27" ry="18"/>
<text text-anchor="middle" x="105.55" y="-230.3" font-family="Times New Roman,serif" font-size="14.00">+</text>
</g>
<!-- 1 -->
<g id="node2" class="node">
<title>1</title>
<ellipse fill="none" stroke="black" cx="67.55" cy="-162" rx="27" ry="18"/>
<text text-anchor="middle" x="67.55" y="-158.3" font-family="Times New Roman,serif" font-size="14.00">*</text>
</g>
<!-- 0&#45;&gt;1 -->
<g id="edge1" class="edge">
<title>0&#45;&gt;1</title>
<path fill="none" stroke="black" d="M96.73,-216.76C92.13,-208.28 86.39,-197.71 81.23,-188.2"/>
<polygon fill="black" stroke="black" points="84.16,-186.27 76.31,-179.15 78.01,-189.61 84.16,-186.27"/>
</g>
<!-- 5 -->
<g id="node3" class="node">
<title>5</title>
<ellipse fill="none" stroke="black" cx="143.55" cy="-162" rx="30.59" ry="18"/>
<text text-anchor="middle" x="143.55" y="-158.3" font-family="Times New Roman,serif" font-size="14.00">0.298</text>
</g>
<!-- 0&#45;&gt;5 -->
<g id="edge2" class="edge">
<title>0&#45;&gt;5</title>
<path fill="none" stroke="black" d="M114.36,-216.76C118.9,-208.4 124.54,-198.02 129.65,-188.61"/>
<polygon fill="black" stroke="black" points="132.82,-190.09 134.52,-179.63 126.67,-186.75 132.82,-190.09"/>
</g>
<!-- 2 -->
<g id="node4" class="node">
<title>2</title>
<ellipse fill="none" stroke="black" cx="30.55" cy="-90" rx="28.7" ry="18"/>
<text text-anchor="middle" x="30.55" y="-86.3" font-family="Times New Roman,serif" font-size="14.00">quart</text>
</g>
<!-- 1&#45;&gt;2 -->
<g id="edge3" class="edge">
<title>1&#45;&gt;2</title>
<path fill="none" stroke="black" d="M58.97,-144.76C54.55,-136.4 49.06,-126.02 44.08,-116.61"/>
<polygon fill="black" stroke="black" points="47.11,-114.84 39.34,-107.63 40.92,-118.11 47.11,-114.84"/>
</g>
<!-- 4 -->
<g id="node5" class="node">
<title>4</title>
<ellipse fill="none" stroke="black" cx="104.55" cy="-90" rx="27" ry="18"/>
<text text-anchor="middle" x="104.55" y="-86.3" font-family="Times New Roman,serif" font-size="14.00">x</text>
</g>
<!-- 1&#45;&gt;4 -->
<g id="edge4" class="edge">
<title>1&#45;&gt;4</title>
<path fill="none" stroke="black" d="M76.13,-144.76C80.61,-136.28 86.2,-125.71 91.23,-116.2"/>
<polygon fill="black" stroke="black" points="94.43,-117.62 96.01,-107.15 88.24,-114.35 94.43,-117.62"/>
</g>
<!-- 3 -->
<g id="node6" class="node">
<title>3</title>
<ellipse fill="none" stroke="black" cx="30.55" cy="-18" rx="30.59" ry="18"/>
<text text-anchor="middle" x="30.55" y="-14.3" font-family="Times New Roman,serif" font-size="14.00">0.965</text>
</g>
<!-- 2&#45;&gt;3 -->
<g id="edge5" class="edge">
<title>2&#45;&gt;3</title>
<path fill="none" stroke="black" d="M30.55,-71.7C30.55,-63.98 30.55,-54.71 30.55,-46.11"/>
<polygon fill="black" stroke="black" points="34.05,-46.1 30.55,-36.1 27.05,-46.1 34.05,-46.1"/>
</g>
</g>
</svg>
