<?xml version="1.0" encoding="UTF-8" standalone="no"?>
<!DOCTYPE svg PUBLIC "-//W3C//DTD SVG 1.1//EN"
 "http://www.w3.org/Graphics/SVG/1.1/DTD/svg11.dtd">
<!-- Generated by graphviz version 2.50.0 (0)
 -->
<!-- Pages: 1 -->
<svg width="221pt" height="188pt"
 viewBox="0.00 0.00 221.09 188.00" xmlns="http://www.w3.org/2000/svg" xmlns:xlink="http://www.w3.org/1999/xlink">
<g id="graph0" class="graph" transform="scale(1 1) rotate(0) translate(4 184)">
<polygon fill="white" stroke="transparent" points="-4,4 -4,-184 217.09,-184 217.09,4 -4,4"/>
<!-- 0 -->
<g id="node1" class="node">
<title>0</title>
<ellipse fill="none" stroke="black" cx="143.55" cy="-162" rx="27" ry="18"/>
<text text-anchor="middle" x="143.55" y="-158.3" font-family="Times New Roman,serif" font-size="14.00">+</text>
</g>
<!-- 1 -->
<g id="node2" class="node">
<title>1</title>
<ellipse fill="none" stroke="black" cx="106.55" cy="-90" rx="27" ry="18"/>
<text text-anchor="middle" x="106.55" y="-86.3" font-family="Times New Roman,serif" font-size="14.00">*</text>
</g>
<!-- 0&#45;&gt;1 -->
<g id="edge1" class="edge">
<title>0&#45;&gt;1</title>
<path fill="none" stroke="black" d="M134.97,-144.76C130.48,-136.28 124.9,-125.71 119.87,-116.2"/>
<polygon fill="black" stroke="black" points="122.85,-114.35 115.08,-107.15 116.66,-117.62 122.85,-114.35"/>
</g>
<!-- 4 -->
<g id="node3" class="node">
<title>4</title>
<ellipse fill="none" stroke="black" cx="181.55" cy="-90" rx="28.7" ry="18"/>
<text text-anchor="middle" x="181.55" y="-86.3" font-family="Times New Roman,serif" font-size="14.00">quart</text>
</g>
<!-- 0&#45;&gt;4 -->
<g id="edge2" class="edge">
<title>0&#45;&gt;4</title>
<path fill="none" stroke="black" d="M152.36,-144.76C156.97,-136.28 162.7,-125.71 167.87,-116.2"/>
<polygon fill="black" stroke="black" points="171.09,-117.61 172.78,-107.15 164.93,-114.27 171.09,-117.61"/>
</g>
<!-- 2 -->
<g id="node4" class="node">
<title>2</title>
<ellipse fill="none" stroke="black" cx="30.55" cy="-18" rx="30.59" ry="18"/>
<text text-anchor="middle" x="30.55" y="-14.3" font-family="Times New Roman,serif" font-size="14.00">0.896</text>
</g>
<!-- 1&#45;&gt;2 -->
<g id="edge3" class="edge">
<title>1&#45;&gt;2</title>
<path fill="none" stroke="black" d="M91.17,-74.83C80.49,-65 66.08,-51.72 53.98,-40.58"/>
<polygon fill="black" stroke="black" points="56.15,-37.83 46.43,-33.63 51.41,-42.98 56.15,-37.83"/>
</g>
<!-- 3 -->
<g id="node5" class="node">
<title>3</title>
<ellipse fill="none" stroke="black" cx="106.55" cy="-18" rx="27" ry="18"/>
<text text-anchor="middle" x="106.55" y="-14.3" font-family="Times New Roman,serif" font-size="14.00">x</text>
</g>
<!-- 1&#45;&gt;3 -->
<g id="edge4" class="edge">
<title>1&#45;&gt;3</title>
<path fill="none" stroke="black" d="M106.55,-71.7C106.55,-63.98 106.55,-54.71 106.55,-46.11"/>
<polygon fill="black" stroke="black" points="110.05,-46.1 106.55,-36.1 103.05,-46.1 110.05,-46.1"/>
</g>
<!-- 5 -->
<g id="node6" class="node">
<title>5</title>
<ellipse fill="none" stroke="black" cx="182.55" cy="-18" rx="30.59" ry="18"/>
<text text-anchor="middle" x="182.55" y="-14.3" font-family="Times New Roman,serif" font-size="14.00">0.139</text>
</g>
<!-- 4&#45;&gt;5 -->
<g id="edge5" class="edge">
<title>4&#45;&gt;5</title>
<path fill="none" stroke="black" d="M181.79,-71.7C181.9,-63.98 182.04,-54.71 182.16,-46.11"/>
<polygon fill="black" stroke="black" points="185.66,-46.15 182.3,-36.1 178.66,-46.05 185.66,-46.15"/>
</g>
</g>
</svg>
