<?xml version="1.0" encoding="UTF-8" standalone="no"?>
<!DOCTYPE svg PUBLIC "-//W3C//DTD SVG 1.1//EN"
 "http://www.w3.org/Graphics/SVG/1.1/DTD/svg11.dtd">
<!-- Generated by graphviz version 2.50.0 (0)
 -->
<!-- Pages: 1 -->
<svg width="183pt" height="260pt"
 viewBox="0.00 0.00 183.09 260.00" xmlns="http://www.w3.org/2000/svg" xmlns:xlink="http://www.w3.org/1999/xlink">
<g id="graph0" class="graph" transform="scale(1 1) rotate(0) translate(4 256)">
<polygon fill="white" stroke="transparent" points="-4,4 -4,-256 179.09,-256 179.09,4 -4,4"/>
<!-- 0 -->
<g id="node1" class="node">
<title>0</title>
<ellipse fill="none" stroke="black" cx="106.55" cy="-234" rx="27" ry="18"/>
<text text-anchor="middle" x="106.55" y="-230.3" font-family="Times New Roman,serif" font-size="14.00">/</text>
</g>
<!-- 1 -->
<g id="node2" class="node">
<title>1</title>
<ellipse fill="none" stroke="black" cx="68.55" cy="-162" rx="27" ry="18"/>
<text text-anchor="middle" x="68.55" y="-158.3" font-family="Times New Roman,serif" font-size="14.00">sqrt</text>
</g>
<!-- 0&#45;&gt;1 -->
<g id="edge1" class="edge">
<title>0&#45;&gt;1</title>
<path fill="none" stroke="black" d="M97.73,-216.76C93.13,-208.28 87.39,-197.71 82.23,-188.2"/>
<polygon fill="black" stroke="black" points="85.16,-186.27 77.31,-179.15 79.01,-189.61 85.16,-186.27"/>
</g>
<!-- 5 -->
<g id="node3" class="node">
<title>5</title>
<ellipse fill="none" stroke="black" cx="144.55" cy="-162" rx="30.59" ry="18"/>
<text text-anchor="middle" x="144.55" y="-158.3" font-family="Times New Roman,serif" font-size="14.00">0.373</text>
</g>
<!-- 0&#45;&gt;5 -->
<g id="edge2" class="edge">
<title>0&#45;&gt;5</title>
<path fill="none" stroke="black" d="M115.36,-216.76C119.9,-208.4 125.54,-198.02 130.65,-188.61"/>
<polygon fill="black" stroke="black" points="133.82,-190.09 135.52,-179.63 127.67,-186.75 133.82,-190.09"/>
</g>
<!-- 2 -->
<g id="node4" class="node">
<title>2</title>
<ellipse fill="none" stroke="black" cx="68.55" cy="-90" rx="27" ry="18"/>
<text text-anchor="middle" x="68.55" y="-86.3" font-family="Times New Roman,serif" font-size="14.00">+</text>
</g>
<!-- 1&#45;&gt;2 -->
<g id="edge3" class="edge">
<title>1&#45;&gt;2</title>
<path fill="none" stroke="black" d="M68.55,-143.7C68.55,-135.98 68.55,-126.71 68.55,-118.11"/>
<polygon fill="black" stroke="black" points="72.05,-118.1 68.55,-108.1 65.05,-118.1 72.05,-118.1"/>
</g>
<!-- 3 -->
<g id="node5" class="node">
<title>3</title>
<ellipse fill="none" stroke="black" cx="30.55" cy="-18" rx="30.59" ry="18"/>
<text text-anchor="middle" x="30.55" y="-14.3" font-family="Times New Roman,serif" font-size="14.00">0.973</text>
</g>
<!-- 2&#45;&gt;3 -->
<g id="edge4" class="edge">
<title>2&#45;&gt;3</title>
<path fill="none" stroke="black" d="M59.73,-72.76C55.2,-64.4 49.56,-54.02 44.45,-44.61"/>
<polygon fill="black" stroke="black" points="47.42,-42.75 39.58,-35.63 41.27,-46.09 47.42,-42.75"/>
</g>
<!-- 4 -->
<g id="node6" class="node">
<title>4</title>
<ellipse fill="none" stroke="black" cx="106.55" cy="-18" rx="27" ry="18"/>
<text text-anchor="middle" x="106.55" y="-14.3" font-family="Times New Roman,serif" font-size="14.00">x</text>
</g>
<!-- 2&#45;&gt;4 -->
<g id="edge5" class="edge">
<title>2&#45;&gt;4</title>
<path fill="none" stroke="black" d="M77.36,-72.76C81.97,-64.28 87.7,-53.71 92.87,-44.2"/>
<polygon fill="black" stroke="black" points="96.09,-45.61 97.78,-35.15 89.93,-42.27 96.09,-45.61"/>
</g>
</g>
</svg>
