<?xml version="1.0" encoding="UTF-8" standalone="no"?>
<!DOCTYPE svg PUBLIC "-//W3C//DTD SVG 1.1//EN"
 "http://www.w3.org/Graphics/SVG/1.1/DTD/svg11.dtd">
<!-- Generated by graphviz version 2.50.0 (0)
 -->
<!-- Pages: 1 -->
<svg width="180pt" height="260pt"
 viewBox="0.00 0.00 179.55 260.00" xmlns="http://www.w3.org/2000/svg" xmlns:xlink="http://www.w3.org/1999/xlink">
<g id="graph0" class="graph" transform="scale(1 1) rotate(0) translate(4 256)">
<polygon fill="white" stroke="transparent" points="-4,4 -4,-256 175.55,-256 175.55,4 -4,4"/>
<!-- 0 -->
<g id="node1" class="node">
<title>0</title>
<ellipse fill="none" stroke="black" cx="68.55" cy="-234" rx="27" ry="18"/>
<text text-anchor="middle" x="68.55" y="-230.3" font-family="Times New Roman,serif" font-size="14.00">/</text>
</g>
<!-- 1 -->
<g id="node2" class="node">
<title>1</title>
<ellipse fill="none" stroke="black" cx="30.55" cy="-162" rx="30.59" ry="18"/>
<text text-anchor="middle" x="30.55" y="-158.3" font-family="Times New Roman,serif" font-size="14.00">0.794</text>
</g>
<!-- 0&#45;&gt;1 -->
<g id="edge1" class="edge">
<title>0&#45;&gt;1</title>
<path fill="none" stroke="black" d="M59.73,-216.76C55.2,-208.4 49.56,-198.02 44.45,-188.61"/>
<polygon fill="black" stroke="black" points="47.42,-186.75 39.58,-179.63 41.27,-190.09 47.42,-186.75"/>
</g>
<!-- 2 -->
<g id="node3" class="node">
<title>2</title>
<ellipse fill="none" stroke="black" cx="106.55" cy="-162" rx="27" ry="18"/>
<text text-anchor="middle" x="106.55" y="-158.3" font-family="Times New Roman,serif" font-size="14.00">sqrt</text>
</g>
<!-- 0&#45;&gt;2 -->
<g id="edge2" class="edge">
<title>0&#45;&gt;2</title>
<path fill="none" stroke="black" d="M77.36,-216.76C81.97,-208.28 87.7,-197.71 92.87,-188.2"/>
<polygon fill="black" stroke="black" points="96.09,-189.61 97.78,-179.15 89.93,-186.27 96.09,-189.61"/>
</g>
<!-- 3 -->
<g id="node4" class="node">
<title>3</title>
<ellipse fill="none" stroke="black" cx="106.55" cy="-90" rx="27" ry="18"/>
<text text-anchor="middle" x="106.55" y="-86.3" font-family="Times New Roman,serif" font-size="14.00">/</text>
</g>
<!-- 2&#45;&gt;3 -->
<g id="edge3" class="edge">
<title>2&#45;&gt;3</title>
<path fill="none" stroke="black" d="M106.55,-143.7C106.55,-135.98 106.55,-126.71 106.55,-118.11"/>
<polygon fill="black" stroke="black" points="110.05,-118.1 106.55,-108.1 103.05,-118.1 110.05,-118.1"/>
</g>
<!-- 4 -->
<g id="node5" class="node">
<title>4</title>
<ellipse fill="none" stroke="black" cx="68.55" cy="-18" rx="30.59" ry="18"/>
<text text-anchor="middle" x="68.55" y="-14.3" font-family="Times New Roman,serif" font-size="14.00">0.468</text>
</g>
<!-- 3&#45;&gt;4 -->
<g id="edge4" class="edge">
<title>3&#45;&gt;4</title>
<path fill="none" stroke="black" d="M97.73,-72.76C93.2,-64.4 87.56,-54.02 82.45,-44.61"/>
<polygon fill="black" stroke="black" points="85.42,-42.75 77.58,-35.63 79.27,-46.09 85.42,-42.75"/>
</g>
<!-- 5 -->
<g id="node6" class="node">
<title>5</title>
<ellipse fill="none" stroke="black" cx="144.55" cy="-18" rx="27" ry="18"/>
<text text-anchor="middle" x="144.55" y="-14.3" font-family="Times New Roman,serif" font-size="14.00">x</text>
</g>
<!-- 3&#45;&gt;5 -->
<g id="edge5" class="edge">
<title>3&#45;&gt;5</title>
<path fill="none" stroke="black" d="M115.36,-72.76C119.97,-64.28 125.7,-53.71 130.87,-44.2"/>
<polygon fill="black" stroke="black" points="134.09,-45.61 135.78,-35.15 127.93,-42.27 134.09,-45.61"/>
</g>
</g>
</svg>
