<?xml version="1.0" encoding="UTF-8" standalone="no"?>
<!DOCTYPE svg PUBLIC "-//W3C//DTD SVG 1.1//EN"
 "http://www.w3.org/Graphics/SVG/1.1/DTD/svg11.dtd">
<!-- Generated by graphviz version 2.50.0 (0)
 -->
<!-- Pages: 1 -->
<svg width="148pt" height="260pt"
 viewBox="0.00 0.00 147.80 260.00" xmlns="http://www.w3.org/2000/svg" xmlns:xlink="http://www.w3.org/1999/xlink">
<g id="graph0" class="graph" transform="scale(1 1) rotate(0) translate(4 256)">
<polygon fill="white" stroke="transparent" points="-4,4 -4,-256 143.8,-256 143.8,4 -4,4"/>
<!-- 0 -->
<g id="node1" class="node">
<title>0</title>
<ellipse fill="none" stroke="black" cx="72.8" cy="-234" rx="27" ry="18"/>
<text text-anchor="middle" x="72.8" y="-230.3" font-family="Times New Roman,serif" font-size="14.00">sqrt</text>
</g>
<!-- 1 -->
<g id="node2" class="node">
<title>1</title>
<ellipse fill="none" stroke="black" cx="72.8" cy="-162" rx="33.6" ry="18"/>
<text text-anchor="middle" x="72.8" y="-158.3" font-family="Times New Roman,serif" font-size="14.00">square</text>
</g>
<!-- 0&#45;&gt;1 -->
<g id="edge1" class="edge">
<title>0&#45;&gt;1</title>
<path fill="none" stroke="black" d="M72.8,-215.7C72.8,-207.98 72.8,-198.71 72.8,-190.11"/>
<polygon fill="black" stroke="black" points="76.3,-190.1 72.8,-180.1 69.3,-190.1 76.3,-190.1"/>
</g>
<!-- 2 -->
<g id="node3" class="node">
<title>2</title>
<ellipse fill="none" stroke="black" cx="72.8" cy="-90" rx="27" ry="18"/>
<text text-anchor="middle" x="72.8" y="-86.3" font-family="Times New Roman,serif" font-size="14.00">*</text>
</g>
<!-- 1&#45;&gt;2 -->
<g id="edge2" class="edge">
<title>1&#45;&gt;2</title>
<path fill="none" stroke="black" d="M72.8,-143.7C72.8,-135.98 72.8,-126.71 72.8,-118.11"/>
<polygon fill="black" stroke="black" points="76.3,-118.1 72.8,-108.1 69.3,-118.1 76.3,-118.1"/>
</g>
<!-- 3 -->
<g id="node4" class="node">
<title>3</title>
<ellipse fill="none" stroke="black" cx="33.8" cy="-18" rx="33.6" ry="18"/>
<text text-anchor="middle" x="33.8" y="-14.3" font-family="Times New Roman,serif" font-size="14.00">&#45;1.251</text>
</g>
<!-- 2&#45;&gt;3 -->
<g id="edge3" class="edge">
<title>2&#45;&gt;3</title>
<path fill="none" stroke="black" d="M63.75,-72.76C59.09,-64.4 53.31,-54.02 48.06,-44.61"/>
<polygon fill="black" stroke="black" points="50.99,-42.67 43.06,-35.63 44.87,-46.07 50.99,-42.67"/>
</g>
<!-- 4 -->
<g id="node5" class="node">
<title>4</title>
<ellipse fill="none" stroke="black" cx="112.8" cy="-18" rx="27" ry="18"/>
<text text-anchor="middle" x="112.8" y="-14.3" font-family="Times New Roman,serif" font-size="14.00">x</text>
</g>
<!-- 2&#45;&gt;4 -->
<g id="edge4" class="edge">
<title>2&#45;&gt;4</title>
<path fill="none" stroke="black" d="M82.07,-72.76C86.97,-64.19 93.09,-53.49 98.57,-43.9"/>
<polygon fill="black" stroke="black" points="101.65,-45.57 103.57,-35.15 95.57,-42.09 101.65,-45.57"/>
</g>
</g>
</svg>
