<?xml version="1.0" encoding="UTF-8" standalone="no"?>
<!DOCTYPE svg PUBLIC "-//W3C//DTD SVG 1.1//EN"
 "http://www.w3.org/Graphics/SVG/1.1/DTD/svg11.dtd">
<!-- Generated by graphviz version 2.50.0 (0)
 -->
<!-- Pages: 1 -->
<svg width="134pt" height="260pt"
 viewBox="0.00 0.00 134.30 260.00" xmlns="http://www.w3.org/2000/svg" xmlns:xlink="http://www.w3.org/1999/xlink">
<g id="graph0" class="graph" transform="scale(1 1) rotate(0) translate(4 256)">
<polygon fill="white" stroke="transparent" points="-4,4 -4,-256 130.3,-256 130.3,4 -4,4"/>
<!-- 0 -->
<g id="node1" class="node">
<title>0</title>
<ellipse fill="none" stroke="black" cx="63.3" cy="-234" rx="27" ry="18"/>
<text text-anchor="middle" x="63.3" y="-230.3" font-family="Times New Roman,serif" font-size="14.00">sin</text>
</g>
<!-- 1 -->
<g id="node2" class="node">
<title>1</title>
<ellipse fill="none" stroke="black" cx="63.3" cy="-162" rx="27" ry="18"/>
<text text-anchor="middle" x="63.3" y="-158.3" font-family="Times New Roman,serif" font-size="14.00">+</text>
</g>
<!-- 0&#45;&gt;1 -->
<g id="edge1" class="edge">
<title>0&#45;&gt;1</title>
<path fill="none" stroke="black" d="M63.3,-215.7C63.3,-207.98 63.3,-198.71 63.3,-190.11"/>
<polygon fill="black" stroke="black" points="66.8,-190.1 63.3,-180.1 59.8,-190.1 66.8,-190.1"/>
</g>
<!-- 2 -->
<g id="node3" class="node">
<title>2</title>
<ellipse fill="none" stroke="black" cx="27.3" cy="-90" rx="27.1" ry="18"/>
<text text-anchor="middle" x="27.3" y="-86.3" font-family="Times New Roman,serif" font-size="14.00">cube</text>
</g>
<!-- 1&#45;&gt;2 -->
<g id="edge2" class="edge">
<title>1&#45;&gt;2</title>
<path fill="none" stroke="black" d="M54.95,-144.76C50.59,-136.28 45.15,-125.71 40.26,-116.2"/>
<polygon fill="black" stroke="black" points="43.29,-114.44 35.6,-107.15 37.06,-117.64 43.29,-114.44"/>
</g>
<!-- 4 -->
<g id="node4" class="node">
<title>4</title>
<ellipse fill="none" stroke="black" cx="99.3" cy="-90" rx="27" ry="18"/>
<text text-anchor="middle" x="99.3" y="-86.3" font-family="Times New Roman,serif" font-size="14.00">x</text>
</g>
<!-- 1&#45;&gt;4 -->
<g id="edge3" class="edge">
<title>1&#45;&gt;4</title>
<path fill="none" stroke="black" d="M71.65,-144.76C76.01,-136.28 81.44,-125.71 86.34,-116.2"/>
<polygon fill="black" stroke="black" points="89.53,-117.64 90.99,-107.15 83.31,-114.44 89.53,-117.64"/>
</g>
<!-- 3 -->
<g id="node5" class="node">
<title>3</title>
<ellipse fill="none" stroke="black" cx="27.3" cy="-18" rx="27" ry="18"/>
<text text-anchor="middle" x="27.3" y="-14.3" font-family="Times New Roman,serif" font-size="14.00">x</text>
</g>
<!-- 2&#45;&gt;3 -->
<g id="edge4" class="edge">
<title>2&#45;&gt;3</title>
<path fill="none" stroke="black" d="M27.3,-71.7C27.3,-63.98 27.3,-54.71 27.3,-46.11"/>
<polygon fill="black" stroke="black" points="30.8,-46.1 27.3,-36.1 23.8,-46.1 30.8,-46.1"/>
</g>
</g>
</svg>
