<?xml version="1.0" encoding="UTF-8" standalone="no"?>
<!DOCTYPE svg PUBLIC "-//W3C//DTD SVG 1.1//EN"
 "http://www.w3.org/Graphics/SVG/1.1/DTD/svg11.dtd">
<!-- Generated by graphviz version 2.50.0 (0)
 -->
<!-- Pages: 1 -->
<svg width="142pt" height="260pt"
 viewBox="0.00 0.00 141.84 260.00" xmlns="http://www.w3.org/2000/svg" xmlns:xlink="http://www.w3.org/1999/xlink">
<g id="graph0" class="graph" transform="scale(1 1) rotate(0) translate(4 256)">
<polygon fill="white" stroke="transparent" points="-4,4 -4,-256 137.84,-256 137.84,4 -4,4"/>
<!-- 0 -->
<g id="node1" class="node">
<title>0</title>
<ellipse fill="none" stroke="black" cx="65.3" cy="-234" rx="27" ry="18"/>
<text text-anchor="middle" x="65.3" y="-230.3" font-family="Times New Roman,serif" font-size="14.00">tanh</text>
</g>
<!-- 1 -->
<g id="node2" class="node">
<title>1</title>
<ellipse fill="none" stroke="black" cx="65.3" cy="-162" rx="27" ry="18"/>
<text text-anchor="middle" x="65.3" y="-158.3" font-family="Times New Roman,serif" font-size="14.00">*</text>
</g>
<!-- 0&#45;&gt;1 -->
<g id="edge1" class="edge">
<title>0&#45;&gt;1</title>
<path fill="none" stroke="black" d="M65.3,-215.7C65.3,-207.98 65.3,-198.71 65.3,-190.11"/>
<polygon fill="black" stroke="black" points="68.8,-190.1 65.3,-180.1 61.8,-190.1 68.8,-190.1"/>
</g>
<!-- 2 -->
<g id="node3" class="node">
<title>2</title>
<ellipse fill="none" stroke="black" cx="27.3" cy="-90" rx="27.1" ry="18"/>
<text text-anchor="middle" x="27.3" y="-86.3" font-family="Times New Roman,serif" font-size="14.00">cube</text>
</g>
<!-- 1&#45;&gt;2 -->
<g id="edge2" class="edge">
<title>1&#45;&gt;2</title>
<path fill="none" stroke="black" d="M56.48,-144.76C51.88,-136.28 46.14,-125.71 40.98,-116.2"/>
<polygon fill="black" stroke="black" points="43.91,-114.27 36.06,-107.15 37.76,-117.61 43.91,-114.27"/>
</g>
<!-- 4 -->
<g id="node4" class="node">
<title>4</title>
<ellipse fill="none" stroke="black" cx="103.3" cy="-90" rx="30.59" ry="18"/>
<text text-anchor="middle" x="103.3" y="-86.3" font-family="Times New Roman,serif" font-size="14.00">8.653</text>
</g>
<!-- 1&#45;&gt;4 -->
<g id="edge3" class="edge">
<title>1&#45;&gt;4</title>
<path fill="none" stroke="black" d="M74.11,-144.76C78.65,-136.4 84.29,-126.02 89.4,-116.61"/>
<polygon fill="black" stroke="black" points="92.57,-118.09 94.27,-107.63 86.42,-114.75 92.57,-118.09"/>
</g>
<!-- 3 -->
<g id="node5" class="node">
<title>3</title>
<ellipse fill="none" stroke="black" cx="27.3" cy="-18" rx="27" ry="18"/>
<text text-anchor="middle" x="27.3" y="-14.3" font-family="Times New Roman,serif" font-size="14.00">x</text>
</g>
<!-- 2&#45;&gt;3 -->
<g id="edge4" class="edge">
<title>2&#45;&gt;3</title>
<path fill="none" stroke="black" d="M27.3,-71.7C27.3,-63.98 27.3,-54.71 27.3,-46.11"/>
<polygon fill="black" stroke="black" points="30.8,-46.1 27.3,-36.1 23.8,-46.1 30.8,-46.1"/>
</g>
</g>
</svg>
