<?xml version="1.0" encoding="UTF-8" standalone="no"?>
<!DOCTYPE svg PUBLIC "-//W3C//DTD SVG 1.1//EN"
 "http://www.w3.org/Graphics/SVG/1.1/DTD/svg11.dtd">
<!-- Generated by graphviz version 2.50.0 (0)
 -->
<!-- Pages: 1 -->
<svg width="143pt" height="188pt"
 viewBox="0.00 0.00 142.80 188.00" xmlns="http://www.w3.org/2000/svg" xmlns:xlink="http://www.w3.org/1999/xlink">
<g id="graph0" class="graph" transform="scale(1 1) rotate(0) translate(4 184)">
<polygon fill="white" stroke="transparent" points="-4,4 -4,-184 138.8,-184 138.8,4 -4,4"/>
<!-- 0 -->
<g id="node1" class="node">
<title>0</title>
<ellipse fill="none" stroke="black" cx="70.8" cy="-162" rx="27" ry="18"/>
<text text-anchor="middle" x="70.8" y="-158.3" font-family="Times New Roman,serif" font-size="14.00">*</text>
</g>
<!-- 1 -->
<g id="node2" class="node">
<title>1</title>
<ellipse fill="none" stroke="black" cx="33.8" cy="-90" rx="28.7" ry="18"/>
<text text-anchor="middle" x="33.8" y="-86.3" font-family="Times New Roman,serif" font-size="14.00">quart</text>
</g>
<!-- 0&#45;&gt;1 -->
<g id="edge1" class="edge">
<title>0&#45;&gt;1</title>
<path fill="none" stroke="black" d="M62.22,-144.76C57.8,-136.4 52.31,-126.02 47.33,-116.61"/>
<polygon fill="black" stroke="black" points="50.36,-114.84 42.59,-107.63 44.17,-118.11 50.36,-114.84"/>
</g>
<!-- 3 -->
<g id="node3" class="node">
<title>3</title>
<ellipse fill="none" stroke="black" cx="107.8" cy="-90" rx="27" ry="18"/>
<text text-anchor="middle" x="107.8" y="-86.3" font-family="Times New Roman,serif" font-size="14.00">x</text>
</g>
<!-- 0&#45;&gt;3 -->
<g id="edge2" class="edge">
<title>0&#45;&gt;3</title>
<path fill="none" stroke="black" d="M79.38,-144.76C83.86,-136.28 89.45,-125.71 94.48,-116.2"/>
<polygon fill="black" stroke="black" points="97.68,-117.62 99.26,-107.15 91.49,-114.35 97.68,-117.62"/>
</g>
<!-- 2 -->
<g id="node4" class="node">
<title>2</title>
<ellipse fill="none" stroke="black" cx="33.8" cy="-18" rx="33.6" ry="18"/>
<text text-anchor="middle" x="33.8" y="-14.3" font-family="Times New Roman,serif" font-size="14.00">&#45;1.033</text>
</g>
<!-- 1&#45;&gt;2 -->
<g id="edge3" class="edge">
<title>1&#45;&gt;2</title>
<path fill="none" stroke="black" d="M33.8,-71.7C33.8,-63.98 33.8,-54.71 33.8,-46.11"/>
<polygon fill="black" stroke="black" points="37.3,-46.1 33.8,-36.1 30.3,-46.1 37.3,-46.1"/>
</g>
</g>
</svg>
