<?xml version="1.0" encoding="UTF-8" standalone="no"?>
<!DOCTYPE svg PUBLIC "-//W3C//DTD SVG 1.1//EN"
 "http://www.w3.org/Graphics/SVG/1.1/DTD/svg11.dtd">
<!-- Generated by graphviz version 2.50.0 (0)
 -->
<!-- Pages: 1 -->
<svg width="282pt" height="188pt"
 viewBox="0.00 0.00 282.25 188.00" xmlns="http://www.w3.org/2000/svg" xmlns:xlink="http://www.w3.org/1999/xlink">
<g id="graph0" class="graph" transform="scale(1 1) rotate(0) translate(4 184)">
<polygon fill="white" stroke="transparent" points="-4,4 -4,-184 278.25,-184 278.25,4 -4,4"/>
<!-- 0 -->
<g id="node1" class="node">
<title>0</title>
<ellipse fill="none" stroke="black" cx="139.25" cy="-162" rx="27" ry="18"/>
<text text-anchor="middle" x="139.25" y="-158.3" font-family="Times New Roman,serif" font-size="14.00">*</text>
</g>
<!-- 1 -->
<g id="node2" class="node">
<title>1</title>
<ellipse fill="none" stroke="black" cx="103.25" cy="-90" rx="27" ry="18"/>
<text text-anchor="middle" x="103.25" y="-86.3" font-family="Times New Roman,serif" font-size="14.00">/</text>
</g>
<!-- 0&#45;&gt;1 -->
<g id="edge1" class="edge">
<title>0&#45;&gt;1</title>
<path fill="none" stroke="black" d="M130.9,-144.76C126.54,-136.28 121.1,-125.71 116.21,-116.2"/>
<polygon fill="black" stroke="black" points="119.24,-114.44 111.55,-107.15 113.01,-117.64 119.24,-114.44"/>
</g>
<!-- 4 -->
<g id="node3" class="node">
<title>4</title>
<ellipse fill="none" stroke="black" cx="175.25" cy="-90" rx="27" ry="18"/>
<text text-anchor="middle" x="175.25" y="-86.3" font-family="Times New Roman,serif" font-size="14.00">*</text>
</g>
<!-- 0&#45;&gt;4 -->
<g id="edge2" class="edge">
<title>0&#45;&gt;4</title>
<path fill="none" stroke="black" d="M147.6,-144.76C151.96,-136.28 157.39,-125.71 162.29,-116.2"/>
<polygon fill="black" stroke="black" points="165.48,-117.64 166.94,-107.15 159.26,-114.44 165.48,-117.64"/>
</g>
<!-- 2 -->
<g id="node4" class="node">
<title>2</title>
<ellipse fill="none" stroke="black" cx="29.25" cy="-18" rx="29.5" ry="18"/>
<text text-anchor="middle" x="29.25" y="-14.3" font-family="Times New Roman,serif" font-size="14.00">&#45;7.89</text>
</g>
<!-- 1&#45;&gt;2 -->
<g id="edge3" class="edge">
<title>1&#45;&gt;2</title>
<path fill="none" stroke="black" d="M88.27,-74.83C77.81,-64.94 63.65,-51.55 51.83,-40.36"/>
<polygon fill="black" stroke="black" points="54.12,-37.71 44.45,-33.38 49.31,-42.8 54.12,-37.71"/>
</g>
<!-- 3 -->
<g id="node5" class="node">
<title>3</title>
<ellipse fill="none" stroke="black" cx="103.25" cy="-18" rx="27" ry="18"/>
<text text-anchor="middle" x="103.25" y="-14.3" font-family="Times New Roman,serif" font-size="14.00">x</text>
</g>
<!-- 1&#45;&gt;3 -->
<g id="edge4" class="edge">
<title>1&#45;&gt;3</title>
<path fill="none" stroke="black" d="M103.25,-71.7C103.25,-63.98 103.25,-54.71 103.25,-46.11"/>
<polygon fill="black" stroke="black" points="106.75,-46.1 103.25,-36.1 99.75,-46.1 106.75,-46.1"/>
</g>
<!-- 5 -->
<g id="node6" class="node">
<title>5</title>
<ellipse fill="none" stroke="black" cx="175.25" cy="-18" rx="27" ry="18"/>
<text text-anchor="middle" x="175.25" y="-14.3" font-family="Times New Roman,serif" font-size="14.00">1.14</text>
</g>
<!-- 4&#45;&gt;5 -->
<g id="edge5" class="edge">
<title>4&#45;&gt;5</title>
<path fill="none" stroke="black" d="M175.25,-71.7C175.25,-63.98 175.25,-54.71 175.25,-46.11"/>
<polygon fill="black" stroke="black" points="178.75,-46.1 175.25,-36.1 171.75,-46.1 178.75,-46.1"/>
</g>
<!-- 6 -->
<g id="node7" class="node">
<title>6</title>
<ellipse fill="none" stroke="black" cx="247.25" cy="-18" rx="27" ry="18"/>
<text text-anchor="middle" x="247.25" y="-14.3" font-family="Times New Roman,serif" font-size="14.00">x</text>
</g>
<!-- 4&#45;&gt;6 -->
<g id="edge6" class="edge">
<title>4&#45;&gt;6</title>
<path fill="none" stroke="black" d="M189.82,-74.83C200,-64.94 213.77,-51.55 225.28,-40.36"/>
<polygon fill="black" stroke="black" points="227.72,-42.87 232.45,-33.38 222.84,-37.85 227.72,-42.87"/>
</g>
</g>
</svg>
