<?xml version="1.0" encoding="UTF-8" standalone="no"?>
<!DOCTYPE svg PUBLIC "-//W3C//DTD SVG 1.1//EN"
 "http://www.w3.org/Graphics/SVG/1.1/DTD/svg11.dtd">
<!-- Generated by graphviz version 2.50.0 (0)
 -->
<!-- Pages: 1 -->
<svg width="184pt" height="260pt"
 viewBox="0.00 0.00 183.80 260.00" xmlns="http://www.w3.org/2000/svg" xmlns:xlink="http://www.w3.org/1999/xlink">
<g id="graph0" class="graph" transform="scale(1 1) rotate(0) translate(4 256)">
<polygon fill="white" stroke="transparent" points="-4,4 -4,-256 179.8,-256 179.8,4 -4,4"/>
<!-- 0 -->
<g id="node1" class="node">
<title>0</title>
<ellipse fill="none" stroke="black" cx="72.8" cy="-234" rx="27" ry="18"/>
<text text-anchor="middle" x="72.8" y="-230.3" font-family="Times New Roman,serif" font-size="14.00">sin</text>
</g>
<!-- 1 -->
<g id="node2" class="node">
<title>1</title>
<ellipse fill="none" stroke="black" cx="72.8" cy="-162" rx="27" ry="18"/>
<text text-anchor="middle" x="72.8" y="-158.3" font-family="Times New Roman,serif" font-size="14.00">+</text>
</g>
<!-- 0&#45;&gt;1 -->
<g id="edge1" class="edge">
<title>0&#45;&gt;1</title>
<path fill="none" stroke="black" d="M72.8,-215.7C72.8,-207.98 72.8,-198.71 72.8,-190.11"/>
<polygon fill="black" stroke="black" points="76.3,-190.1 72.8,-180.1 69.3,-190.1 76.3,-190.1"/>
</g>
<!-- 2 -->
<g id="node3" class="node">
<title>2</title>
<ellipse fill="none" stroke="black" cx="33.8" cy="-90" rx="33.6" ry="18"/>
<text text-anchor="middle" x="33.8" y="-86.3" font-family="Times New Roman,serif" font-size="14.00">&#45;4.982</text>
</g>
<!-- 1&#45;&gt;2 -->
<g id="edge2" class="edge">
<title>1&#45;&gt;2</title>
<path fill="none" stroke="black" d="M63.75,-144.76C59.09,-136.4 53.31,-126.02 48.06,-116.61"/>
<polygon fill="black" stroke="black" points="50.99,-114.67 43.06,-107.63 44.87,-118.07 50.99,-114.67"/>
</g>
<!-- 3 -->
<g id="node4" class="node">
<title>3</title>
<ellipse fill="none" stroke="black" cx="112.8" cy="-90" rx="27" ry="18"/>
<text text-anchor="middle" x="112.8" y="-86.3" font-family="Times New Roman,serif" font-size="14.00">*</text>
</g>
<!-- 1&#45;&gt;3 -->
<g id="edge3" class="edge">
<title>1&#45;&gt;3</title>
<path fill="none" stroke="black" d="M82.07,-144.76C86.97,-136.19 93.09,-125.49 98.57,-115.9"/>
<polygon fill="black" stroke="black" points="101.65,-117.57 103.57,-107.15 95.57,-114.09 101.65,-117.57"/>
</g>
<!-- 4 -->
<g id="node5" class="node">
<title>4</title>
<ellipse fill="none" stroke="black" cx="76.8" cy="-18" rx="27" ry="18"/>
<text text-anchor="middle" x="76.8" y="-14.3" font-family="Times New Roman,serif" font-size="14.00">x</text>
</g>
<!-- 3&#45;&gt;4 -->
<g id="edge4" class="edge">
<title>3&#45;&gt;4</title>
<path fill="none" stroke="black" d="M104.45,-72.76C100.09,-64.28 94.65,-53.71 89.76,-44.2"/>
<polygon fill="black" stroke="black" points="92.79,-42.44 85.1,-35.15 86.56,-45.64 92.79,-42.44"/>
</g>
<!-- 5 -->
<g id="node6" class="node">
<title>5</title>
<ellipse fill="none" stroke="black" cx="148.8" cy="-18" rx="27" ry="18"/>
<text text-anchor="middle" x="148.8" y="-14.3" font-family="Times New Roman,serif" font-size="14.00">x</text>
</g>
<!-- 3&#45;&gt;5 -->
<g id="edge5" class="edge">
<title>3&#45;&gt;5</title>
<path fill="none" stroke="black" d="M121.15,-72.76C125.51,-64.28 130.94,-53.71 135.84,-44.2"/>
<polygon fill="black" stroke="black" points="139.03,-45.64 140.49,-35.15 132.81,-42.44 139.03,-45.64"/>
</g>
</g>
</svg>
