<?xml version="1.0" encoding="UTF-8" standalone="no"?>
<!DOCTYPE svg PUBLIC "-//W3C//DTD SVG 1.1//EN"
 "http://www.w3.org/Graphics/SVG/1.1/DTD/svg11.dtd">
<!-- Generated by graphviz version 2.50.0 (0)
 -->
<!-- Pages: 1 -->
<svg width="154pt" height="260pt"
 viewBox="0.00 0.00 154.34 260.00" xmlns="http://www.w3.org/2000/svg" xmlns:xlink="http://www.w3.org/1999/xlink">
<g id="graph0" class="graph" transform="scale(1 1) rotate(0) translate(4 256)">
<polygon fill="white" stroke="transparent" points="-4,4 -4,-256 150.34,-256 150.34,4 -4,4"/>
<!-- 0 -->
<g id="node1" class="node">
<title>0</title>
<ellipse fill="none" stroke="black" cx="71.55" cy="-234" rx="27" ry="18"/>
<text text-anchor="middle" x="71.55" y="-230.3" font-family="Times New Roman,serif" font-size="14.00">tanh</text>
</g>
<!-- 1 -->
<g id="node2" class="node">
<title>1</title>
<ellipse fill="none" stroke="black" cx="71.55" cy="-162" rx="27" ry="18"/>
<text text-anchor="middle" x="71.55" y="-158.3" font-family="Times New Roman,serif" font-size="14.00">*</text>
</g>
<!-- 0&#45;&gt;1 -->
<g id="edge1" class="edge">
<title>0&#45;&gt;1</title>
<path fill="none" stroke="black" d="M71.55,-215.7C71.55,-207.98 71.55,-198.71 71.55,-190.11"/>
<polygon fill="black" stroke="black" points="75.05,-190.1 71.55,-180.1 68.05,-190.1 75.05,-190.1"/>
</g>
<!-- 2 -->
<g id="node3" class="node">
<title>2</title>
<ellipse fill="none" stroke="black" cx="30.55" cy="-90" rx="30.59" ry="18"/>
<text text-anchor="middle" x="30.55" y="-86.3" font-family="Times New Roman,serif" font-size="14.00">2.334</text>
</g>
<!-- 1&#45;&gt;2 -->
<g id="edge2" class="edge">
<title>1&#45;&gt;2</title>
<path fill="none" stroke="black" d="M62.04,-144.76C57.02,-136.19 50.75,-125.49 45.13,-115.9"/>
<polygon fill="black" stroke="black" points="48.08,-114.01 40,-107.15 42.04,-117.55 48.08,-114.01"/>
</g>
<!-- 3 -->
<g id="node4" class="node">
<title>3</title>
<ellipse fill="none" stroke="black" cx="112.55" cy="-90" rx="33.6" ry="18"/>
<text text-anchor="middle" x="112.55" y="-86.3" font-family="Times New Roman,serif" font-size="14.00">square</text>
</g>
<!-- 1&#45;&gt;3 -->
<g id="edge3" class="edge">
<title>1&#45;&gt;3</title>
<path fill="none" stroke="black" d="M81.06,-144.76C86,-136.32 92.16,-125.8 97.72,-116.31"/>
<polygon fill="black" stroke="black" points="100.77,-118.03 102.8,-107.63 94.73,-114.49 100.77,-118.03"/>
</g>
<!-- 4 -->
<g id="node5" class="node">
<title>4</title>
<ellipse fill="none" stroke="black" cx="112.55" cy="-18" rx="27" ry="18"/>
<text text-anchor="middle" x="112.55" y="-14.3" font-family="Times New Roman,serif" font-size="14.00">x</text>
</g>
<!-- 3&#45;&gt;4 -->
<g id="edge4" class="edge">
<title>3&#45;&gt;4</title>
<path fill="none" stroke="black" d="M112.55,-71.7C112.55,-63.98 112.55,-54.71 112.55,-46.11"/>
<polygon fill="black" stroke="black" points="116.05,-46.1 112.55,-36.1 109.05,-46.1 116.05,-46.1"/>
</g>
</g>
</svg>
