<?xml version="1.0" encoding="UTF-8" standalone="no"?>
<!DOCTYPE svg PUBLIC "-//W3C//DTD SVG 1.1//EN"
 "http://www.w3.org/Graphics/SVG/1.1/DTD/svg11.dtd">
<!-- Generated by graphviz version 2.50.0 (0)
 -->
<!-- Pages: 1 -->
<svg width="138pt" height="260pt"
 viewBox="0.00 0.00 137.60 260.00" xmlns="http://www.w3.org/2000/svg" xmlns:xlink="http://www.w3.org/1999/xlink">
<g id="graph0" class="graph" transform="scale(1 1) rotate(0) translate(4 256)">
<polygon fill="white" stroke="transparent" points="-4,4 -4,-256 133.6,-256 133.6,4 -4,4"/>
<!-- 0 -->
<g id="node1" class="node">
<title>0</title>
<ellipse fill="none" stroke="black" cx="65.6" cy="-234" rx="27" ry="18"/>
<text text-anchor="middle" x="65.6" y="-230.3" font-family="Times New Roman,serif" font-size="14.00">tanh</text>
</g>
<!-- 1 -->
<g id="node2" class="node">
<title>1</title>
<ellipse fill="none" stroke="black" cx="65.6" cy="-162" rx="27" ry="18"/>
<text text-anchor="middle" x="65.6" y="-158.3" font-family="Times New Roman,serif" font-size="14.00">*</text>
</g>
<!-- 0&#45;&gt;1 -->
<g id="edge1" class="edge">
<title>0&#45;&gt;1</title>
<path fill="none" stroke="black" d="M65.6,-215.7C65.6,-207.98 65.6,-198.71 65.6,-190.11"/>
<polygon fill="black" stroke="black" points="69.1,-190.1 65.6,-180.1 62.1,-190.1 69.1,-190.1"/>
</g>
<!-- 2 -->
<g id="node3" class="node">
<title>2</title>
<ellipse fill="none" stroke="black" cx="28.6" cy="-90" rx="28.7" ry="18"/>
<text text-anchor="middle" x="28.6" y="-86.3" font-family="Times New Roman,serif" font-size="14.00">quart</text>
</g>
<!-- 1&#45;&gt;2 -->
<g id="edge2" class="edge">
<title>1&#45;&gt;2</title>
<path fill="none" stroke="black" d="M57.02,-144.76C52.6,-136.4 47.11,-126.02 42.13,-116.61"/>
<polygon fill="black" stroke="black" points="45.16,-114.84 37.39,-107.63 38.97,-118.11 45.16,-114.84"/>
</g>
<!-- 4 -->
<g id="node4" class="node">
<title>4</title>
<ellipse fill="none" stroke="black" cx="102.6" cy="-90" rx="27" ry="18"/>
<text text-anchor="middle" x="102.6" y="-86.3" font-family="Times New Roman,serif" font-size="14.00">9.57</text>
</g>
<!-- 1&#45;&gt;4 -->
<g id="edge3" class="edge">
<title>1&#45;&gt;4</title>
<path fill="none" stroke="black" d="M74.18,-144.76C78.66,-136.28 84.25,-125.71 89.28,-116.2"/>
<polygon fill="black" stroke="black" points="92.48,-117.62 94.06,-107.15 86.29,-114.35 92.48,-117.62"/>
</g>
<!-- 3 -->
<g id="node5" class="node">
<title>3</title>
<ellipse fill="none" stroke="black" cx="28.6" cy="-18" rx="27" ry="18"/>
<text text-anchor="middle" x="28.6" y="-14.3" font-family="Times New Roman,serif" font-size="14.00">x</text>
</g>
<!-- 2&#45;&gt;3 -->
<g id="edge4" class="edge">
<title>2&#45;&gt;3</title>
<path fill="none" stroke="black" d="M28.6,-71.7C28.6,-63.98 28.6,-54.71 28.6,-46.11"/>
<polygon fill="black" stroke="black" points="32.1,-46.1 28.6,-36.1 25.1,-46.1 32.1,-46.1"/>
</g>
</g>
</svg>
